solid OpenSCAD_Model
  facet normal 0.125333 -0.992115 0
    outer loop
      vertex 24.814 -1.99013 -1
      vertex 25.4369 -1.91144 3.11502e-015
      vertex 24.814 -1.99013 3.03873e-015
    endloop
  endfacet
  facet normal 0.125333 -0.992115 0
    outer loop
      vertex 25.4369 -1.91144 3.11502e-015
      vertex 24.814 -1.99013 -1
      vertex 25.4369 -1.91144 -1
    endloop
  endfacet
  facet normal 0 -1 0
    outer loop
      vertex 18.65 -1.99013 -1
      vertex 24.814 -1.99013 3.03873e-015
      vertex 18.65 -1.99013 2.28389e-015
    endloop
  endfacet
  facet normal 0 -1 -0
    outer loop
      vertex 24.814 -1.99013 3.03873e-015
      vertex 18.65 -1.99013 -1
      vertex 24.814 -1.99013 -1
    endloop
  endfacet
  facet normal 0 -1 0
    outer loop
      vertex -24.814 -1.99013 -1
      vertex -23.45 -1.99013 -0.4
      vertex -24.814 -1.99013 -0.4
    endloop
  endfacet
  facet normal 0 -1 -0
    outer loop
      vertex -23.45 -1.99013 -0.4
      vertex -24.814 -1.99013 -1
      vertex -23.45 -1.99013 -1
    endloop
  endfacet
  facet normal 0.770513 -0.637425 0
    outer loop
      vertex 28.1448 -0.422735 3.44664e-015
      vertex 28.5451 0.0610733 -1
      vertex 28.5451 0.0610733 3.49565e-015
    endloop
  endfacet
  facet normal 0.770513 -0.637425 0
    outer loop
      vertex 28.5451 0.0610733 -1
      vertex 28.1448 -0.422735 3.44664e-015
      vertex 28.1448 -0.422735 -1
    endloop
  endfacet
  facet normal -1.22461e-016 1.13003e-022 1
    outer loop
      vertex -26.2508 45.4103 -3.21469e-015
      vertex -23.3 44.5 -2.85333e-015
      vertex -25.4805 45.8338 -3.12035e-015
    endloop
  endfacet
  facet normal -1.22461e-016 7.5539e-023 1
    outer loop
      vertex -26.962 44.8936 -3.30178e-015
      vertex -23.3 44.5 -2.85333e-015
      vertex -26.2508 45.4103 -3.21469e-015
    endloop
  endfacet
  facet normal -1.22461e-016 3.738e-023 1
    outer loop
      vertex -27.6028 44.2918 -3.38025e-015
      vertex -23.3 44.5 -2.85333e-015
      vertex -26.962 44.8936 -3.30178e-015
    endloop
  endfacet
  facet normal -1.22461e-016 2.71344e-023 1
    outer loop
      vertex -23.3 44.5 -2.85333e-015
      vertex -27.6028 44.2918 -3.38025e-015
      vertex -24.9 39.5 -3.04927e-015
    endloop
  endfacet
  facet normal -1.22461e-016 5.12487e-023 1
    outer loop
      vertex -28.1631 43.6145 -3.44887e-015
      vertex -24.9 39.5 -3.04927e-015
      vertex -27.6028 44.2918 -3.38025e-015
    endloop
  endfacet
  facet normal -1.22461e-016 2.72958e-023 1
    outer loop
      vertex -28.6341 42.8723 -3.50656e-015
      vertex -24.9 39.5 -3.04927e-015
      vertex -28.1631 43.6145 -3.44887e-015
    endloop
  endfacet
  facet normal -1.22461e-016 -9.45627e-023 1
    outer loop
      vertex -29.0084 42.0769 -3.55239e-015
      vertex -24.9 39.5 -3.04927e-015
      vertex -28.6341 42.8723 -3.50656e-015
    endloop
  endfacet
  facet normal -1.2246e-016 2.97252e-022 1
    outer loop
      vertex -29.2801 41.2408 -3.58566e-015
      vertex -24.9 39.5 -3.04927e-015
      vertex -29.0084 42.0769 -3.55239e-015
    endloop
  endfacet
  facet normal -1.22461e-016 -1.322e-022 1
    outer loop
      vertex -29.4448 40.3773 -3.60583e-015
      vertex -24.9 39.5 -3.04927e-015
      vertex -29.2801 41.2408 -3.58566e-015
    endloop
  endfacet
  facet normal -1.22461e-016 -9.27135e-023 1
    outer loop
      vertex -24.9 39.5 -3.04927e-015
      vertex -29.4448 40.3773 -3.60583e-015
      vertex -29.5 39.5 -3.61259e-015
    endloop
  endfacet
  facet normal -1.22461e-016 0 1
    outer loop
      vertex -18.3 39.5 -2.24103e-015
      vertex 15.4 35 1.88589e-015
      vertex 15.4 41.5 1.88589e-015
    endloop
  endfacet
  facet normal -1.22461e-016 5.3618e-024 1
    outer loop
      vertex 15.4 35 1.88589e-015
      vertex 6.05 1.9 7.40887e-016
      vertex 11.05 1.9 1.35319e-015
    endloop
  endfacet
  facet normal -1.22461e-016 0 1
    outer loop
      vertex 6.05 1.9 7.40887e-016
      vertex -10.45 1.9 -1.27971e-015
      vertex 6.05 -1.1 7.40887e-016
    endloop
  endfacet
  facet normal -1.22461e-016 2.68289e-024 1
    outer loop
      vertex -10.45 1.9 -1.27971e-015
      vertex 15.4 35 1.88589e-015
      vertex -18.3 39.5 -2.24103e-015
    endloop
  endfacet
  facet normal -1.22461e-016 1.65139e-024 1
    outer loop
      vertex 15.4 35 1.88589e-015
      vertex -10.45 1.9 -1.27971e-015
      vertex 6.05 1.9 7.40887e-016
    endloop
  endfacet
  facet normal -1.22461e-016 0 1
    outer loop
      vertex -18.3 39.5 -2.24103e-015
      vertex 15.4 41.5 1.88589e-015
      vertex -18.3 41.5 -2.24103e-015
    endloop
  endfacet
  facet normal -1.22461e-016 -1.9942e-024 1
    outer loop
      vertex -10.45 1.9 -1.27971e-015
      vertex -18.3 39.5 -2.24103e-015
      vertex -15.45 1.9 -1.89202e-015
    endloop
  endfacet
  facet normal -1.22461e-016 -3.89116e-025 1
    outer loop
      vertex -23.3 39.5 -2.85333e-015
      vertex -15.45 1.9 -1.89202e-015
      vertex -18.3 39.5 -2.24103e-015
    endloop
  endfacet
  facet normal -1.22461e-016 2.59768e-024 1
    outer loop
      vertex -15.45 1.9 -1.89202e-015
      vertex -23.3 39.5 -2.85333e-015
      vertex -23.45 1 -2.8717e-015
    endloop
  endfacet
  facet normal -1.22461e-016 0 1
    outer loop
      vertex -15.45 1.9 -1.89202e-015
      vertex -23.45 1 -2.8717e-015
      vertex -15.45 -1.1 -1.89202e-015
    endloop
  endfacet
  facet normal -1.22461e-016 0 1
    outer loop
      vertex -15.45 -1.1 -1.89202e-015
      vertex -23.45 1 -2.8717e-015
      vertex -23.45 -1.1 -2.8717e-015
    endloop
  endfacet
  facet normal -1.22461e-016 3.97034e-024 1
    outer loop
      vertex 11.05 1.9 1.35319e-015
      vertex 20.4 35 2.4982e-015
      vertex 15.4 35 1.88589e-015
    endloop
  endfacet
  facet normal -1.22461e-016 -8.2251e-025 1
    outer loop
      vertex 20.4 35 2.4982e-015
      vertex 11.05 1.9 1.35319e-015
      vertex 18.65 -1.1 2.28389e-015
    endloop
  endfacet
  facet normal -1.22461e-016 0 1
    outer loop
      vertex 18.65 -1.1 2.28389e-015
      vertex 11.05 1.9 1.35319e-015
      vertex 11.05 -1.1 1.35319e-015
    endloop
  endfacet
  facet normal -1.22461e-016 -5.8878e-023 1
    outer loop
      vertex 22.9395 46.4862 2.80919e-015
      vertex 15.4 44.5 1.88589e-015
      vertex 20.4 44.5 2.4982e-015
    endloop
  endfacet
  facet normal -1.22461e-016 0 1
    outer loop
      vertex 15.4 44.5 1.88589e-015
      vertex -18.3 44.5 -2.24103e-015
      vertex 15.4 43.55 1.88589e-015
    endloop
  endfacet
  facet normal -1.22461e-016 -5.2821e-023 1
    outer loop
      vertex -22.9395 46.4862 -2.80919e-015
      vertex 15.4 44.5 1.88589e-015
      vertex 22.9395 46.4862 2.80919e-015
    endloop
  endfacet
  facet normal -1.22461e-016 -5.25992e-024 1
    outer loop
      vertex 15.4 44.5 1.88589e-015
      vertex -22.9395 46.4862 -2.80919e-015
      vertex -18.3 44.5 -2.24103e-015
    endloop
  endfacet
  facet normal -1.22461e-016 -7.28817e-024 1
    outer loop
      vertex -22.9395 46.4862 -2.80919e-015
      vertex -23.3 44.5 -2.85333e-015
      vertex -18.3 44.5 -2.24103e-015
    endloop
  endfacet
  facet normal -1.22461e-016 0 1
    outer loop
      vertex -24.9 39.5 -3.04927e-015
      vertex -23.3 39.5 -2.85333e-015
      vertex -23.3 44.5 -2.85333e-015
    endloop
  endfacet
  facet normal -1.22461e-016 -1.88662e-023 1
    outer loop
      vertex -23.8117 46.376 -2.91599e-015
      vertex -23.3 44.5 -2.85333e-015
      vertex -22.9395 46.4862 -2.80919e-015
    endloop
  endfacet
  facet normal -1.22461e-016 -3.88761e-023 1
    outer loop
      vertex -24.6631 46.1574 -3.02026e-015
      vertex -23.3 44.5 -2.85333e-015
      vertex -23.8117 46.376 -2.91599e-015
    endloop
  endfacet
  facet normal -1.22461e-016 -1.5611e-022 1
    outer loop
      vertex -25.4805 45.8338 -3.12035e-015
      vertex -23.3 44.5 -2.85333e-015
      vertex -24.6631 46.1574 -3.02026e-015
    endloop
  endfacet
  facet normal -1.22461e-016 2.33341e-024 1
    outer loop
      vertex -23.3 39.5 -2.85333e-015
      vertex -24.9 39.5 -3.04927e-015
      vertex -23.45 1 -2.8717e-015
    endloop
  endfacet
  facet normal -1.22461e-016 0 1
    outer loop
      vertex -23.45 1 -2.8717e-015
      vertex -24.9 39.5 -3.04927e-015
      vertex -24.9 1 -3.04927e-015
    endloop
  endfacet
  facet normal -1.22461e-016 0 1
    outer loop
      vertex 20.4 35 2.4982e-015
      vertex 29.5 3 3.61259e-015
      vertex 29.5 39.5 3.61259e-015
    endloop
  endfacet
  facet normal -1.22461e-016 9.0443e-023 1
    outer loop
      vertex 20.4 35 2.4982e-015
      vertex 29.5 39.5 3.61259e-015
      vertex 29.4448 40.3773 3.60583e-015
    endloop
  endfacet
  facet normal -1.22461e-016 3.65647e-025 1
    outer loop
      vertex 18.65 -1.1 2.28389e-015
      vertex 29.5 3 3.61259e-015
      vertex 20.4 35 2.4982e-015
    endloop
  endfacet
  facet normal -1.22461e-016 1.2307e-022 1
    outer loop
      vertex 20.4 35 2.4982e-015
      vertex 29.4448 40.3773 3.60583e-015
      vertex 29.2801 41.2408 3.58566e-015
    endloop
  endfacet
  facet normal -1.22461e-016 -2.25598e-023 1
    outer loop
      vertex 24.814 -1.99013 3.03873e-015
      vertex 29.5 3 3.61259e-015
      vertex 18.65 -1.1 2.28389e-015
    endloop
  endfacet
  facet normal -1.22461e-016 -3.86217e-022 1
    outer loop
      vertex 20.4 44.5 2.4982e-015
      vertex 29.2801 41.2408 3.58566e-015
      vertex 29.0084 42.0769 3.55239e-015
    endloop
  endfacet
  facet normal -1.22461e-016 2.47181e-022 1
    outer loop
      vertex 29.5 3 3.61259e-015
      vertex 24.814 -1.99013 3.03873e-015
      vertex 29.4606 2.37333 3.60776e-015
    endloop
  endfacet
  facet normal -1.22461e-016 1.52752e-022 1
    outer loop
      vertex 20.4 44.5 2.4982e-015
      vertex 29.0084 42.0769 3.55239e-015
      vertex 28.6341 42.8723 3.50656e-015
    endloop
  endfacet
  facet normal -1.22461e-016 1.99824e-022 1
    outer loop
      vertex 29.4606 2.37333 3.60776e-015
      vertex 24.814 -1.99013 3.03873e-015
      vertex 29.3429 1.75655 3.59335e-015
    endloop
  endfacet
  facet normal -1.22461e-016 -4.32463e-023 1
    outer loop
      vertex 20.4 44.5 2.4982e-015
      vertex 28.6341 42.8723 3.50656e-015
      vertex 28.1631 43.6145 3.44887e-015
    endloop
  endfacet
  facet normal -1.22461e-016 -2.97732e-023 1
    outer loop
      vertex 29.3429 1.75655 3.59335e-015
      vertex 24.814 -1.99013 3.03873e-015
      vertex 29.1489 1.15938 3.56959e-015
    endloop
  endfacet
  facet normal -1.2246e-016 -4.36469e-022 1
    outer loop
      vertex 29.1489 1.15938 3.56959e-015
      vertex 24.814 -1.99013 3.03873e-015
      vertex 28.8815 0.591231 3.53685e-015
    endloop
  endfacet
  facet normal -1.22461e-016 -1.0263e-022 1
    outer loop
      vertex 20.4 44.5 2.4982e-015
      vertex 28.1631 43.6145 3.44887e-015
      vertex 27.6028 44.2918 3.38025e-015
    endloop
  endfacet
  facet normal -1.2246e-016 -2.93528e-022 1
    outer loop
      vertex 28.8815 0.591231 3.53685e-015
      vertex 24.814 -1.99013 3.03873e-015
      vertex 28.5451 0.0610733 3.49565e-015
    endloop
  endfacet
  facet normal -1.22461e-016 -5.60311e-023 1
    outer loop
      vertex 20.4 44.5 2.4982e-015
      vertex 27.6028 44.2918 3.38025e-015
      vertex 26.962 44.8936 3.30178e-015
    endloop
  endfacet
  facet normal -1.2246e-016 -4.17794e-022 1
    outer loop
      vertex 28.5451 0.0610733 3.49565e-015
      vertex 24.814 -1.99013 3.03873e-015
      vertex 28.1448 -0.422735 3.44664e-015
    endloop
  endfacet
  facet normal -1.22461e-016 -1.01534e-022 1
    outer loop
      vertex 20.4 44.5 2.4982e-015
      vertex 26.962 44.8936 3.30178e-015
      vertex 26.2508 45.4103 3.21469e-015
    endloop
  endfacet
  facet normal -1.22461e-016 1.43029e-021 1
    outer loop
      vertex 28.1448 -0.422735 3.44664e-015
      vertex 24.814 -1.99013 3.03873e-015
      vertex 27.6871 -0.852566 3.39058e-015
    endloop
  endfacet
  facet normal -1.22461e-016 -1.53635e-022 1
    outer loop
      vertex 20.4 44.5 2.4982e-015
      vertex 26.2508 45.4103 3.21469e-015
      vertex 25.4805 45.8338 3.12035e-015
    endloop
  endfacet
  facet normal -1.2246e-016 -6.69365e-022 1
    outer loop
      vertex 27.6871 -0.852566 3.39058e-015
      vertex 24.814 -1.99013 3.03873e-015
      vertex 27.1791 -1.22164 3.32837e-015
    endloop
  endfacet
  facet normal -1.22461e-016 1.42028e-021 1
    outer loop
      vertex 27.1791 -1.22164 3.32837e-015
      vertex 24.814 -1.99013 3.03873e-015
      vertex 26.6289 -1.52413 3.26099e-015
    endloop
  endfacet
  facet normal -1.22461e-016 2.48692e-022 1
    outer loop
      vertex 20.4 44.5 2.4982e-015
      vertex 25.4805 45.8338 3.12035e-015
      vertex 24.6631 46.1574 3.02026e-015
    endloop
  endfacet
  facet normal -1.22461e-016 1.20643e-024 1
    outer loop
      vertex 20.4 44.5 2.4982e-015
      vertex 24.6631 46.1574 3.02026e-015
      vertex 23.8117 46.376 2.91599e-015
    endloop
  endfacet
  facet normal -1.22461e-016 -1.18293e-022 1
    outer loop
      vertex 20.4 44.5 2.4982e-015
      vertex 23.8117 46.376 2.91599e-015
      vertex 22.9395 46.4862 2.80919e-015
    endloop
  endfacet
  facet normal -1.22461e-016 0 1
    outer loop
      vertex 29.2801 41.2408 3.58566e-015
      vertex 20.4 44.5 2.4982e-015
      vertex 20.4 35 2.4982e-015
    endloop
  endfacet
  facet normal -1.2246e-016 -1.6071e-021 1
    outer loop
      vertex 26.6289 -1.52413 3.26099e-015
      vertex 24.814 -1.99013 3.03873e-015
      vertex 26.0451 -1.75528 3.1895e-015
    endloop
  endfacet
  facet normal -1.22461e-016 3.04548e-021 1
    outer loop
      vertex 26.0451 -1.75528 3.1895e-015
      vertex 24.814 -1.99013 3.03873e-015
      vertex 25.4369 -1.91144 3.11502e-015
    endloop
  endfacet
  facet normal -1.22461e-016 0 1
    outer loop
      vertex 24.814 -1.99013 3.03873e-015
      vertex 18.65 -1.1 2.28389e-015
      vertex 18.65 -1.99013 2.28389e-015
    endloop
  endfacet
  facet normal -1.22461e-016 0 1
    outer loop
      vertex 6.05 -1.1 7.40887e-016
      vertex -10.45 1.9 -1.27971e-015
      vertex -10.45 -1.1 -1.27971e-015
    endloop
  endfacet
  facet normal -1.22461e-016 0 1
    outer loop
      vertex 15.4 43.55 1.88589e-015
      vertex -18.3 44.5 -2.24103e-015
      vertex -18.3 43.55 -2.24103e-015
    endloop
  endfacet
  facet normal 1 -0 0
    outer loop
      vertex 29.5 3 3.61259e-015
      vertex 29.5 39.5 -1
      vertex 29.5 39.5 3.61259e-015
    endloop
  endfacet
  facet normal 1 0 0
    outer loop
      vertex 29.5 39.5 -1
      vertex 29.5 3 3.61259e-015
      vertex 29.5 3 -1
    endloop
  endfacet
  facet normal 0 0 -1
    outer loop
      vertex -23.45 -1.99013 -1
      vertex 18.65 -1.99013 -1
      vertex 18.65 -4.5 -1
    endloop
  endfacet
  facet normal 0 0 -1
    outer loop
      vertex -23.45 -1.99013 -1
      vertex 18.65 -4.5 -1
      vertex -23.45 -4.5 -1
    endloop
  endfacet
  facet normal 0 0 -1
    outer loop
      vertex 18.65 -1.99013 -1
      vertex -23.45 -1.99013 -1
      vertex -22.9395 46.4862 -1
    endloop
  endfacet
  facet normal 0 0 -1
    outer loop
      vertex -29.5 39.5 -1
      vertex -22.9395 46.4862 -1
      vertex -23.45 -1.99013 -1
    endloop
  endfacet
  facet normal 0 0 -1
    outer loop
      vertex -22.9395 46.4862 -1
      vertex -29.5 39.5 -1
      vertex -23.8117 46.376 -1
    endloop
  endfacet
  facet normal 0 0 -1
    outer loop
      vertex -29.5 3 -1
      vertex -23.45 -1.99013 -1
      vertex -24.814 -1.99013 -1
    endloop
  endfacet
  facet normal 0 0 -1
    outer loop
      vertex -29.5 3 -1
      vertex -24.814 -1.99013 -1
      vertex -25.4369 -1.91144 -1
    endloop
  endfacet
  facet normal 0 0 -1
    outer loop
      vertex -23.8117 46.376 -1
      vertex -29.5 39.5 -1
      vertex -24.6631 46.1574 -1
    endloop
  endfacet
  facet normal 0 0 -1
    outer loop
      vertex -29.5 3 -1
      vertex -25.4369 -1.91144 -1
      vertex -26.0451 -1.75528 -1
    endloop
  endfacet
  facet normal 0 0 -1
    outer loop
      vertex -24.6631 46.1574 -1
      vertex -29.5 39.5 -1
      vertex -25.4805 45.8338 -1
    endloop
  endfacet
  facet normal 0 0 -1
    outer loop
      vertex -29.5 3 -1
      vertex -26.0451 -1.75528 -1
      vertex -26.6289 -1.52413 -1
    endloop
  endfacet
  facet normal 0 0 -1
    outer loop
      vertex -25.4805 45.8338 -1
      vertex -29.5 39.5 -1
      vertex -26.2508 45.4103 -1
    endloop
  endfacet
  facet normal 0 0 -1
    outer loop
      vertex -29.5 3 -1
      vertex -26.6289 -1.52413 -1
      vertex -27.1791 -1.22164 -1
    endloop
  endfacet
  facet normal 0 0 -1
    outer loop
      vertex -26.2508 45.4103 -1
      vertex -29.5 39.5 -1
      vertex -26.962 44.8936 -1
    endloop
  endfacet
  facet normal 0 0 -1
    outer loop
      vertex -29.5 3 -1
      vertex -27.1791 -1.22164 -1
      vertex -27.6871 -0.852566 -1
    endloop
  endfacet
  facet normal 0 0 -1
    outer loop
      vertex -29.5 3 -1
      vertex -27.6871 -0.852566 -1
      vertex -28.1448 -0.422735 -1
    endloop
  endfacet
  facet normal 0 0 -1
    outer loop
      vertex -26.962 44.8936 -1
      vertex -29.5 39.5 -1
      vertex -27.6028 44.2918 -1
    endloop
  endfacet
  facet normal 0 0 -1
    outer loop
      vertex -29.5 3 -1
      vertex -28.1448 -0.422735 -1
      vertex -28.5451 0.0610733 -1
    endloop
  endfacet
  facet normal 0 0 -1
    outer loop
      vertex -27.6028 44.2918 -1
      vertex -29.5 39.5 -1
      vertex -28.1631 43.6145 -1
    endloop
  endfacet
  facet normal 0 0 -1
    outer loop
      vertex -29.5 3 -1
      vertex -28.5451 0.0610733 -1
      vertex -28.8815 0.591231 -1
    endloop
  endfacet
  facet normal 0 0 -1
    outer loop
      vertex -28.1631 43.6145 -1
      vertex -29.5 39.5 -1
      vertex -28.6341 42.8723 -1
    endloop
  endfacet
  facet normal 0 0 -1
    outer loop
      vertex -29.5 3 -1
      vertex -28.8815 0.591231 -1
      vertex -29.1489 1.15938 -1
    endloop
  endfacet
  facet normal 0 0 -1
    outer loop
      vertex -28.6341 42.8723 -1
      vertex -29.5 39.5 -1
      vertex -29.0084 42.0769 -1
    endloop
  endfacet
  facet normal 0 0 -1
    outer loop
      vertex -29.5 3 -1
      vertex -29.1489 1.15938 -1
      vertex -29.3429 1.75655 -1
    endloop
  endfacet
  facet normal 0 0 -1
    outer loop
      vertex -29.0084 42.0769 -1
      vertex -29.5 39.5 -1
      vertex -29.2801 41.2408 -1
    endloop
  endfacet
  facet normal 0 0 -1
    outer loop
      vertex -29.5 3 -1
      vertex -29.3429 1.75655 -1
      vertex -29.4606 2.37333 -1
    endloop
  endfacet
  facet normal 0 0 -1
    outer loop
      vertex -23.45 -1.99013 -1
      vertex -29.5 3 -1
      vertex -29.5 39.5 -1
    endloop
  endfacet
  facet normal 0 0 -1
    outer loop
      vertex -29.2801 41.2408 -1
      vertex -29.5 39.5 -1
      vertex -29.4448 40.3773 -1
    endloop
  endfacet
  facet normal 0 0 -1
    outer loop
      vertex 24.814 -1.99013 -1
      vertex 29.5 3 -1
      vertex 29.4606 2.37333 -1
    endloop
  endfacet
  facet normal -0 0 -1
    outer loop
      vertex 29.5 3 -1
      vertex 18.65 -1.99013 -1
      vertex 29.5 39.5 -1
    endloop
  endfacet
  facet normal 0 0 -1
    outer loop
      vertex 24.814 -1.99013 -1
      vertex 29.4606 2.37333 -1
      vertex 29.3429 1.75655 -1
    endloop
  endfacet
  facet normal 0 -0 -1
    outer loop
      vertex 22.9395 46.4862 -1
      vertex 29.5 39.5 -1
      vertex 18.65 -1.99013 -1
    endloop
  endfacet
  facet normal 0 0 -1
    outer loop
      vertex 24.814 -1.99013 -1
      vertex 29.3429 1.75655 -1
      vertex 29.1489 1.15938 -1
    endloop
  endfacet
  facet normal 0 0 -1
    outer loop
      vertex 29.5 39.5 -1
      vertex 22.9395 46.4862 -1
      vertex 29.4448 40.3773 -1
    endloop
  endfacet
  facet normal 0 0 -1
    outer loop
      vertex 24.814 -1.99013 -1
      vertex 29.1489 1.15938 -1
      vertex 28.8815 0.591231 -1
    endloop
  endfacet
  facet normal 0 0 -1
    outer loop
      vertex 29.4448 40.3773 -1
      vertex 22.9395 46.4862 -1
      vertex 29.2801 41.2408 -1
    endloop
  endfacet
  facet normal 0 0 -1
    outer loop
      vertex 24.814 -1.99013 -1
      vertex 28.8815 0.591231 -1
      vertex 28.5451 0.0610733 -1
    endloop
  endfacet
  facet normal 0 0 -1
    outer loop
      vertex 29.2801 41.2408 -1
      vertex 22.9395 46.4862 -1
      vertex 29.0084 42.0769 -1
    endloop
  endfacet
  facet normal 0 0 -1
    outer loop
      vertex 24.814 -1.99013 -1
      vertex 28.5451 0.0610733 -1
      vertex 28.1448 -0.422735 -1
    endloop
  endfacet
  facet normal 0 0 -1
    outer loop
      vertex 24.814 -1.99013 -1
      vertex 28.1448 -0.422735 -1
      vertex 27.6871 -0.852566 -1
    endloop
  endfacet
  facet normal 0 0 -1
    outer loop
      vertex 29.0084 42.0769 -1
      vertex 22.9395 46.4862 -1
      vertex 28.6341 42.8723 -1
    endloop
  endfacet
  facet normal 0 0 -1
    outer loop
      vertex 24.814 -1.99013 -1
      vertex 27.6871 -0.852566 -1
      vertex 27.1791 -1.22164 -1
    endloop
  endfacet
  facet normal 0 0 -1
    outer loop
      vertex 28.6341 42.8723 -1
      vertex 22.9395 46.4862 -1
      vertex 28.1631 43.6145 -1
    endloop
  endfacet
  facet normal 0 0 -1
    outer loop
      vertex 24.814 -1.99013 -1
      vertex 27.1791 -1.22164 -1
      vertex 26.6289 -1.52413 -1
    endloop
  endfacet
  facet normal 0 0 -1
    outer loop
      vertex 28.1631 43.6145 -1
      vertex 22.9395 46.4862 -1
      vertex 27.6028 44.2918 -1
    endloop
  endfacet
  facet normal 0 0 -1
    outer loop
      vertex 24.814 -1.99013 -1
      vertex 26.6289 -1.52413 -1
      vertex 26.0451 -1.75528 -1
    endloop
  endfacet
  facet normal 0 0 -1
    outer loop
      vertex 27.6028 44.2918 -1
      vertex 22.9395 46.4862 -1
      vertex 26.962 44.8936 -1
    endloop
  endfacet
  facet normal 0 0 -1
    outer loop
      vertex 24.814 -1.99013 -1
      vertex 26.0451 -1.75528 -1
      vertex 25.4369 -1.91144 -1
    endloop
  endfacet
  facet normal 0 0 -1
    outer loop
      vertex 29.5 3 -1
      vertex 24.814 -1.99013 -1
      vertex 18.65 -1.99013 -1
    endloop
  endfacet
  facet normal 0 0 -1
    outer loop
      vertex 26.962 44.8936 -1
      vertex 22.9395 46.4862 -1
      vertex 26.2508 45.4103 -1
    endloop
  endfacet
  facet normal 0 0 -1
    outer loop
      vertex 26.2508 45.4103 -1
      vertex 22.9395 46.4862 -1
      vertex 25.4805 45.8338 -1
    endloop
  endfacet
  facet normal 0 0 -1
    outer loop
      vertex 25.4805 45.8338 -1
      vertex 22.9395 46.4862 -1
      vertex 24.6631 46.1574 -1
    endloop
  endfacet
  facet normal 0 0 -1
    outer loop
      vertex 24.6631 46.1574 -1
      vertex 22.9395 46.4862 -1
      vertex 23.8117 46.376 -1
    endloop
  endfacet
  facet normal -0 0 -1
    outer loop
      vertex 22.9395 46.4862 -1
      vertex 18.65 -1.99013 -1
      vertex -22.9395 46.4862 -1
    endloop
  endfacet
  facet normal 0.684548 0.728967 -0
    outer loop
      vertex 27.6028 44.2918 -1
      vertex 26.962 44.8936 3.30178e-015
      vertex 27.6028 44.2918 3.38025e-015
    endloop
  endfacet
  facet normal 0.684548 0.728967 0
    outer loop
      vertex 26.962 44.8936 3.30178e-015
      vertex 27.6028 44.2918 -1
      vertex 26.962 44.8936 -1
    endloop
  endfacet
  facet normal 0 1 -0
    outer loop
      vertex 22.9395 46.4862 -1
      vertex -22.9395 46.4862 -2.80919e-015
      vertex 22.9395 46.4862 2.80919e-015
    endloop
  endfacet
  facet normal 0 1 0
    outer loop
      vertex -22.9395 46.4862 -2.80919e-015
      vertex 22.9395 46.4862 -1
      vertex -22.9395 46.4862 -1
    endloop
  endfacet
  facet normal -1 0 0
    outer loop
      vertex -29.5 3 -1
      vertex -29.5 39.5 -0.4
      vertex -29.5 39.5 -1
    endloop
  endfacet
  facet normal -1 -0 0
    outer loop
      vertex -29.5 39.5 -0.4
      vertex -29.5 3 -1
      vertex -29.5 3 -0.4
    endloop
  endfacet
  facet normal 0.481753 -0.876307 0
    outer loop
      vertex 26.6289 -1.52413 -1
      vertex 27.1791 -1.22164 3.32837e-015
      vertex 26.6289 -1.52413 3.26099e-015
    endloop
  endfacet
  facet normal 0.481753 -0.876307 0
    outer loop
      vertex 27.1791 -1.22164 3.32837e-015
      vertex 26.6289 -1.52413 -1
      vertex 27.1791 -1.22164 -1
    endloop
  endfacet
  facet normal 0.684545 -0.72897 0
    outer loop
      vertex 27.6871 -0.852566 -1
      vertex 28.1448 -0.422735 3.44664e-015
      vertex 27.6871 -0.852566 3.39058e-015
    endloop
  endfacet
  facet normal 0.684545 -0.72897 0
    outer loop
      vertex 28.1448 -0.422735 3.44664e-015
      vertex 27.6871 -0.852566 -1
      vertex 28.1448 -0.422735 -1
    endloop
  endfacet
  facet normal 0.368127 -0.929776 0
    outer loop
      vertex 26.0451 -1.75528 -1
      vertex 26.6289 -1.52413 3.26099e-015
      vertex 26.0451 -1.75528 3.1895e-015
    endloop
  endfacet
  facet normal 0.368127 -0.929776 0
    outer loop
      vertex 26.6289 -1.52413 3.26099e-015
      vertex 26.0451 -1.75528 -1
      vertex 26.6289 -1.52413 -1
    endloop
  endfacet
  facet normal 0.982287 -0.187383 0
    outer loop
      vertex 29.3429 1.75655 3.59335e-015
      vertex 29.4606 2.37333 -1
      vertex 29.4606 2.37333 3.60776e-015
    endloop
  endfacet
  facet normal 0.982287 -0.187383 0
    outer loop
      vertex 29.4606 2.37333 -1
      vertex 29.3429 1.75655 3.59335e-015
      vertex 29.3429 1.75655 -1
    endloop
  endfacet
  facet normal 0.998027 -0.0627909 0
    outer loop
      vertex 29.4606 2.37333 3.60776e-015
      vertex 29.5 3 -1
      vertex 29.5 3 3.61259e-015
    endloop
  endfacet
  facet normal 0.998027 -0.0627909 0
    outer loop
      vertex 29.5 3 -1
      vertex 29.4606 2.37333 3.60776e-015
      vertex 29.4606 2.37333 -1
    endloop
  endfacet
  facet normal 0.982288 0.187379 0
    outer loop
      vertex 29.4448 40.3773 3.60583e-015
      vertex 29.2801 41.2408 -1
      vertex 29.2801 41.2408 3.58566e-015
    endloop
  endfacet
  facet normal 0.982288 0.187379 0
    outer loop
      vertex 29.2801 41.2408 -1
      vertex 29.4448 40.3773 3.60583e-015
      vertex 29.4448 40.3773 -1
    endloop
  endfacet
  facet normal 0.844326 0.53583 0
    outer loop
      vertex 28.6341 42.8723 3.50656e-015
      vertex 28.1631 43.6145 -1
      vertex 28.1631 43.6145 3.44887e-015
    endloop
  endfacet
  facet normal 0.844326 0.53583 0
    outer loop
      vertex 28.1631 43.6145 -1
      vertex 28.6341 42.8723 3.50656e-015
      vertex 28.6341 42.8723 -1
    endloop
  endfacet
  facet normal 0.481756 0.876305 -0
    outer loop
      vertex 26.2508 45.4103 -1
      vertex 25.4805 45.8338 3.12035e-015
      vertex 26.2508 45.4103 3.21469e-015
    endloop
  endfacet
  facet normal 0.481756 0.876305 0
    outer loop
      vertex 25.4805 45.8338 3.12035e-015
      vertex 26.2508 45.4103 -1
      vertex 25.4805 45.8338 -1
    endloop
  endfacet
  facet normal -0.951056 0.309017 0
    outer loop
      vertex -29.2801 41.2408 -1
      vertex -29.0084 42.0769 -3.55239e-015
      vertex -29.0084 42.0769 -1
    endloop
  endfacet
  facet normal -0.951056 0.309019 -1.81399e-006
    outer loop
      vertex -29.0084 42.0769 -3.55239e-015
      vertex -29.2801 41.2408 -1
      vertex -29.2801 41.2408 -3.58566e-015
    endloop
  endfacet
  facet normal -0.24869 -0.968583 0
    outer loop
      vertex -26.0451 -1.75528 -1
      vertex -25.4369 -1.91144 -0.4
      vertex -26.0451 -1.75528 -0.4
    endloop
  endfacet
  facet normal -0.24869 -0.968583 -0
    outer loop
      vertex -25.4369 -1.91144 -0.4
      vertex -26.0451 -1.75528 -1
      vertex -25.4369 -1.91144 -1
    endloop
  endfacet
  facet normal -0.125333 -0.992115 0
    outer loop
      vertex -25.4369 -1.91144 -1
      vertex -24.814 -1.99013 -0.4
      vertex -25.4369 -1.91144 -0.4
    endloop
  endfacet
  facet normal -0.125333 -0.992115 -0
    outer loop
      vertex -24.814 -1.99013 -0.4
      vertex -25.4369 -1.91144 -1
      vertex -24.814 -1.99013 -1
    endloop
  endfacet
  facet normal 0.587786 -0.809016 0
    outer loop
      vertex 27.1791 -1.22164 -1
      vertex 27.6871 -0.852566 3.39058e-015
      vertex 27.1791 -1.22164 3.32837e-015
    endloop
  endfacet
  facet normal 0.587786 -0.809016 0
    outer loop
      vertex 27.6871 -0.852566 3.39058e-015
      vertex 27.1791 -1.22164 -1
      vertex 27.6871 -0.852566 -1
    endloop
  endfacet
  facet normal 0.248689 -0.968583 0
    outer loop
      vertex 25.4369 -1.91144 -1
      vertex 26.0451 -1.75528 3.1895e-015
      vertex 25.4369 -1.91144 3.11502e-015
    endloop
  endfacet
  facet normal 0.248689 -0.968583 0
    outer loop
      vertex 26.0451 -1.75528 3.1895e-015
      vertex 25.4369 -1.91144 -1
      vertex 26.0451 -1.75528 -1
    endloop
  endfacet
  facet normal 0.904827 -0.425779 0
    outer loop
      vertex 28.8815 0.591231 3.53685e-015
      vertex 29.1489 1.15938 -1
      vertex 29.1489 1.15938 3.56959e-015
    endloop
  endfacet
  facet normal 0.904827 -0.425779 0
    outer loop
      vertex 29.1489 1.15938 -1
      vertex 28.8815 0.591231 3.53685e-015
      vertex 28.8815 0.591231 -1
    endloop
  endfacet
  facet normal 0.951057 -0.309016 0
    outer loop
      vertex 29.1489 1.15938 3.56959e-015
      vertex 29.3429 1.75655 -1
      vertex 29.3429 1.75655 3.59335e-015
    endloop
  endfacet
  facet normal 0.951057 -0.309016 0
    outer loop
      vertex 29.3429 1.75655 -1
      vertex 29.1489 1.15938 3.56959e-015
      vertex 29.1489 1.15938 -1
    endloop
  endfacet
  facet normal 0.998027 0.0627924 0
    outer loop
      vertex 29.5 39.5 3.61259e-015
      vertex 29.4448 40.3773 -1
      vertex 29.4448 40.3773 3.60583e-015
    endloop
  endfacet
  facet normal 0.998027 0.0627924 0
    outer loop
      vertex 29.4448 40.3773 -1
      vertex 29.5 39.5 3.61259e-015
      vertex 29.5 39.5 -1
    endloop
  endfacet
  facet normal 0.770513 0.637424 0
    outer loop
      vertex 28.1631 43.6145 3.44887e-015
      vertex 27.6028 44.2918 -1
      vertex 27.6028 44.2918 3.38025e-015
    endloop
  endfacet
  facet normal 0.770513 0.637424 0
    outer loop
      vertex 27.6028 44.2918 -1
      vertex 28.1631 43.6145 3.44887e-015
      vertex 28.1631 43.6145 -1
    endloop
  endfacet
  facet normal 0.587783 0.809019 -0
    outer loop
      vertex 26.962 44.8936 -1
      vertex 26.2508 45.4103 3.21469e-015
      vertex 26.962 44.8936 3.30178e-015
    endloop
  endfacet
  facet normal 0.587783 0.809019 0
    outer loop
      vertex 26.2508 45.4103 3.21469e-015
      vertex 26.962 44.8936 -1
      vertex 26.2508 45.4103 -1
    endloop
  endfacet
  facet normal -0.481756 0.876305 0
    outer loop
      vertex -25.4805 45.8338 -1
      vertex -26.2508 45.4103 -3.21469e-015
      vertex -25.4805 45.8338 -3.12035e-015
    endloop
  endfacet
  facet normal -0.481756 0.876305 0
    outer loop
      vertex -26.2508 45.4103 -3.21469e-015
      vertex -25.4805 45.8338 -1
      vertex -26.2508 45.4103 -1
    endloop
  endfacet
  facet normal -0.684548 0.728967 0
    outer loop
      vertex -26.962 44.8936 -1
      vertex -27.6028 44.2918 -3.38025e-015
      vertex -26.962 44.8936 -3.30178e-015
    endloop
  endfacet
  facet normal -0.684548 0.728967 0
    outer loop
      vertex -27.6028 44.2918 -3.38025e-015
      vertex -26.962 44.8936 -1
      vertex -27.6028 44.2918 -1
    endloop
  endfacet
  facet normal -0.368123 0.929777 0
    outer loop
      vertex -24.6631 46.1574 -1
      vertex -25.4805 45.8338 -3.12035e-015
      vertex -24.6631 46.1574 -3.02026e-015
    endloop
  endfacet
  facet normal -0.368123 0.929777 0
    outer loop
      vertex -25.4805 45.8338 -3.12035e-015
      vertex -24.6631 46.1574 -1
      vertex -25.4805 45.8338 -1
    endloop
  endfacet
  facet normal -0.125333 0.992115 0
    outer loop
      vertex -22.9395 46.4862 -1
      vertex -23.8117 46.376 -2.91599e-015
      vertex -22.9395 46.4862 -2.80919e-015
    endloop
  endfacet
  facet normal -0.125333 0.992115 0
    outer loop
      vertex -23.8117 46.376 -2.91599e-015
      vertex -22.9395 46.4862 -1
      vertex -23.8117 46.376 -1
    endloop
  endfacet
  facet normal -0.770513 0.637424 0
    outer loop
      vertex -28.1631 43.6145 -1
      vertex -27.6028 44.2918 -3.38025e-015
      vertex -27.6028 44.2918 -1
    endloop
  endfacet
  facet normal -0.770513 0.637424 0
    outer loop
      vertex -27.6028 44.2918 -3.38025e-015
      vertex -28.1631 43.6145 -1
      vertex -28.1631 43.6145 -3.44887e-015
    endloop
  endfacet
  facet normal -0.844327 0.535828 0
    outer loop
      vertex -28.6341 42.8723 -1
      vertex -28.1631 43.6145 -3.44887e-015
      vertex -28.1631 43.6145 -1
    endloop
  endfacet
  facet normal -0.844326 0.53583 -1.61042e-006
    outer loop
      vertex -28.1631 43.6145 -3.44887e-015
      vertex -28.6341 42.8723 -1
      vertex -28.6341 42.8723 -3.50656e-015
    endloop
  endfacet
  facet normal -0.982287 0.187381 -1.87356e-006
    outer loop
      vertex -29.4448 40.3773 -1
      vertex -29.2801 41.2408 -3.58566e-015
      vertex -29.2801 41.2408 -1
    endloop
  endfacet
  facet normal -0.982288 0.187379 0
    outer loop
      vertex -29.2801 41.2408 -3.58566e-015
      vertex -29.4448 40.3773 -1
      vertex -29.4448 40.3773 -3.60583e-015
    endloop
  endfacet
  facet normal -0.998027 0.0627924 0
    outer loop
      vertex -29.5 39.5 -0.4
      vertex -29.4448 40.3773 -1
      vertex -29.5 39.5 -1
    endloop
  endfacet
  facet normal -0.998027 0.0627924 0
    outer loop
      vertex -29.4448 40.3773 -1
      vertex -29.5 39.5 -0.4
      vertex -29.4448 40.3773 -3.60583e-015
    endloop
  endfacet
  facet normal -0.998027 0.0627924 0
    outer loop
      vertex -29.4448 40.3773 -3.60583e-015
      vertex -29.5 39.5 -0.4
      vertex -29.5 39.5 -3.61259e-015
    endloop
  endfacet
  facet normal -0.684547 -0.728969 0
    outer loop
      vertex -28.1448 -0.422735 -1
      vertex -27.6871 -0.852566 -0.4
      vertex -28.1448 -0.422735 -0.4
    endloop
  endfacet
  facet normal -0.684547 -0.728969 -0
    outer loop
      vertex -27.6871 -0.852566 -0.4
      vertex -28.1448 -0.422735 -1
      vertex -27.6871 -0.852566 -1
    endloop
  endfacet
  facet normal -0.770513 -0.637425 0
    outer loop
      vertex -28.1448 -0.422735 -1
      vertex -28.5451 0.0610733 -0.4
      vertex -28.5451 0.0610733 -1
    endloop
  endfacet
  facet normal -0.770513 -0.637425 0
    outer loop
      vertex -28.5451 0.0610733 -0.4
      vertex -28.1448 -0.422735 -1
      vertex -28.1448 -0.422735 -0.4
    endloop
  endfacet
  facet normal 0.844329 -0.535825 0
    outer loop
      vertex 28.5451 0.0610733 3.49565e-015
      vertex 28.8815 0.591231 -1
      vertex 28.8815 0.591231 3.53685e-015
    endloop
  endfacet
  facet normal 0.844329 -0.535825 0
    outer loop
      vertex 28.8815 0.591231 -1
      vertex 28.5451 0.0610733 3.49565e-015
      vertex 28.5451 0.0610733 -1
    endloop
  endfacet
  facet normal 0.951056 0.309019 0
    outer loop
      vertex 29.2801 41.2408 3.58566e-015
      vertex 29.0084 42.0769 -1
      vertex 29.0084 42.0769 3.55239e-015
    endloop
  endfacet
  facet normal 0.951056 0.309019 0
    outer loop
      vertex 29.0084 42.0769 -1
      vertex 29.2801 41.2408 3.58566e-015
      vertex 29.2801 41.2408 -1
    endloop
  endfacet
  facet normal 0.904828 0.425776 0
    outer loop
      vertex 29.0084 42.0769 3.55239e-015
      vertex 28.6341 42.8723 -1
      vertex 28.6341 42.8723 3.50656e-015
    endloop
  endfacet
  facet normal 0.904828 0.425776 0
    outer loop
      vertex 28.6341 42.8723 -1
      vertex 29.0084 42.0769 3.55239e-015
      vertex 29.0084 42.0769 -1
    endloop
  endfacet
  facet normal -0.587783 0.809019 0
    outer loop
      vertex -26.2508 45.4103 -1
      vertex -26.962 44.8936 -3.30178e-015
      vertex -26.2508 45.4103 -3.21469e-015
    endloop
  endfacet
  facet normal -0.587783 0.809019 0
    outer loop
      vertex -26.962 44.8936 -3.30178e-015
      vertex -26.2508 45.4103 -1
      vertex -26.962 44.8936 -1
    endloop
  endfacet
  facet normal -0.248691 0.968583 0
    outer loop
      vertex -23.8117 46.376 -1
      vertex -24.6631 46.1574 -3.02026e-015
      vertex -23.8117 46.376 -2.91599e-015
    endloop
  endfacet
  facet normal -0.248691 0.968583 0
    outer loop
      vertex -24.6631 46.1574 -3.02026e-015
      vertex -23.8117 46.376 -1
      vertex -24.6631 46.1574 -1
    endloop
  endfacet
  facet normal -0.904828 0.425778 -1.72582e-006
    outer loop
      vertex -29.0084 42.0769 -1
      vertex -28.6341 42.8723 -3.50656e-015
      vertex -28.6341 42.8723 -1
    endloop
  endfacet
  facet normal -0.904828 0.425776 0
    outer loop
      vertex -28.6341 42.8723 -3.50656e-015
      vertex -29.0084 42.0769 -1
      vertex -29.0084 42.0769 -3.55239e-015
    endloop
  endfacet
  facet normal -0.368126 -0.929776 0
    outer loop
      vertex -26.6289 -1.52413 -1
      vertex -26.0451 -1.75528 -0.4
      vertex -26.6289 -1.52413 -0.4
    endloop
  endfacet
  facet normal -0.368126 -0.929776 -0
    outer loop
      vertex -26.0451 -1.75528 -0.4
      vertex -26.6289 -1.52413 -1
      vertex -26.0451 -1.75528 -1
    endloop
  endfacet
  facet normal -0.844328 -0.535827 0
    outer loop
      vertex -28.5451 0.0610733 -1
      vertex -28.8815 0.591231 -0.4
      vertex -28.8815 0.591231 -1
    endloop
  endfacet
  facet normal -0.844328 -0.535827 0
    outer loop
      vertex -28.8815 0.591231 -0.4
      vertex -28.5451 0.0610733 -1
      vertex -28.5451 0.0610733 -0.4
    endloop
  endfacet
  facet normal -0.951057 -0.309016 0
    outer loop
      vertex -29.1489 1.15938 -1
      vertex -29.3429 1.75655 -0.4
      vertex -29.3429 1.75655 -1
    endloop
  endfacet
  facet normal -0.951057 -0.309016 0
    outer loop
      vertex -29.3429 1.75655 -0.4
      vertex -29.1489 1.15938 -1
      vertex -29.1489 1.15938 -0.4
    endloop
  endfacet
  facet normal -0.904827 -0.425779 0
    outer loop
      vertex -28.8815 0.591231 -1
      vertex -29.1489 1.15938 -0.4
      vertex -29.1489 1.15938 -1
    endloop
  endfacet
  facet normal -0.904827 -0.425779 0
    outer loop
      vertex -29.1489 1.15938 -0.4
      vertex -28.8815 0.591231 -1
      vertex -28.8815 0.591231 -0.4
    endloop
  endfacet
  facet normal 0.368123 0.929777 -0
    outer loop
      vertex 25.4805 45.8338 -1
      vertex 24.6631 46.1574 3.02026e-015
      vertex 25.4805 45.8338 3.12035e-015
    endloop
  endfacet
  facet normal 0.368123 0.929777 0
    outer loop
      vertex 24.6631 46.1574 3.02026e-015
      vertex 25.4805 45.8338 -1
      vertex 24.6631 46.1574 -1
    endloop
  endfacet
  facet normal 0.248691 0.968583 -0
    outer loop
      vertex 24.6631 46.1574 -1
      vertex 23.8117 46.376 2.91599e-015
      vertex 24.6631 46.1574 3.02026e-015
    endloop
  endfacet
  facet normal 0.248691 0.968583 0
    outer loop
      vertex 23.8117 46.376 2.91599e-015
      vertex 24.6631 46.1574 -1
      vertex 23.8117 46.376 -1
    endloop
  endfacet
  facet normal 0.125333 0.992115 -0
    outer loop
      vertex 23.8117 46.376 -1
      vertex 22.9395 46.4862 2.80919e-015
      vertex 23.8117 46.376 2.91599e-015
    endloop
  endfacet
  facet normal 0.125333 0.992115 0
    outer loop
      vertex 22.9395 46.4862 2.80919e-015
      vertex 23.8117 46.376 -1
      vertex 22.9395 46.4862 -1
    endloop
  endfacet
  facet normal -0.982287 -0.187383 0
    outer loop
      vertex -29.3429 1.75655 -1
      vertex -29.4606 2.37333 -0.4
      vertex -29.4606 2.37333 -1
    endloop
  endfacet
  facet normal -0.982287 -0.187383 0
    outer loop
      vertex -29.4606 2.37333 -0.4
      vertex -29.3429 1.75655 -1
      vertex -29.3429 1.75655 -0.4
    endloop
  endfacet
  facet normal -0.998027 -0.0627909 0
    outer loop
      vertex -29.4606 2.37333 -1
      vertex -29.5 3 -0.4
      vertex -29.5 3 -1
    endloop
  endfacet
  facet normal -0.998027 -0.0627909 0
    outer loop
      vertex -29.5 3 -0.4
      vertex -29.4606 2.37333 -1
      vertex -29.4606 2.37333 -0.4
    endloop
  endfacet
  facet normal -0.587785 -0.809017 0
    outer loop
      vertex -27.6871 -0.852566 -1
      vertex -27.1791 -1.22164 -0.4
      vertex -27.6871 -0.852566 -0.4
    endloop
  endfacet
  facet normal -0.587785 -0.809017 -0
    outer loop
      vertex -27.1791 -1.22164 -0.4
      vertex -27.6871 -0.852566 -1
      vertex -27.1791 -1.22164 -1
    endloop
  endfacet
  facet normal -0.481754 -0.876307 0
    outer loop
      vertex -27.1791 -1.22164 -1
      vertex -26.6289 -1.52413 -0.4
      vertex -27.1791 -1.22164 -0.4
    endloop
  endfacet
  facet normal -0.481754 -0.876307 -0
    outer loop
      vertex -26.6289 -1.52413 -0.4
      vertex -27.1791 -1.22164 -1
      vertex -26.6289 -1.52413 -1
    endloop
  endfacet
  facet normal -1 0 0
    outer loop
      vertex -24.9 1 -0.4
      vertex -24.9 39.5 -3.04927e-015
      vertex -24.9 39.5 -0.4
    endloop
  endfacet
  facet normal -1 -0 0
    outer loop
      vertex -24.9 39.5 -3.04927e-015
      vertex -24.9 1 -0.4
      vertex -24.9 1 -3.04927e-015
    endloop
  endfacet
  facet normal -0 0 1
    outer loop
      vertex -29.5 3 -0.4
      vertex -24.9 1 -0.4
      vertex -24.9 39.5 -0.4
    endloop
  endfacet
  facet normal -0 -0 1
    outer loop
      vertex -29.4606 2.37333 -0.4
      vertex -24.9 1 -0.4
      vertex -29.5 3 -0.4
    endloop
  endfacet
  facet normal 0 0 1
    outer loop
      vertex -24.9 1 -0.4
      vertex -26.0451 -1.75528 -0.4
      vertex -25.4369 -1.91144 -0.4
    endloop
  endfacet
  facet normal 0 0 1
    outer loop
      vertex -24.9 1 -0.4
      vertex -26.6289 -1.52413 -0.4
      vertex -26.0451 -1.75528 -0.4
    endloop
  endfacet
  facet normal 0 0 1
    outer loop
      vertex -24.9 1 -0.4
      vertex -27.1791 -1.22164 -0.4
      vertex -26.6289 -1.52413 -0.4
    endloop
  endfacet
  facet normal 0 0 1
    outer loop
      vertex -24.9 1 -0.4
      vertex -27.6871 -0.852566 -0.4
      vertex -27.1791 -1.22164 -0.4
    endloop
  endfacet
  facet normal 0 0 1
    outer loop
      vertex -24.9 1 -0.4
      vertex -28.1448 -0.422735 -0.4
      vertex -27.6871 -0.852566 -0.4
    endloop
  endfacet
  facet normal 0 0 1
    outer loop
      vertex -24.9 1 -0.4
      vertex -28.5451 0.0610733 -0.4
      vertex -28.1448 -0.422735 -0.4
    endloop
  endfacet
  facet normal 0 0 1
    outer loop
      vertex -24.9 1 -0.4
      vertex -28.8815 0.591231 -0.4
      vertex -28.5451 0.0610733 -0.4
    endloop
  endfacet
  facet normal 0 0 1
    outer loop
      vertex -24.9 1 -0.4
      vertex -29.1489 1.15938 -0.4
      vertex -28.8815 0.591231 -0.4
    endloop
  endfacet
  facet normal 0 0 1
    outer loop
      vertex -24.9 1 -0.4
      vertex -29.3429 1.75655 -0.4
      vertex -29.1489 1.15938 -0.4
    endloop
  endfacet
  facet normal 0 0 1
    outer loop
      vertex -29.5 3 -0.4
      vertex -24.9 39.5 -0.4
      vertex -29.5 39.5 -0.4
    endloop
  endfacet
  facet normal 0 0 1
    outer loop
      vertex -24.9 1 -0.4
      vertex -29.4606 2.37333 -0.4
      vertex -29.3429 1.75655 -0.4
    endloop
  endfacet
  facet normal -0 0 1
    outer loop
      vertex -24.9 1 -0.4
      vertex -23.45 -1.1 -0.4
      vertex -23.45 1 -0.4
    endloop
  endfacet
  facet normal 0 0 1
    outer loop
      vertex -23.45 -1.1 -0.4
      vertex -24.814 -1.99013 -0.4
      vertex -23.45 -1.99013 -0.4
    endloop
  endfacet
  facet normal 0 0 1
    outer loop
      vertex -23.45 -1.1 -0.4
      vertex -24.9 1 -0.4
      vertex -24.814 -1.99013 -0.4
    endloop
  endfacet
  facet normal 0 0 1
    outer loop
      vertex -24.814 -1.99013 -0.4
      vertex -24.9 1 -0.4
      vertex -25.4369 -1.91144 -0.4
    endloop
  endfacet
  facet normal 0 -1 0
    outer loop
      vertex -29.5 39.5 -0.4
      vertex -24.9 39.5 -3.04927e-015
      vertex -29.5 39.5 -3.61259e-015
    endloop
  endfacet
  facet normal 0 -1 -0
    outer loop
      vertex -24.9 39.5 -3.04927e-015
      vertex -29.5 39.5 -0.4
      vertex -24.9 39.5 -0.4
    endloop
  endfacet
  facet normal -1 0 0
    outer loop
      vertex -23.45 -1.99013 -1
      vertex -23.45 -4.5 -1
      vertex -23.45 -1.99013 -0.4
    endloop
  endfacet
  facet normal -1 0 -4.76838e-006
    outer loop
      vertex -23.45 -1.99013 -0.4
      vertex -23.45 -1.1 -2.8717e-015
      vertex -23.45 -1.1 -0.4
    endloop
  endfacet
  facet normal -1 -2.14277e-006 0
    outer loop
      vertex -23.45 -1.1 -2.8717e-015
      vertex -23.45 -1.99013 -0.4
      vertex -23.45 -1.1 4.5
    endloop
  endfacet
  facet normal -1 8.29026e-008 -3.46791e-007
    outer loop
      vertex -23.45 -4.5 4.5
      vertex -23.45 -1.99013 -0.4
      vertex -23.45 -4.5 -1
    endloop
  endfacet
  facet normal -1 0 -3.89255e-007
    outer loop
      vertex -23.45 -1.99013 -0.4
      vertex -23.45 -4.5 4.5
      vertex -23.45 -1.1 4.5
    endloop
  endfacet
  facet normal -1 0 -4.76838e-006
    outer loop
      vertex -23.45 -1.1 -0.4
      vertex -23.45 1 -2.8717e-015
      vertex -23.45 1 -0.4
    endloop
  endfacet
  facet normal -1 -0 -4.76838e-006
    outer loop
      vertex -23.45 1 -2.8717e-015
      vertex -23.45 -1.1 -0.4
      vertex -23.45 -1.1 -2.8717e-015
    endloop
  endfacet
  facet normal 0 -1 0
    outer loop
      vertex -24.9 1 -0.4
      vertex -23.45 1 -2.8717e-015
      vertex -24.9 1 -3.04927e-015
    endloop
  endfacet
  facet normal 0 -1 -0
    outer loop
      vertex -23.45 1 -2.8717e-015
      vertex -24.9 1 -0.4
      vertex -23.45 1 -0.4
    endloop
  endfacet
  facet normal 1 0 0
    outer loop
      vertex 18.65 -1.1 4.5
      vertex 18.65 -1.99013 2.28389e-015
      vertex 18.65 -1.1 2.28389e-015
    endloop
  endfacet
  facet normal 1 -0 0
    outer loop
      vertex 18.65 -4.5 4.5
      vertex 18.65 -1.99013 2.28389e-015
      vertex 18.65 -1.1 4.5
    endloop
  endfacet
  facet normal 1 0 0
    outer loop
      vertex 18.65 -4.5 -1
      vertex 18.65 -1.99013 2.28389e-015
      vertex 18.65 -4.5 4.5
    endloop
  endfacet
  facet normal 1 0 0
    outer loop
      vertex 18.65 -1.99013 2.28389e-015
      vertex 18.65 -4.5 -1
      vertex 18.65 -1.99013 -1
    endloop
  endfacet
  facet normal 0 1 -0
    outer loop
      vertex 6.05 -1.1 7.40887e-016
      vertex -10.45 -1.1 4.5
      vertex 6.05 -1.1 4.5
    endloop
  endfacet
  facet normal 0 1 0
    outer loop
      vertex -10.45 -1.1 4.5
      vertex 6.05 -1.1 7.40887e-016
      vertex -10.45 -1.1 -1.27971e-015
    endloop
  endfacet
  facet normal 0 1 -0
    outer loop
      vertex -15.45 -1.1 -1.89202e-015
      vertex -23.45 -1.1 4.5
      vertex -15.45 -1.1 4.5
    endloop
  endfacet
  facet normal 0 1 0
    outer loop
      vertex -23.45 -1.1 4.5
      vertex -15.45 -1.1 -1.89202e-015
      vertex -23.45 -1.1 -2.8717e-015
    endloop
  endfacet
  facet normal 0 -1 0
    outer loop
      vertex -15.45 -1.1 4.5
      vertex -10.45 -1.1 10.5
      vertex -15.45 -1.1 10.5
    endloop
  endfacet
  facet normal 0 -1 -0
    outer loop
      vertex -10.45 -1.1 10.5
      vertex -15.45 -1.1 4.5
      vertex -10.45 -1.1 4.5
    endloop
  endfacet
  facet normal 0 1 -0
    outer loop
      vertex 18.65 -1.1 2.28389e-015
      vertex 11.05 -1.1 4.5
      vertex 18.65 -1.1 4.5
    endloop
  endfacet
  facet normal 0 1 0
    outer loop
      vertex 11.05 -1.1 4.5
      vertex 18.65 -1.1 2.28389e-015
      vertex 11.05 -1.1 1.35319e-015
    endloop
  endfacet
  facet normal 0 -1 0
    outer loop
      vertex 6.05 -1.1 4.5
      vertex 11.05 -1.1 10.5
      vertex 6.05 -1.1 10.5
    endloop
  endfacet
  facet normal 0 -1 -0
    outer loop
      vertex 11.05 -1.1 10.5
      vertex 6.05 -1.1 4.5
      vertex 11.05 -1.1 4.5
    endloop
  endfacet
  facet normal -0 0 1
    outer loop
      vertex 11.05 -1.1 4.5
      vertex 18.65 -4.5 4.5
      vertex 18.65 -1.1 4.5
    endloop
  endfacet
  facet normal -0 0 1
    outer loop
      vertex 6.05 -1.1 4.5
      vertex 18.65 -4.5 4.5
      vertex 11.05 -1.1 4.5
    endloop
  endfacet
  facet normal -0 0 1
    outer loop
      vertex -10.45 -1.1 4.5
      vertex 18.65 -4.5 4.5
      vertex 6.05 -1.1 4.5
    endloop
  endfacet
  facet normal 0 0 1
    outer loop
      vertex -23.45 -4.5 4.5
      vertex -10.45 -1.1 4.5
      vertex -15.45 -1.1 4.5
    endloop
  endfacet
  facet normal 0 0 1
    outer loop
      vertex -23.45 -4.5 4.5
      vertex -15.45 -1.1 4.5
      vertex -23.45 -1.1 4.5
    endloop
  endfacet
  facet normal 0 0 1
    outer loop
      vertex -10.45 -1.1 4.5
      vertex -23.45 -4.5 4.5
      vertex 18.65 -4.5 4.5
    endloop
  endfacet
  facet normal 0 -1 0
    outer loop
      vertex -23.45 -4.5 -1
      vertex 18.65 -4.5 4.5
      vertex -23.45 -4.5 4.5
    endloop
  endfacet
  facet normal 0 -1 -0
    outer loop
      vertex 18.65 -4.5 4.5
      vertex -23.45 -4.5 -1
      vertex 18.65 -4.5 -1
    endloop
  endfacet
  facet normal 1 0 0
    outer loop
      vertex 11.05 -1.1 4.5
      vertex 11.05 1.9 10.5
      vertex 11.05 -1.1 10.5
    endloop
  endfacet
  facet normal 1 0 0
    outer loop
      vertex 11.05 1.9 10.5
      vertex 11.05 -1.1 4.5
      vertex 11.05 1.9 1.35319e-015
    endloop
  endfacet
  facet normal 1 0 0
    outer loop
      vertex 11.05 1.9 1.35319e-015
      vertex 11.05 -1.1 4.5
      vertex 11.05 -1.1 1.35319e-015
    endloop
  endfacet
  facet normal -1 0 0
    outer loop
      vertex 6.05 -1.1 4.5
      vertex 6.05 1.9 7.40887e-016
      vertex 6.05 -1.1 7.40887e-016
    endloop
  endfacet
  facet normal -1 0 0
    outer loop
      vertex 6.05 1.9 7.40887e-016
      vertex 6.05 -1.1 4.5
      vertex 6.05 1.9 10.5
    endloop
  endfacet
  facet normal -1 -0 0
    outer loop
      vertex 6.05 1.9 10.5
      vertex 6.05 -1.1 4.5
      vertex 6.05 -1.1 10.5
    endloop
  endfacet
  facet normal -0 0 1
    outer loop
      vertex 6.05 1.9 10.5
      vertex 11.05 -1.1 10.5
      vertex 11.05 1.9 10.5
    endloop
  endfacet
  facet normal 0 0 1
    outer loop
      vertex 11.05 -1.1 10.5
      vertex 6.05 1.9 10.5
      vertex 6.05 -1.1 10.5
    endloop
  endfacet
  facet normal 0 1 -0
    outer loop
      vertex 11.05 1.9 1.35319e-015
      vertex 6.05 1.9 10.5
      vertex 11.05 1.9 10.5
    endloop
  endfacet
  facet normal 0 1 0
    outer loop
      vertex 6.05 1.9 10.5
      vertex 11.05 1.9 1.35319e-015
      vertex 6.05 1.9 7.40887e-016
    endloop
  endfacet
  facet normal 1 0 0
    outer loop
      vertex -10.45 -1.1 4.5
      vertex -10.45 1.9 10.5
      vertex -10.45 -1.1 10.5
    endloop
  endfacet
  facet normal 1 0 0
    outer loop
      vertex -10.45 1.9 10.5
      vertex -10.45 -1.1 4.5
      vertex -10.45 1.9 -1.27971e-015
    endloop
  endfacet
  facet normal 1 0 0
    outer loop
      vertex -10.45 1.9 -1.27971e-015
      vertex -10.45 -1.1 4.5
      vertex -10.45 -1.1 -1.27971e-015
    endloop
  endfacet
  facet normal -1 0 0
    outer loop
      vertex -15.45 -1.1 4.5
      vertex -15.45 1.9 -1.89202e-015
      vertex -15.45 -1.1 -1.89202e-015
    endloop
  endfacet
  facet normal -1 0 0
    outer loop
      vertex -15.45 1.9 -1.89202e-015
      vertex -15.45 -1.1 4.5
      vertex -15.45 1.9 10.5
    endloop
  endfacet
  facet normal -1 -0 0
    outer loop
      vertex -15.45 1.9 10.5
      vertex -15.45 -1.1 4.5
      vertex -15.45 -1.1 10.5
    endloop
  endfacet
  facet normal -0 0 1
    outer loop
      vertex -15.45 1.9 10.5
      vertex -10.45 -1.1 10.5
      vertex -10.45 1.9 10.5
    endloop
  endfacet
  facet normal 0 0 1
    outer loop
      vertex -10.45 -1.1 10.5
      vertex -15.45 1.9 10.5
      vertex -15.45 -1.1 10.5
    endloop
  endfacet
  facet normal 0 1 -0
    outer loop
      vertex -10.45 1.9 -1.27971e-015
      vertex -15.45 1.9 10.5
      vertex -10.45 1.9 10.5
    endloop
  endfacet
  facet normal 0 1 0
    outer loop
      vertex -15.45 1.9 10.5
      vertex -10.45 1.9 -1.27971e-015
      vertex -15.45 1.9 -1.89202e-015
    endloop
  endfacet
  facet normal 1 0 0
    outer loop
      vertex 20.4 38.5 7
      vertex 20.4 35 7
      vertex 20.4 38.5 5
    endloop
  endfacet
  facet normal 1 -0 0
    outer loop
      vertex 20.4 38.5 5
      vertex 20.4 44.5 2.4982e-015
      vertex 20.4 44.5 5
    endloop
  endfacet
  facet normal 1 0 0
    outer loop
      vertex 20.4 35 2.4982e-015
      vertex 20.4 38.5 5
      vertex 20.4 35 7
    endloop
  endfacet
  facet normal 1 0 0
    outer loop
      vertex 20.4 38.5 5
      vertex 20.4 35 2.4982e-015
      vertex 20.4 44.5 2.4982e-015
    endloop
  endfacet
  facet normal -1 0 0
    outer loop
      vertex 15.4 42.5 2
      vertex 15.4 44.5 5
      vertex 15.4 44.5 2
    endloop
  endfacet
  facet normal -1 0 0
    outer loop
      vertex 15.4 42.5 2
      vertex 15.4 38.5 5
      vertex 15.4 44.5 5
    endloop
  endfacet
  facet normal -1 0 0
    outer loop
      vertex 15.4 41.5 1.88589e-015
      vertex 15.4 38.5 5
      vertex 15.4 42.5 2
    endloop
  endfacet
  facet normal -1 0 0
    outer loop
      vertex 15.4 35 1.88589e-015
      vertex 15.4 38.5 5
      vertex 15.4 41.5 1.88589e-015
    endloop
  endfacet
  facet normal -1 0 0
    outer loop
      vertex 15.4 35 7
      vertex 15.4 38.5 5
      vertex 15.4 35 1.88589e-015
    endloop
  endfacet
  facet normal -1 0 0
    outer loop
      vertex 15.4 38.5 5
      vertex 15.4 35 7
      vertex 15.4 38.5 7
    endloop
  endfacet
  facet normal -1 0 0
    outer loop
      vertex 15.4 44.5 1.88589e-015
      vertex 15.4 43.55 1.88589e-015
      vertex 15.4 44.5 1.9
    endloop
  endfacet
  facet normal 0 1 -0
    outer loop
      vertex 20.4 38.5 5
      vertex 15.4 38.5 7
      vertex 20.4 38.5 7
    endloop
  endfacet
  facet normal 0 1 0
    outer loop
      vertex 15.4 38.5 7
      vertex 20.4 38.5 5
      vertex 15.4 38.5 5
    endloop
  endfacet
  facet normal -0 0 1
    outer loop
      vertex 15.4 38.5 7
      vertex 20.4 35 7
      vertex 20.4 38.5 7
    endloop
  endfacet
  facet normal 0 0 1
    outer loop
      vertex 20.4 35 7
      vertex 15.4 38.5 7
      vertex 15.4 35 7
    endloop
  endfacet
  facet normal 0 -1 0
    outer loop
      vertex 15.4 35 7
      vertex 20.4 35 2.4982e-015
      vertex 20.4 35 7
    endloop
  endfacet
  facet normal -0 -1 0
    outer loop
      vertex 20.4 35 2.4982e-015
      vertex 15.4 35 7
      vertex 15.4 35 1.88589e-015
    endloop
  endfacet
  facet normal 0 1 0
    outer loop
      vertex 20.4 44.5 5
      vertex 15.4 44.5 2
      vertex 15.4 44.5 5
    endloop
  endfacet
  facet normal 0 1 0
    outer loop
      vertex 15.4 44.5 2
      vertex 15.4 44.5 1.9
      vertex -18.3 44.5 2
    endloop
  endfacet
  facet normal 0 1 -0
    outer loop
      vertex 20.4 44.5 2.4982e-015
      vertex 15.4 44.5 2
      vertex 20.4 44.5 5
    endloop
  endfacet
  facet normal 0 1 0
    outer loop
      vertex 15.4 44.5 2
      vertex 20.4 44.5 2.4982e-015
      vertex 15.4 44.5 1.9
    endloop
  endfacet
  facet normal 0 1 0
    outer loop
      vertex 15.4 44.5 1.9
      vertex 20.4 44.5 2.4982e-015
      vertex 15.4 44.5 1.88589e-015
    endloop
  endfacet
  facet normal 0 1 -0
    outer loop
      vertex -18.3 44.5 2
      vertex -23.3 44.5 5
      vertex -18.3 44.5 5
    endloop
  endfacet
  facet normal 0 1 0
    outer loop
      vertex -18.3 44.5 1.9
      vertex -18.3 44.5 2
      vertex 15.4 44.5 1.9
    endloop
  endfacet
  facet normal 0 1 0
    outer loop
      vertex -23.3 44.5 -2.85333e-015
      vertex -18.3 44.5 2
      vertex -18.3 44.5 1.9
    endloop
  endfacet
  facet normal 0 1 0
    outer loop
      vertex -23.3 44.5 -2.85333e-015
      vertex -18.3 44.5 1.9
      vertex -18.3 44.5 -2.24103e-015
    endloop
  endfacet
  facet normal 0 1 0
    outer loop
      vertex -18.3 44.5 2
      vertex -23.3 44.5 -2.85333e-015
      vertex -23.3 44.5 5
    endloop
  endfacet
  facet normal -0 0 1
    outer loop
      vertex 15.4 44.5 5
      vertex 20.4 38.5 5
      vertex 20.4 44.5 5
    endloop
  endfacet
  facet normal 0 0 1
    outer loop
      vertex 20.4 38.5 5
      vertex 15.4 44.5 5
      vertex 15.4 38.5 5
    endloop
  endfacet
  facet normal -0 0 1
    outer loop
      vertex -18.3 44.5 2
      vertex 15.4 42.5 2
      vertex 15.4 44.5 2
    endloop
  endfacet
  facet normal 0 0 1
    outer loop
      vertex 15.4 42.5 2
      vertex -18.3 44.5 2
      vertex -18.3 42.5 2
    endloop
  endfacet
  facet normal 0 -0.894427 0.447214
    outer loop
      vertex -18.3 42.5 2
      vertex 15.4 41.5 1.88589e-015
      vertex 15.4 42.5 2
    endloop
  endfacet
  facet normal -5.47661e-017 -0.894427 0.447214
    outer loop
      vertex 15.4 41.5 1.88589e-015
      vertex -18.3 42.5 2
      vertex -18.3 41.5 -2.24103e-015
    endloop
  endfacet
  facet normal 0 0.894427 -0.447214
    outer loop
      vertex 15.4 43.55 1.88589e-015
      vertex -18.3 44.5 1.9
      vertex 15.4 44.5 1.9
    endloop
  endfacet
  facet normal 5.58308e-017 0.894427 -0.447214
    outer loop
      vertex -18.3 44.5 1.9
      vertex 15.4 43.55 1.88589e-015
      vertex -18.3 43.55 -2.24103e-015
    endloop
  endfacet
  facet normal 1 0 0
    outer loop
      vertex -18.3 44.5 5
      vertex -18.3 42.5 2
      vertex -18.3 44.5 2
    endloop
  endfacet
  facet normal 1 -0 0
    outer loop
      vertex -18.3 39.5 5
      vertex -18.3 42.5 2
      vertex -18.3 44.5 5
    endloop
  endfacet
  facet normal 1 0 0
    outer loop
      vertex -18.3 39.5 -2.24103e-015
      vertex -18.3 42.5 2
      vertex -18.3 39.5 5
    endloop
  endfacet
  facet normal 1 0 0
    outer loop
      vertex -18.3 42.5 2
      vertex -18.3 39.5 -2.24103e-015
      vertex -18.3 41.5 -2.24103e-015
    endloop
  endfacet
  facet normal 1 0 0
    outer loop
      vertex -18.3 44.5 1.9
      vertex -18.3 43.55 -2.24103e-015
      vertex -18.3 44.5 -2.24103e-015
    endloop
  endfacet
  facet normal -1 0 0
    outer loop
      vertex -23.3 39.5 -2.85333e-015
      vertex -23.3 44.5 5
      vertex -23.3 44.5 -2.85333e-015
    endloop
  endfacet
  facet normal -1 -0 0
    outer loop
      vertex -23.3 44.5 5
      vertex -23.3 39.5 -2.85333e-015
      vertex -23.3 39.5 5
    endloop
  endfacet
  facet normal -0 0 1
    outer loop
      vertex -23.3 44.5 5
      vertex -18.3 39.5 5
      vertex -18.3 44.5 5
    endloop
  endfacet
  facet normal 0 0 1
    outer loop
      vertex -18.3 39.5 5
      vertex -23.3 44.5 5
      vertex -23.3 39.5 5
    endloop
  endfacet
  facet normal 0 -1 0
    outer loop
      vertex -23.3 39.5 5
      vertex -18.3 39.5 -2.24103e-015
      vertex -18.3 39.5 5
    endloop
  endfacet
  facet normal -0 -1 0
    outer loop
      vertex -18.3 39.5 -2.24103e-015
      vertex -23.3 39.5 5
      vertex -23.3 39.5 -2.85333e-015
    endloop
  endfacet
endsolid OpenSCAD_Model
