solid OpenSCAD_Model
  facet normal 0.125333 -0.992115 0
    outer loop
      vertex 24.814 -1.89013 -1
      vertex 25.4369 -1.81144 3.11502e-015
      vertex 24.814 -1.89013 3.03873e-015
    endloop
  endfacet
  facet normal 0.125333 -0.992115 0
    outer loop
      vertex 25.4369 -1.81144 3.11502e-015
      vertex 24.814 -1.89013 -1
      vertex 25.4369 -1.81144 -1
    endloop
  endfacet
  facet normal 0 -1 0
    outer loop
      vertex 18.85 -1.89013 -1
      vertex 24.814 -1.89013 3.03873e-015
      vertex 18.85 -1.89013 2.30838e-015
    endloop
  endfacet
  facet normal 0 -1 -0
    outer loop
      vertex 24.814 -1.89013 3.03873e-015
      vertex 18.85 -1.89013 -1
      vertex 24.814 -1.89013 -1
    endloop
  endfacet
  facet normal 0 -1 0
    outer loop
      vertex -24.814 -1.89013 -1
      vertex -23.45 -1.89013 -0.2
      vertex -24.814 -1.89013 -0.2
    endloop
  endfacet
  facet normal 0 -1 -0
    outer loop
      vertex -23.45 -1.89013 -0.2
      vertex -24.814 -1.89013 -1
      vertex -23.45 -1.89013 -1
    endloop
  endfacet
  facet normal -1.22461e-016 1.22693e-022 1
    outer loop
      vertex -26.2508 45.4103 -3.21469e-015
      vertex -23.3 44.7 -2.85333e-015
      vertex -25.4805 45.8338 -3.12035e-015
    endloop
  endfacet
  facet normal -1.22461e-016 8.08323e-023 1
    outer loop
      vertex -26.962 44.8936 -3.30178e-015
      vertex -23.3 44.7 -2.85333e-015
      vertex -26.2508 45.4103 -3.21469e-015
    endloop
  endfacet
  facet normal -1.22461e-016 2.70396e-023 1
    outer loop
      vertex -23.3 44.7 -2.85333e-015
      vertex -26.962 44.8936 -3.30178e-015
      vertex -24.9 39.5 -3.04927e-015
    endloop
  endfacet
  facet normal -1.22461e-016 3.04993e-023 1
    outer loop
      vertex -27.6028 44.2918 -3.38025e-015
      vertex -24.9 39.5 -3.04927e-015
      vertex -26.962 44.8936 -3.30178e-015
    endloop
  endfacet
  facet normal -1.22461e-016 5.12487e-023 1
    outer loop
      vertex -28.1631 43.6145 -3.44887e-015
      vertex -24.9 39.5 -3.04927e-015
      vertex -27.6028 44.2918 -3.38025e-015
    endloop
  endfacet
  facet normal -1.22461e-016 2.72958e-023 1
    outer loop
      vertex -28.6341 42.8723 -3.50656e-015
      vertex -24.9 39.5 -3.04927e-015
      vertex -28.1631 43.6145 -3.44887e-015
    endloop
  endfacet
  facet normal -1.22461e-016 -9.45627e-023 1
    outer loop
      vertex -29.0084 42.0769 -3.55239e-015
      vertex -24.9 39.5 -3.04927e-015
      vertex -28.6341 42.8723 -3.50656e-015
    endloop
  endfacet
  facet normal -1.2246e-016 2.97252e-022 1
    outer loop
      vertex -29.2801 41.2408 -3.58566e-015
      vertex -24.9 39.5 -3.04927e-015
      vertex -29.0084 42.0769 -3.55239e-015
    endloop
  endfacet
  facet normal -1.22461e-016 -1.322e-022 1
    outer loop
      vertex -29.4448 40.3773 -3.60583e-015
      vertex -24.9 39.5 -3.04927e-015
      vertex -29.2801 41.2408 -3.58566e-015
    endloop
  endfacet
  facet normal -1.22461e-016 -9.27135e-023 1
    outer loop
      vertex -24.9 39.5 -3.04927e-015
      vertex -29.4448 40.3773 -3.60583e-015
      vertex -29.5 39.5 -3.61259e-015
    endloop
  endfacet
  facet normal -1.22461e-016 0 1
    outer loop
      vertex -18.3 39.7 -2.24103e-015
      vertex 15.4 35 1.88589e-015
      vertex 15.4 41.7 1.88589e-015
    endloop
  endfacet
  facet normal -1.22461e-016 5.3296e-024 1
    outer loop
      vertex 15.4 35 1.88589e-015
      vertex 6.05 1.7 7.40887e-016
      vertex 11.05 1.7 1.35319e-015
    endloop
  endfacet
  facet normal -1.22461e-016 0 1
    outer loop
      vertex 6.05 1.7 7.40887e-016
      vertex -10.45 1.7 -1.27971e-015
      vertex 6.05 -1.3 7.40887e-016
    endloop
  endfacet
  facet normal -1.22461e-016 2.6572e-024 1
    outer loop
      vertex -10.45 1.7 -1.27971e-015
      vertex 15.4 35 1.88589e-015
      vertex -18.3 39.7 -2.24103e-015
    endloop
  endfacet
  facet normal -1.22461e-016 1.64148e-024 1
    outer loop
      vertex 15.4 35 1.88589e-015
      vertex -10.45 1.7 -1.27971e-015
      vertex 6.05 1.7 7.40887e-016
    endloop
  endfacet
  facet normal -1.22461e-016 0 1
    outer loop
      vertex -18.3 39.7 -2.24103e-015
      vertex 15.4 41.7 1.88589e-015
      vertex -18.3 41.7 -2.24103e-015
    endloop
  endfacet
  facet normal -1.22461e-016 -1.97321e-024 1
    outer loop
      vertex -10.45 1.7 -1.27971e-015
      vertex -18.3 39.7 -2.24103e-015
      vertex -15.45 1.7 -1.89202e-015
    endloop
  endfacet
  facet normal -1.22461e-016 -3.8502e-025 1
    outer loop
      vertex -23.3 39.7 -2.85333e-015
      vertex -15.45 1.7 -1.89202e-015
      vertex -18.3 39.7 -2.24103e-015
    endloop
  endfacet
  facet normal -1.22461e-016 2.584e-024 1
    outer loop
      vertex -15.45 1.7 -1.89202e-015
      vertex -23.3 39.7 -2.85333e-015
      vertex -23.45 1 -2.8717e-015
    endloop
  endfacet
  facet normal -1.22461e-016 0 1
    outer loop
      vertex -15.45 1.7 -1.89202e-015
      vertex -23.45 1 -2.8717e-015
      vertex -15.45 -1.3 -1.89202e-015
    endloop
  endfacet
  facet normal -1.22461e-016 0 1
    outer loop
      vertex -15.45 -1.3 -1.89202e-015
      vertex -23.45 1 -2.8717e-015
      vertex -23.45 -1.3 -2.8717e-015
    endloop
  endfacet
  facet normal -1.22461e-016 3.23815e-024 1
    outer loop
      vertex 20.4 35 2.4982e-015
      vertex 11.05 1.7 1.35319e-015
      vertex 29.5 3.1 3.61259e-015
    endloop
  endfacet
  facet normal -1.22461e-016 2.02325e-023 1
    outer loop
      vertex 29.5 3.1 3.61259e-015
      vertex 11.05 1.7 1.35319e-015
      vertex 18.85 -1.3 2.30838e-015
    endloop
  endfacet
  facet normal -1.22461e-016 0 1
    outer loop
      vertex 18.85 -1.3 2.30838e-015
      vertex 11.05 1.7 1.35319e-015
      vertex 11.05 -1.3 1.35319e-015
    endloop
  endfacet
  facet normal -1.22461e-016 -6.54706e-023 1
    outer loop
      vertex 22.9395 46.4862 2.80919e-015
      vertex 15.4 44.7 1.88589e-015
      vertex 20.4 44.7 2.4982e-015
    endloop
  endfacet
  facet normal -1.22461e-016 0 1
    outer loop
      vertex 15.4 44.7 1.88589e-015
      vertex -18.3 44.7 -2.24103e-015
      vertex 15.4 43.75 1.88589e-015
    endloop
  endfacet
  facet normal -1.22461e-016 -5.87354e-023 1
    outer loop
      vertex -22.9395 46.4862 -2.80919e-015
      vertex 15.4 44.7 1.88589e-015
      vertex 22.9395 46.4862 2.80919e-015
    endloop
  endfacet
  facet normal -1.22461e-016 -5.84888e-024 1
    outer loop
      vertex 15.4 44.7 1.88589e-015
      vertex -22.9395 46.4862 -2.80919e-015
      vertex -18.3 44.7 -2.24103e-015
    endloop
  endfacet
  facet normal -1.22461e-016 -8.10423e-024 1
    outer loop
      vertex -22.9395 46.4862 -2.80919e-015
      vertex -23.3 44.7 -2.85333e-015
      vertex -18.3 44.7 -2.24103e-015
    endloop
  endfacet
  facet normal -1.22461e-016 0 1
    outer loop
      vertex -24.9 39.5 -3.04927e-015
      vertex -23.3 39.7 -2.85333e-015
      vertex -23.3 44.7 -2.85333e-015
    endloop
  endfacet
  facet normal -1.22461e-016 -2.1034e-023 1
    outer loop
      vertex -23.8117 46.376 -2.91599e-015
      vertex -23.3 44.7 -2.85333e-015
      vertex -22.9395 46.4862 -2.80919e-015
    endloop
  endfacet
  facet normal -1.22461e-016 -4.31781e-023 1
    outer loop
      vertex -24.6631 46.1574 -3.02026e-015
      vertex -23.3 44.7 -2.85333e-015
      vertex -23.8117 46.376 -2.91599e-015
    endloop
  endfacet
  facet normal -1.22461e-016 -1.71744e-022 1
    outer loop
      vertex -25.4805 45.8338 -3.12035e-015
      vertex -23.3 44.7 -2.85333e-015
      vertex -24.6631 46.1574 -3.02026e-015
    endloop
  endfacet
  facet normal -1.22461e-016 2.32247e-024 1
    outer loop
      vertex -23.3 39.7 -2.85333e-015
      vertex -24.9 39.5 -3.04927e-015
      vertex -23.45 1 -2.8717e-015
    endloop
  endfacet
  facet normal -1.22461e-016 0 1
    outer loop
      vertex -23.45 1 -2.8717e-015
      vertex -24.9 39.5 -3.04927e-015
      vertex -24.9 1 -3.04927e-015
    endloop
  endfacet
  facet normal -1.22461e-016 0 1
    outer loop
      vertex 20.4 35 2.4982e-015
      vertex 29.5 3.1 3.61259e-015
      vertex 29.5 39.5 3.61259e-015
    endloop
  endfacet
  facet normal -1.22461e-016 9.0443e-023 1
    outer loop
      vertex 20.4 35 2.4982e-015
      vertex 29.5 39.5 3.61259e-015
      vertex 29.4448 40.3773 3.60583e-015
    endloop
  endfacet
  facet normal -1.22461e-016 3.9465e-024 1
    outer loop
      vertex 11.05 1.7 1.35319e-015
      vertex 20.4 35 2.4982e-015
      vertex 15.4 35 1.88589e-015
    endloop
  endfacet
  facet normal -1.22461e-016 1.2307e-022 1
    outer loop
      vertex 20.4 35 2.4982e-015
      vertex 29.4448 40.3773 3.60583e-015
      vertex 29.2801 41.2408 3.58566e-015
    endloop
  endfacet
  facet normal -1.22461e-016 -4.98593e-023 1
    outer loop
      vertex 24.814 -1.89013 3.03873e-015
      vertex 29.5 3.1 3.61259e-015
      vertex 18.85 -1.3 2.30838e-015
    endloop
  endfacet
  facet normal -1.2246e-016 -2.76923e-022 1
    outer loop
      vertex 20.4 35 2.4982e-015
      vertex 29.2801 41.2408 3.58566e-015
      vertex 29.0084 42.0769 3.55239e-015
    endloop
  endfacet
  facet normal -1.22461e-016 2.47181e-022 1
    outer loop
      vertex 29.5 3.1 3.61259e-015
      vertex 24.814 -1.89013 3.03873e-015
      vertex 29.4606 2.47333 3.60776e-015
    endloop
  endfacet
  facet normal -1.22461e-016 1.54702e-022 1
    outer loop
      vertex 20.4 44.7 2.4982e-015
      vertex 29.0084 42.0769 3.55239e-015
      vertex 28.6341 42.8723 3.50656e-015
    endloop
  endfacet
  facet normal -1.22461e-016 1.99824e-022 1
    outer loop
      vertex 29.4606 2.47333 3.60776e-015
      vertex 24.814 -1.89013 3.03873e-015
      vertex 29.3429 1.85655 3.59335e-015
    endloop
  endfacet
  facet normal -1.22461e-016 -4.40222e-023 1
    outer loop
      vertex 20.4 44.7 2.4982e-015
      vertex 28.6341 42.8723 3.50656e-015
      vertex 28.1631 43.6145 3.44887e-015
    endloop
  endfacet
  facet normal -1.22461e-016 -2.97731e-023 1
    outer loop
      vertex 29.3429 1.85655 3.59335e-015
      vertex 24.814 -1.89013 3.03873e-015
      vertex 29.1489 1.25938 3.56959e-015
    endloop
  endfacet
  facet normal -1.2246e-016 -4.36469e-022 1
    outer loop
      vertex 29.1489 1.25938 3.56959e-015
      vertex 24.814 -1.89013 3.03873e-015
      vertex 28.8815 0.691231 3.53685e-015
    endloop
  endfacet
  facet normal -1.22461e-016 -1.05104e-022 1
    outer loop
      vertex 20.4 44.7 2.4982e-015
      vertex 28.1631 43.6145 3.44887e-015
      vertex 27.6028 44.2918 3.38025e-015
    endloop
  endfacet
  facet normal -1.2246e-016 -2.93528e-022 1
    outer loop
      vertex 28.8815 0.691231 3.53685e-015
      vertex 24.814 -1.89013 3.03873e-015
      vertex 28.5451 0.161074 3.49565e-015
    endloop
  endfacet
  facet normal -1.22461e-016 -5.77943e-023 1
    outer loop
      vertex 20.4 44.7 2.4982e-015
      vertex 27.6028 44.2918 3.38025e-015
      vertex 26.962 44.8936 3.30178e-015
    endloop
  endfacet
  facet normal -1.2246e-016 -4.17794e-022 1
    outer loop
      vertex 28.5451 0.161074 3.49565e-015
      vertex 24.814 -1.89013 3.03873e-015
      vertex 28.1448 -0.322735 3.44664e-015
    endloop
  endfacet
  facet normal -1.22461e-016 -1.05628e-022 1
    outer loop
      vertex 20.4 44.7 2.4982e-015
      vertex 26.962 44.8936 3.30178e-015
      vertex 26.2508 45.4103 3.21469e-015
    endloop
  endfacet
  facet normal -1.22461e-016 1.43029e-021 1
    outer loop
      vertex 28.1448 -0.322735 3.44664e-015
      vertex 24.814 -1.89013 3.03873e-015
      vertex 27.6871 -0.752565 3.39058e-015
    endloop
  endfacet
  facet normal -1.22461e-016 -1.6146e-022 1
    outer loop
      vertex 20.4 44.7 2.4982e-015
      vertex 26.2508 45.4103 3.21469e-015
      vertex 25.4805 45.8338 3.12035e-015
    endloop
  endfacet
  facet normal -1.2246e-016 -6.69361e-022 1
    outer loop
      vertex 27.6871 -0.752565 3.39058e-015
      vertex 24.814 -1.89013 3.03873e-015
      vertex 27.1791 -1.12164 3.32837e-015
    endloop
  endfacet
  facet normal -1.22461e-016 1.42028e-021 1
    outer loop
      vertex 27.1791 -1.12164 3.32837e-015
      vertex 24.814 -1.89013 3.03873e-015
      vertex 26.6289 -1.42414 3.26099e-015
    endloop
  endfacet
  facet normal -1.22461e-016 2.64505e-022 1
    outer loop
      vertex 20.4 44.7 2.4982e-015
      vertex 25.4805 45.8338 3.12035e-015
      vertex 24.6631 46.1574 3.02026e-015
    endloop
  endfacet
  facet normal -1.22461e-016 1.30098e-024 1
    outer loop
      vertex 20.4 44.7 2.4982e-015
      vertex 24.6631 46.1574 3.02026e-015
      vertex 23.8117 46.376 2.91599e-015
    endloop
  endfacet
  facet normal -1.22461e-016 -1.29521e-022 1
    outer loop
      vertex 20.4 44.7 2.4982e-015
      vertex 23.8117 46.376 2.91599e-015
      vertex 22.9395 46.4862 2.80919e-015
    endloop
  endfacet
  facet normal -1.22461e-016 0 1
    outer loop
      vertex 29.0084 42.0769 3.55239e-015
      vertex 20.4 44.7 2.4982e-015
      vertex 20.4 35 2.4982e-015
    endloop
  endfacet
  facet normal -1.2246e-016 -1.60711e-021 1
    outer loop
      vertex 26.6289 -1.42414 3.26099e-015
      vertex 24.814 -1.89013 3.03873e-015
      vertex 26.0451 -1.65528 3.1895e-015
    endloop
  endfacet
  facet normal -1.22461e-016 3.04548e-021 1
    outer loop
      vertex 26.0451 -1.65528 3.1895e-015
      vertex 24.814 -1.89013 3.03873e-015
      vertex 25.4369 -1.81144 3.11502e-015
    endloop
  endfacet
  facet normal -1.22461e-016 0 1
    outer loop
      vertex 24.814 -1.89013 3.03873e-015
      vertex 18.85 -1.3 2.30838e-015
      vertex 18.85 -1.89013 2.30838e-015
    endloop
  endfacet
  facet normal -1.22461e-016 0 1
    outer loop
      vertex 6.05 -1.3 7.40887e-016
      vertex -10.45 1.7 -1.27971e-015
      vertex -10.45 -1.3 -1.27971e-015
    endloop
  endfacet
  facet normal -1.22461e-016 0 1
    outer loop
      vertex 15.4 43.75 1.88589e-015
      vertex -18.3 44.7 -2.24103e-015
      vertex -18.3 43.75 -2.24103e-015
    endloop
  endfacet
  facet normal 1 -0 0
    outer loop
      vertex 29.5 3.1 3.61259e-015
      vertex 29.5 39.5 -1
      vertex 29.5 39.5 3.61259e-015
    endloop
  endfacet
  facet normal 1 0 0
    outer loop
      vertex 29.5 39.5 -1
      vertex 29.5 3.1 3.61259e-015
      vertex 29.5 3.1 -1
    endloop
  endfacet
  facet normal 0 0 -1
    outer loop
      vertex -23.45 -1.89013 -1
      vertex 18.85 -1.89013 -1
      vertex 18.85 -4.4 -1
    endloop
  endfacet
  facet normal 0 0 -1
    outer loop
      vertex -23.45 -1.89013 -1
      vertex 18.85 -4.4 -1
      vertex -23.45 -4.4 -1
    endloop
  endfacet
  facet normal 0 0 -1
    outer loop
      vertex 18.85 -1.89013 -1
      vertex -23.45 -1.89013 -1
      vertex -22.9395 46.4862 -1
    endloop
  endfacet
  facet normal 0 0 -1
    outer loop
      vertex -29.5 39.5 -1
      vertex -22.9395 46.4862 -1
      vertex -23.45 -1.89013 -1
    endloop
  endfacet
  facet normal 0 0 -1
    outer loop
      vertex -22.9395 46.4862 -1
      vertex -29.5 39.5 -1
      vertex -23.8117 46.376 -1
    endloop
  endfacet
  facet normal 0 0 -1
    outer loop
      vertex -29.5 3.1 -1
      vertex -23.45 -1.89013 -1
      vertex -24.814 -1.89013 -1
    endloop
  endfacet
  facet normal 0 0 -1
    outer loop
      vertex -29.5 3.1 -1
      vertex -24.814 -1.89013 -1
      vertex -25.4369 -1.81144 -1
    endloop
  endfacet
  facet normal 0 0 -1
    outer loop
      vertex -23.8117 46.376 -1
      vertex -29.5 39.5 -1
      vertex -24.6631 46.1574 -1
    endloop
  endfacet
  facet normal 0 0 -1
    outer loop
      vertex -29.5 3.1 -1
      vertex -25.4369 -1.81144 -1
      vertex -26.0451 -1.65528 -1
    endloop
  endfacet
  facet normal 0 0 -1
    outer loop
      vertex -24.6631 46.1574 -1
      vertex -29.5 39.5 -1
      vertex -25.4805 45.8338 -1
    endloop
  endfacet
  facet normal 0 0 -1
    outer loop
      vertex -29.5 3.1 -1
      vertex -26.0451 -1.65528 -1
      vertex -26.6289 -1.42414 -1
    endloop
  endfacet
  facet normal 0 0 -1
    outer loop
      vertex -25.4805 45.8338 -1
      vertex -29.5 39.5 -1
      vertex -26.2508 45.4103 -1
    endloop
  endfacet
  facet normal 0 0 -1
    outer loop
      vertex -29.5 3.1 -1
      vertex -26.6289 -1.42414 -1
      vertex -27.1791 -1.12164 -1
    endloop
  endfacet
  facet normal 0 0 -1
    outer loop
      vertex -26.2508 45.4103 -1
      vertex -29.5 39.5 -1
      vertex -26.962 44.8936 -1
    endloop
  endfacet
  facet normal 0 0 -1
    outer loop
      vertex -29.5 3.1 -1
      vertex -27.1791 -1.12164 -1
      vertex -27.6871 -0.752565 -1
    endloop
  endfacet
  facet normal 0 0 -1
    outer loop
      vertex -29.5 3.1 -1
      vertex -27.6871 -0.752565 -1
      vertex -28.1448 -0.322735 -1
    endloop
  endfacet
  facet normal 0 0 -1
    outer loop
      vertex -26.962 44.8936 -1
      vertex -29.5 39.5 -1
      vertex -27.6028 44.2918 -1
    endloop
  endfacet
  facet normal 0 0 -1
    outer loop
      vertex -29.5 3.1 -1
      vertex -28.1448 -0.322735 -1
      vertex -28.5451 0.161074 -1
    endloop
  endfacet
  facet normal 0 0 -1
    outer loop
      vertex -27.6028 44.2918 -1
      vertex -29.5 39.5 -1
      vertex -28.1631 43.6145 -1
    endloop
  endfacet
  facet normal 0 0 -1
    outer loop
      vertex -29.5 3.1 -1
      vertex -28.5451 0.161074 -1
      vertex -28.8815 0.691231 -1
    endloop
  endfacet
  facet normal 0 0 -1
    outer loop
      vertex -28.1631 43.6145 -1
      vertex -29.5 39.5 -1
      vertex -28.6341 42.8723 -1
    endloop
  endfacet
  facet normal 0 0 -1
    outer loop
      vertex -29.5 3.1 -1
      vertex -28.8815 0.691231 -1
      vertex -29.1489 1.25938 -1
    endloop
  endfacet
  facet normal 0 0 -1
    outer loop
      vertex -28.6341 42.8723 -1
      vertex -29.5 39.5 -1
      vertex -29.0084 42.0769 -1
    endloop
  endfacet
  facet normal 0 0 -1
    outer loop
      vertex -29.5 3.1 -1
      vertex -29.1489 1.25938 -1
      vertex -29.3429 1.85655 -1
    endloop
  endfacet
  facet normal 0 0 -1
    outer loop
      vertex -29.0084 42.0769 -1
      vertex -29.5 39.5 -1
      vertex -29.2801 41.2408 -1
    endloop
  endfacet
  facet normal 0 0 -1
    outer loop
      vertex -29.5 3.1 -1
      vertex -29.3429 1.85655 -1
      vertex -29.4606 2.47333 -1
    endloop
  endfacet
  facet normal 0 0 -1
    outer loop
      vertex -23.45 -1.89013 -1
      vertex -29.5 3.1 -1
      vertex -29.5 39.5 -1
    endloop
  endfacet
  facet normal 0 0 -1
    outer loop
      vertex -29.2801 41.2408 -1
      vertex -29.5 39.5 -1
      vertex -29.4448 40.3773 -1
    endloop
  endfacet
  facet normal 0 0 -1
    outer loop
      vertex 24.814 -1.89013 -1
      vertex 29.5 3.1 -1
      vertex 29.4606 2.47333 -1
    endloop
  endfacet
  facet normal -0 0 -1
    outer loop
      vertex 29.5 3.1 -1
      vertex 18.85 -1.89013 -1
      vertex 29.5 39.5 -1
    endloop
  endfacet
  facet normal 0 0 -1
    outer loop
      vertex 24.814 -1.89013 -1
      vertex 29.4606 2.47333 -1
      vertex 29.3429 1.85655 -1
    endloop
  endfacet
  facet normal 0 -0 -1
    outer loop
      vertex 22.9395 46.4862 -1
      vertex 29.5 39.5 -1
      vertex 18.85 -1.89013 -1
    endloop
  endfacet
  facet normal 0 0 -1
    outer loop
      vertex 24.814 -1.89013 -1
      vertex 29.3429 1.85655 -1
      vertex 29.1489 1.25938 -1
    endloop
  endfacet
  facet normal 0 0 -1
    outer loop
      vertex 29.5 39.5 -1
      vertex 22.9395 46.4862 -1
      vertex 29.4448 40.3773 -1
    endloop
  endfacet
  facet normal 0 0 -1
    outer loop
      vertex 24.814 -1.89013 -1
      vertex 29.1489 1.25938 -1
      vertex 28.8815 0.691231 -1
    endloop
  endfacet
  facet normal 0 0 -1
    outer loop
      vertex 29.4448 40.3773 -1
      vertex 22.9395 46.4862 -1
      vertex 29.2801 41.2408 -1
    endloop
  endfacet
  facet normal 0 0 -1
    outer loop
      vertex 24.814 -1.89013 -1
      vertex 28.8815 0.691231 -1
      vertex 28.5451 0.161074 -1
    endloop
  endfacet
  facet normal 0 0 -1
    outer loop
      vertex 29.2801 41.2408 -1
      vertex 22.9395 46.4862 -1
      vertex 29.0084 42.0769 -1
    endloop
  endfacet
  facet normal 0 0 -1
    outer loop
      vertex 24.814 -1.89013 -1
      vertex 28.5451 0.161074 -1
      vertex 28.1448 -0.322735 -1
    endloop
  endfacet
  facet normal 0 0 -1
    outer loop
      vertex 24.814 -1.89013 -1
      vertex 28.1448 -0.322735 -1
      vertex 27.6871 -0.752565 -1
    endloop
  endfacet
  facet normal 0 0 -1
    outer loop
      vertex 29.0084 42.0769 -1
      vertex 22.9395 46.4862 -1
      vertex 28.6341 42.8723 -1
    endloop
  endfacet
  facet normal 0 0 -1
    outer loop
      vertex 24.814 -1.89013 -1
      vertex 27.6871 -0.752565 -1
      vertex 27.1791 -1.12164 -1
    endloop
  endfacet
  facet normal 0 0 -1
    outer loop
      vertex 28.6341 42.8723 -1
      vertex 22.9395 46.4862 -1
      vertex 28.1631 43.6145 -1
    endloop
  endfacet
  facet normal 0 0 -1
    outer loop
      vertex 24.814 -1.89013 -1
      vertex 27.1791 -1.12164 -1
      vertex 26.6289 -1.42414 -1
    endloop
  endfacet
  facet normal 0 0 -1
    outer loop
      vertex 28.1631 43.6145 -1
      vertex 22.9395 46.4862 -1
      vertex 27.6028 44.2918 -1
    endloop
  endfacet
  facet normal 0 0 -1
    outer loop
      vertex 24.814 -1.89013 -1
      vertex 26.6289 -1.42414 -1
      vertex 26.0451 -1.65528 -1
    endloop
  endfacet
  facet normal 0 0 -1
    outer loop
      vertex 27.6028 44.2918 -1
      vertex 22.9395 46.4862 -1
      vertex 26.962 44.8936 -1
    endloop
  endfacet
  facet normal 0 0 -1
    outer loop
      vertex 24.814 -1.89013 -1
      vertex 26.0451 -1.65528 -1
      vertex 25.4369 -1.81144 -1
    endloop
  endfacet
  facet normal 0 0 -1
    outer loop
      vertex 29.5 3.1 -1
      vertex 24.814 -1.89013 -1
      vertex 18.85 -1.89013 -1
    endloop
  endfacet
  facet normal 0 0 -1
    outer loop
      vertex 26.962 44.8936 -1
      vertex 22.9395 46.4862 -1
      vertex 26.2508 45.4103 -1
    endloop
  endfacet
  facet normal 0 0 -1
    outer loop
      vertex 26.2508 45.4103 -1
      vertex 22.9395 46.4862 -1
      vertex 25.4805 45.8338 -1
    endloop
  endfacet
  facet normal 0 0 -1
    outer loop
      vertex 25.4805 45.8338 -1
      vertex 22.9395 46.4862 -1
      vertex 24.6631 46.1574 -1
    endloop
  endfacet
  facet normal 0 0 -1
    outer loop
      vertex 24.6631 46.1574 -1
      vertex 22.9395 46.4862 -1
      vertex 23.8117 46.376 -1
    endloop
  endfacet
  facet normal -0 0 -1
    outer loop
      vertex 22.9395 46.4862 -1
      vertex 18.85 -1.89013 -1
      vertex -22.9395 46.4862 -1
    endloop
  endfacet
  facet normal 0.684548 0.728967 -0
    outer loop
      vertex 27.6028 44.2918 -1
      vertex 26.962 44.8936 3.30178e-015
      vertex 27.6028 44.2918 3.38025e-015
    endloop
  endfacet
  facet normal 0.684548 0.728967 0
    outer loop
      vertex 26.962 44.8936 3.30178e-015
      vertex 27.6028 44.2918 -1
      vertex 26.962 44.8936 -1
    endloop
  endfacet
  facet normal 0 1 -0
    outer loop
      vertex 22.9395 46.4862 -1
      vertex -22.9395 46.4862 -2.80919e-015
      vertex 22.9395 46.4862 2.80919e-015
    endloop
  endfacet
  facet normal 0 1 0
    outer loop
      vertex -22.9395 46.4862 -2.80919e-015
      vertex 22.9395 46.4862 -1
      vertex -22.9395 46.4862 -1
    endloop
  endfacet
  facet normal -1 0 0
    outer loop
      vertex -29.5 3.1 -1
      vertex -29.5 39.5 -0.2
      vertex -29.5 39.5 -1
    endloop
  endfacet
  facet normal -1 -0 0
    outer loop
      vertex -29.5 39.5 -0.2
      vertex -29.5 3.1 -1
      vertex -29.5 3.1 -0.2
    endloop
  endfacet
  facet normal 0.982287 -0.187383 0
    outer loop
      vertex 29.3429 1.85655 3.59335e-015
      vertex 29.4606 2.47333 -1
      vertex 29.4606 2.47333 3.60776e-015
    endloop
  endfacet
  facet normal 0.982287 -0.187383 0
    outer loop
      vertex 29.4606 2.47333 -1
      vertex 29.3429 1.85655 3.59335e-015
      vertex 29.3429 1.85655 -1
    endloop
  endfacet
  facet normal 0.998027 -0.062791 0
    outer loop
      vertex 29.4606 2.47333 3.60776e-015
      vertex 29.5 3.1 -1
      vertex 29.5 3.1 3.61259e-015
    endloop
  endfacet
  facet normal 0.998027 -0.062791 0
    outer loop
      vertex 29.5 3.1 -1
      vertex 29.4606 2.47333 3.60776e-015
      vertex 29.4606 2.47333 -1
    endloop
  endfacet
  facet normal 0.982288 0.187379 0
    outer loop
      vertex 29.4448 40.3773 3.60583e-015
      vertex 29.2801 41.2408 -1
      vertex 29.2801 41.2408 3.58566e-015
    endloop
  endfacet
  facet normal 0.982288 0.187379 0
    outer loop
      vertex 29.2801 41.2408 -1
      vertex 29.4448 40.3773 3.60583e-015
      vertex 29.4448 40.3773 -1
    endloop
  endfacet
  facet normal 0.844326 0.53583 0
    outer loop
      vertex 28.6341 42.8723 3.50656e-015
      vertex 28.1631 43.6145 -1
      vertex 28.1631 43.6145 3.44887e-015
    endloop
  endfacet
  facet normal 0.844326 0.53583 0
    outer loop
      vertex 28.1631 43.6145 -1
      vertex 28.6341 42.8723 3.50656e-015
      vertex 28.6341 42.8723 -1
    endloop
  endfacet
  facet normal 0.481756 0.876305 -0
    outer loop
      vertex 26.2508 45.4103 -1
      vertex 25.4805 45.8338 3.12035e-015
      vertex 26.2508 45.4103 3.21469e-015
    endloop
  endfacet
  facet normal 0.481756 0.876305 0
    outer loop
      vertex 25.4805 45.8338 3.12035e-015
      vertex 26.2508 45.4103 -1
      vertex 25.4805 45.8338 -1
    endloop
  endfacet
  facet normal -0.951056 0.309017 0
    outer loop
      vertex -29.2801 41.2408 -1
      vertex -29.0084 42.0769 -3.55239e-015
      vertex -29.0084 42.0769 -1
    endloop
  endfacet
  facet normal -0.951056 0.309019 -1.81399e-006
    outer loop
      vertex -29.0084 42.0769 -3.55239e-015
      vertex -29.2801 41.2408 -1
      vertex -29.2801 41.2408 -3.58566e-015
    endloop
  endfacet
  facet normal -0.24869 -0.968583 0
    outer loop
      vertex -26.0451 -1.65528 -1
      vertex -25.4369 -1.81144 -0.2
      vertex -26.0451 -1.65528 -0.2
    endloop
  endfacet
  facet normal -0.24869 -0.968583 -0
    outer loop
      vertex -25.4369 -1.81144 -0.2
      vertex -26.0451 -1.65528 -1
      vertex -25.4369 -1.81144 -1
    endloop
  endfacet
  facet normal 0.684545 -0.72897 0
    outer loop
      vertex 27.6871 -0.752565 -1
      vertex 28.1448 -0.322735 3.44664e-015
      vertex 27.6871 -0.752565 3.39058e-015
    endloop
  endfacet
  facet normal 0.684545 -0.72897 0
    outer loop
      vertex 28.1448 -0.322735 3.44664e-015
      vertex 27.6871 -0.752565 -1
      vertex 28.1448 -0.322735 -1
    endloop
  endfacet
  facet normal 0.481753 -0.876307 0
    outer loop
      vertex 26.6289 -1.42414 -1
      vertex 27.1791 -1.12164 3.32837e-015
      vertex 26.6289 -1.42414 3.26099e-015
    endloop
  endfacet
  facet normal 0.481753 -0.876307 0
    outer loop
      vertex 27.1791 -1.12164 3.32837e-015
      vertex 26.6289 -1.42414 -1
      vertex 27.1791 -1.12164 -1
    endloop
  endfacet
  facet normal 0.368125 -0.929776 0
    outer loop
      vertex 26.0451 -1.65528 -1
      vertex 26.6289 -1.42414 3.26099e-015
      vertex 26.0451 -1.65528 3.1895e-015
    endloop
  endfacet
  facet normal 0.368125 -0.929776 0
    outer loop
      vertex 26.6289 -1.42414 3.26099e-015
      vertex 26.0451 -1.65528 -1
      vertex 26.6289 -1.42414 -1
    endloop
  endfacet
  facet normal 0.904827 -0.425779 0
    outer loop
      vertex 28.8815 0.691231 3.53685e-015
      vertex 29.1489 1.25938 -1
      vertex 29.1489 1.25938 3.56959e-015
    endloop
  endfacet
  facet normal 0.904827 -0.425779 0
    outer loop
      vertex 29.1489 1.25938 -1
      vertex 28.8815 0.691231 3.53685e-015
      vertex 28.8815 0.691231 -1
    endloop
  endfacet
  facet normal 0.770513 -0.637425 0
    outer loop
      vertex 28.1448 -0.322735 3.44664e-015
      vertex 28.5451 0.161074 -1
      vertex 28.5451 0.161074 3.49565e-015
    endloop
  endfacet
  facet normal 0.770513 -0.637425 0
    outer loop
      vertex 28.5451 0.161074 -1
      vertex 28.1448 -0.322735 3.44664e-015
      vertex 28.1448 -0.322735 -1
    endloop
  endfacet
  facet normal 0.951057 -0.309016 0
    outer loop
      vertex 29.1489 1.25938 3.56959e-015
      vertex 29.3429 1.85655 -1
      vertex 29.3429 1.85655 3.59335e-015
    endloop
  endfacet
  facet normal 0.951057 -0.309016 0
    outer loop
      vertex 29.3429 1.85655 -1
      vertex 29.1489 1.25938 3.56959e-015
      vertex 29.1489 1.25938 -1
    endloop
  endfacet
  facet normal 0.998027 0.0627924 0
    outer loop
      vertex 29.5 39.5 3.61259e-015
      vertex 29.4448 40.3773 -1
      vertex 29.4448 40.3773 3.60583e-015
    endloop
  endfacet
  facet normal 0.998027 0.0627924 0
    outer loop
      vertex 29.4448 40.3773 -1
      vertex 29.5 39.5 3.61259e-015
      vertex 29.5 39.5 -1
    endloop
  endfacet
  facet normal 0.770513 0.637424 0
    outer loop
      vertex 28.1631 43.6145 3.44887e-015
      vertex 27.6028 44.2918 -1
      vertex 27.6028 44.2918 3.38025e-015
    endloop
  endfacet
  facet normal 0.770513 0.637424 0
    outer loop
      vertex 27.6028 44.2918 -1
      vertex 28.1631 43.6145 3.44887e-015
      vertex 28.1631 43.6145 -1
    endloop
  endfacet
  facet normal 0.587783 0.809019 -0
    outer loop
      vertex 26.962 44.8936 -1
      vertex 26.2508 45.4103 3.21469e-015
      vertex 26.962 44.8936 3.30178e-015
    endloop
  endfacet
  facet normal 0.587783 0.809019 0
    outer loop
      vertex 26.2508 45.4103 3.21469e-015
      vertex 26.962 44.8936 -1
      vertex 26.2508 45.4103 -1
    endloop
  endfacet
  facet normal -0.481756 0.876305 0
    outer loop
      vertex -25.4805 45.8338 -1
      vertex -26.2508 45.4103 -3.21469e-015
      vertex -25.4805 45.8338 -3.12035e-015
    endloop
  endfacet
  facet normal -0.481756 0.876305 0
    outer loop
      vertex -26.2508 45.4103 -3.21469e-015
      vertex -25.4805 45.8338 -1
      vertex -26.2508 45.4103 -1
    endloop
  endfacet
  facet normal -0.684548 0.728967 0
    outer loop
      vertex -26.962 44.8936 -1
      vertex -27.6028 44.2918 -3.38025e-015
      vertex -26.962 44.8936 -3.30178e-015
    endloop
  endfacet
  facet normal -0.684548 0.728967 0
    outer loop
      vertex -27.6028 44.2918 -3.38025e-015
      vertex -26.962 44.8936 -1
      vertex -27.6028 44.2918 -1
    endloop
  endfacet
  facet normal -0.368123 0.929777 0
    outer loop
      vertex -24.6631 46.1574 -1
      vertex -25.4805 45.8338 -3.12035e-015
      vertex -24.6631 46.1574 -3.02026e-015
    endloop
  endfacet
  facet normal -0.368123 0.929777 0
    outer loop
      vertex -25.4805 45.8338 -3.12035e-015
      vertex -24.6631 46.1574 -1
      vertex -25.4805 45.8338 -1
    endloop
  endfacet
  facet normal -0.125333 0.992115 0
    outer loop
      vertex -22.9395 46.4862 -1
      vertex -23.8117 46.376 -2.91599e-015
      vertex -22.9395 46.4862 -2.80919e-015
    endloop
  endfacet
  facet normal -0.125333 0.992115 0
    outer loop
      vertex -23.8117 46.376 -2.91599e-015
      vertex -22.9395 46.4862 -1
      vertex -23.8117 46.376 -1
    endloop
  endfacet
  facet normal -0.770513 0.637424 0
    outer loop
      vertex -28.1631 43.6145 -1
      vertex -27.6028 44.2918 -3.38025e-015
      vertex -27.6028 44.2918 -1
    endloop
  endfacet
  facet normal -0.770513 0.637424 0
    outer loop
      vertex -27.6028 44.2918 -3.38025e-015
      vertex -28.1631 43.6145 -1
      vertex -28.1631 43.6145 -3.44887e-015
    endloop
  endfacet
  facet normal -0.844327 0.535828 0
    outer loop
      vertex -28.6341 42.8723 -1
      vertex -28.1631 43.6145 -3.44887e-015
      vertex -28.1631 43.6145 -1
    endloop
  endfacet
  facet normal -0.844326 0.53583 -1.61042e-006
    outer loop
      vertex -28.1631 43.6145 -3.44887e-015
      vertex -28.6341 42.8723 -1
      vertex -28.6341 42.8723 -3.50656e-015
    endloop
  endfacet
  facet normal -0.982287 0.187381 -1.87356e-006
    outer loop
      vertex -29.4448 40.3773 -1
      vertex -29.2801 41.2408 -3.58566e-015
      vertex -29.2801 41.2408 -1
    endloop
  endfacet
  facet normal -0.982288 0.187379 0
    outer loop
      vertex -29.2801 41.2408 -3.58566e-015
      vertex -29.4448 40.3773 -1
      vertex -29.4448 40.3773 -3.60583e-015
    endloop
  endfacet
  facet normal -0.998027 0.0627924 0
    outer loop
      vertex -29.5 39.5 -0.2
      vertex -29.4448 40.3773 -1
      vertex -29.5 39.5 -1
    endloop
  endfacet
  facet normal -0.998027 0.0627924 0
    outer loop
      vertex -29.4448 40.3773 -1
      vertex -29.5 39.5 -0.2
      vertex -29.4448 40.3773 -3.60583e-015
    endloop
  endfacet
  facet normal -0.998027 0.0627924 0
    outer loop
      vertex -29.4448 40.3773 -3.60583e-015
      vertex -29.5 39.5 -0.2
      vertex -29.5 39.5 -3.61259e-015
    endloop
  endfacet
  facet normal -0.481754 -0.876307 0
    outer loop
      vertex -27.1791 -1.12164 -1
      vertex -26.6289 -1.42414 -0.2
      vertex -27.1791 -1.12164 -0.2
    endloop
  endfacet
  facet normal -0.481754 -0.876307 -0
    outer loop
      vertex -26.6289 -1.42414 -0.2
      vertex -27.1791 -1.12164 -1
      vertex -26.6289 -1.42414 -1
    endloop
  endfacet
  facet normal -0.684547 -0.728969 0
    outer loop
      vertex -28.1448 -0.322735 -1
      vertex -27.6871 -0.752565 -0.2
      vertex -28.1448 -0.322735 -0.2
    endloop
  endfacet
  facet normal -0.684547 -0.728969 -0
    outer loop
      vertex -27.6871 -0.752565 -0.2
      vertex -28.1448 -0.322735 -1
      vertex -27.6871 -0.752565 -1
    endloop
  endfacet
  facet normal -0.125333 -0.992115 0
    outer loop
      vertex -25.4369 -1.81144 -1
      vertex -24.814 -1.89013 -0.2
      vertex -25.4369 -1.81144 -0.2
    endloop
  endfacet
  facet normal -0.125333 -0.992115 -0
    outer loop
      vertex -24.814 -1.89013 -0.2
      vertex -25.4369 -1.81144 -1
      vertex -24.814 -1.89013 -1
    endloop
  endfacet
  facet normal -0.951057 -0.309016 0
    outer loop
      vertex -29.1489 1.25938 -1
      vertex -29.3429 1.85655 -0.2
      vertex -29.3429 1.85655 -1
    endloop
  endfacet
  facet normal -0.951057 -0.309016 0
    outer loop
      vertex -29.3429 1.85655 -0.2
      vertex -29.1489 1.25938 -1
      vertex -29.1489 1.25938 -0.2
    endloop
  endfacet
  facet normal -0.904827 -0.425779 0
    outer loop
      vertex -28.8815 0.691231 -1
      vertex -29.1489 1.25938 -0.2
      vertex -29.1489 1.25938 -1
    endloop
  endfacet
  facet normal -0.904827 -0.425779 0
    outer loop
      vertex -29.1489 1.25938 -0.2
      vertex -28.8815 0.691231 -1
      vertex -28.8815 0.691231 -0.2
    endloop
  endfacet
  facet normal -0.770513 -0.637425 0
    outer loop
      vertex -28.1448 -0.322735 -1
      vertex -28.5451 0.161074 -0.2
      vertex -28.5451 0.161074 -1
    endloop
  endfacet
  facet normal -0.770513 -0.637425 0
    outer loop
      vertex -28.5451 0.161074 -0.2
      vertex -28.1448 -0.322735 -1
      vertex -28.1448 -0.322735 -0.2
    endloop
  endfacet
  facet normal 0.587787 -0.809016 0
    outer loop
      vertex 27.1791 -1.12164 -1
      vertex 27.6871 -0.752565 3.39058e-015
      vertex 27.1791 -1.12164 3.32837e-015
    endloop
  endfacet
  facet normal 0.587787 -0.809016 0
    outer loop
      vertex 27.6871 -0.752565 3.39058e-015
      vertex 27.1791 -1.12164 -1
      vertex 27.6871 -0.752565 -1
    endloop
  endfacet
  facet normal 0.248689 -0.968583 0
    outer loop
      vertex 25.4369 -1.81144 -1
      vertex 26.0451 -1.65528 3.1895e-015
      vertex 25.4369 -1.81144 3.11502e-015
    endloop
  endfacet
  facet normal 0.248689 -0.968583 0
    outer loop
      vertex 26.0451 -1.65528 3.1895e-015
      vertex 25.4369 -1.81144 -1
      vertex 26.0451 -1.65528 -1
    endloop
  endfacet
  facet normal 0.844329 -0.535825 0
    outer loop
      vertex 28.5451 0.161074 3.49565e-015
      vertex 28.8815 0.691231 -1
      vertex 28.8815 0.691231 3.53685e-015
    endloop
  endfacet
  facet normal 0.844329 -0.535825 0
    outer loop
      vertex 28.8815 0.691231 -1
      vertex 28.5451 0.161074 3.49565e-015
      vertex 28.5451 0.161074 -1
    endloop
  endfacet
  facet normal 0.951056 0.309019 0
    outer loop
      vertex 29.2801 41.2408 3.58566e-015
      vertex 29.0084 42.0769 -1
      vertex 29.0084 42.0769 3.55239e-015
    endloop
  endfacet
  facet normal 0.951056 0.309019 0
    outer loop
      vertex 29.0084 42.0769 -1
      vertex 29.2801 41.2408 3.58566e-015
      vertex 29.2801 41.2408 -1
    endloop
  endfacet
  facet normal 0.904828 0.425776 0
    outer loop
      vertex 29.0084 42.0769 3.55239e-015
      vertex 28.6341 42.8723 -1
      vertex 28.6341 42.8723 3.50656e-015
    endloop
  endfacet
  facet normal 0.904828 0.425776 0
    outer loop
      vertex 28.6341 42.8723 -1
      vertex 29.0084 42.0769 3.55239e-015
      vertex 29.0084 42.0769 -1
    endloop
  endfacet
  facet normal -0.587783 0.809019 0
    outer loop
      vertex -26.2508 45.4103 -1
      vertex -26.962 44.8936 -3.30178e-015
      vertex -26.2508 45.4103 -3.21469e-015
    endloop
  endfacet
  facet normal -0.587783 0.809019 0
    outer loop
      vertex -26.962 44.8936 -3.30178e-015
      vertex -26.2508 45.4103 -1
      vertex -26.962 44.8936 -1
    endloop
  endfacet
  facet normal -0.248691 0.968583 0
    outer loop
      vertex -23.8117 46.376 -1
      vertex -24.6631 46.1574 -3.02026e-015
      vertex -23.8117 46.376 -2.91599e-015
    endloop
  endfacet
  facet normal -0.248691 0.968583 0
    outer loop
      vertex -24.6631 46.1574 -3.02026e-015
      vertex -23.8117 46.376 -1
      vertex -24.6631 46.1574 -1
    endloop
  endfacet
  facet normal -0.904828 0.425778 -1.72582e-006
    outer loop
      vertex -29.0084 42.0769 -1
      vertex -28.6341 42.8723 -3.50656e-015
      vertex -28.6341 42.8723 -1
    endloop
  endfacet
  facet normal -0.904828 0.425776 0
    outer loop
      vertex -28.6341 42.8723 -3.50656e-015
      vertex -29.0084 42.0769 -1
      vertex -29.0084 42.0769 -3.55239e-015
    endloop
  endfacet
  facet normal -0.587786 -0.809017 0
    outer loop
      vertex -27.6871 -0.752565 -1
      vertex -27.1791 -1.12164 -0.2
      vertex -27.6871 -0.752565 -0.2
    endloop
  endfacet
  facet normal -0.587786 -0.809017 -0
    outer loop
      vertex -27.1791 -1.12164 -0.2
      vertex -27.6871 -0.752565 -1
      vertex -27.1791 -1.12164 -1
    endloop
  endfacet
  facet normal -0.844327 -0.535828 0
    outer loop
      vertex -28.5451 0.161074 -1
      vertex -28.8815 0.691231 -0.2
      vertex -28.8815 0.691231 -1
    endloop
  endfacet
  facet normal -0.844327 -0.535828 0
    outer loop
      vertex -28.8815 0.691231 -0.2
      vertex -28.5451 0.161074 -1
      vertex -28.5451 0.161074 -0.2
    endloop
  endfacet
  facet normal -0.982287 -0.187383 0
    outer loop
      vertex -29.3429 1.85655 -1
      vertex -29.4606 2.47333 -0.2
      vertex -29.4606 2.47333 -1
    endloop
  endfacet
  facet normal -0.982287 -0.187383 0
    outer loop
      vertex -29.4606 2.47333 -0.2
      vertex -29.3429 1.85655 -1
      vertex -29.3429 1.85655 -0.2
    endloop
  endfacet
  facet normal -0.998027 -0.062791 0
    outer loop
      vertex -29.4606 2.47333 -1
      vertex -29.5 3.1 -0.2
      vertex -29.5 3.1 -1
    endloop
  endfacet
  facet normal -0.998027 -0.062791 0
    outer loop
      vertex -29.5 3.1 -0.2
      vertex -29.4606 2.47333 -1
      vertex -29.4606 2.47333 -0.2
    endloop
  endfacet
  facet normal 0.368123 0.929777 -0
    outer loop
      vertex 25.4805 45.8338 -1
      vertex 24.6631 46.1574 3.02026e-015
      vertex 25.4805 45.8338 3.12035e-015
    endloop
  endfacet
  facet normal 0.368123 0.929777 0
    outer loop
      vertex 24.6631 46.1574 3.02026e-015
      vertex 25.4805 45.8338 -1
      vertex 24.6631 46.1574 -1
    endloop
  endfacet
  facet normal 0.248691 0.968583 -0
    outer loop
      vertex 24.6631 46.1574 -1
      vertex 23.8117 46.376 2.91599e-015
      vertex 24.6631 46.1574 3.02026e-015
    endloop
  endfacet
  facet normal 0.248691 0.968583 0
    outer loop
      vertex 23.8117 46.376 2.91599e-015
      vertex 24.6631 46.1574 -1
      vertex 23.8117 46.376 -1
    endloop
  endfacet
  facet normal 0.125333 0.992115 -0
    outer loop
      vertex 23.8117 46.376 -1
      vertex 22.9395 46.4862 2.80919e-015
      vertex 23.8117 46.376 2.91599e-015
    endloop
  endfacet
  facet normal 0.125333 0.992115 0
    outer loop
      vertex 22.9395 46.4862 2.80919e-015
      vertex 23.8117 46.376 -1
      vertex 22.9395 46.4862 -1
    endloop
  endfacet
  facet normal -0.368124 -0.929777 0
    outer loop
      vertex -26.6289 -1.42414 -1
      vertex -26.0451 -1.65528 -0.2
      vertex -26.6289 -1.42414 -0.2
    endloop
  endfacet
  facet normal -0.368124 -0.929777 -0
    outer loop
      vertex -26.0451 -1.65528 -0.2
      vertex -26.6289 -1.42414 -1
      vertex -26.0451 -1.65528 -1
    endloop
  endfacet
  facet normal -1 0 0
    outer loop
      vertex -24.9 1 -0.2
      vertex -24.9 39.5 -3.04927e-015
      vertex -24.9 39.5 -0.2
    endloop
  endfacet
  facet normal -1 -0 0
    outer loop
      vertex -24.9 39.5 -3.04927e-015
      vertex -24.9 1 -0.2
      vertex -24.9 1 -3.04927e-015
    endloop
  endfacet
  facet normal -0 0 1
    outer loop
      vertex -29.5 3.1 -0.2
      vertex -24.9 1 -0.2
      vertex -24.9 39.5 -0.2
    endloop
  endfacet
  facet normal -0 -0 1
    outer loop
      vertex -29.4606 2.47333 -0.2
      vertex -24.9 1 -0.2
      vertex -29.5 3.1 -0.2
    endloop
  endfacet
  facet normal 0 0 1
    outer loop
      vertex -24.9 1 -0.2
      vertex -26.0451 -1.65528 -0.2
      vertex -25.4369 -1.81144 -0.2
    endloop
  endfacet
  facet normal 0 0 1
    outer loop
      vertex -24.9 1 -0.2
      vertex -26.6289 -1.42414 -0.2
      vertex -26.0451 -1.65528 -0.2
    endloop
  endfacet
  facet normal 0 0 1
    outer loop
      vertex -24.9 1 -0.2
      vertex -27.1791 -1.12164 -0.2
      vertex -26.6289 -1.42414 -0.2
    endloop
  endfacet
  facet normal 0 0 1
    outer loop
      vertex -24.9 1 -0.2
      vertex -27.6871 -0.752565 -0.2
      vertex -27.1791 -1.12164 -0.2
    endloop
  endfacet
  facet normal 0 0 1
    outer loop
      vertex -24.9 1 -0.2
      vertex -28.1448 -0.322735 -0.2
      vertex -27.6871 -0.752565 -0.2
    endloop
  endfacet
  facet normal 0 0 1
    outer loop
      vertex -24.9 1 -0.2
      vertex -28.5451 0.161074 -0.2
      vertex -28.1448 -0.322735 -0.2
    endloop
  endfacet
  facet normal 0 0 1
    outer loop
      vertex -24.9 1 -0.2
      vertex -28.8815 0.691231 -0.2
      vertex -28.5451 0.161074 -0.2
    endloop
  endfacet
  facet normal 0 0 1
    outer loop
      vertex -24.9 1 -0.2
      vertex -29.1489 1.25938 -0.2
      vertex -28.8815 0.691231 -0.2
    endloop
  endfacet
  facet normal 0 0 1
    outer loop
      vertex -24.9 1 -0.2
      vertex -29.3429 1.85655 -0.2
      vertex -29.1489 1.25938 -0.2
    endloop
  endfacet
  facet normal 0 0 1
    outer loop
      vertex -29.5 3.1 -0.2
      vertex -24.9 39.5 -0.2
      vertex -29.5 39.5 -0.2
    endloop
  endfacet
  facet normal 0 0 1
    outer loop
      vertex -24.9 1 -0.2
      vertex -29.4606 2.47333 -0.2
      vertex -29.3429 1.85655 -0.2
    endloop
  endfacet
  facet normal -0 0 1
    outer loop
      vertex -24.9 1 -0.2
      vertex -23.45 -1.3 -0.2
      vertex -23.45 1 -0.2
    endloop
  endfacet
  facet normal 0 0 1
    outer loop
      vertex -23.45 -1.3 -0.2
      vertex -24.814 -1.89013 -0.2
      vertex -23.45 -1.89013 -0.2
    endloop
  endfacet
  facet normal 0 0 1
    outer loop
      vertex -23.45 -1.3 -0.2
      vertex -24.9 1 -0.2
      vertex -24.814 -1.89013 -0.2
    endloop
  endfacet
  facet normal 0 0 1
    outer loop
      vertex -24.814 -1.89013 -0.2
      vertex -24.9 1 -0.2
      vertex -25.4369 -1.81144 -0.2
    endloop
  endfacet
  facet normal 0 -1 0
    outer loop
      vertex -29.5 39.5 -0.2
      vertex -24.9 39.5 -3.04927e-015
      vertex -29.5 39.5 -3.61259e-015
    endloop
  endfacet
  facet normal 0 -1 -0
    outer loop
      vertex -24.9 39.5 -3.04927e-015
      vertex -29.5 39.5 -0.2
      vertex -24.9 39.5 -0.2
    endloop
  endfacet
  facet normal -1 0 0
    outer loop
      vertex -23.45 -1.89013 -1
      vertex -23.45 -4.4 -1
      vertex -23.45 -1.89013 -0.2
    endloop
  endfacet
  facet normal -1 0 -9.53675e-006
    outer loop
      vertex -23.45 -1.89013 -0.2
      vertex -23.45 -1.3 -2.8717e-015
      vertex -23.45 -1.3 -0.2
    endloop
  endfacet
  facet normal -1 -3.23206e-006 0
    outer loop
      vertex -23.45 -1.3 -2.8717e-015
      vertex -23.45 -1.89013 -0.2
      vertex -23.45 -1.3 4.5
    endloop
  endfacet
  facet normal -1 1.10537e-007 -3.46791e-007
    outer loop
      vertex -23.45 -4.4 4.5
      vertex -23.45 -1.89013 -0.2
      vertex -23.45 -4.4 -1
    endloop
  endfacet
  facet normal -1 0 -4.05819e-007
    outer loop
      vertex -23.45 -1.89013 -0.2
      vertex -23.45 -4.4 4.5
      vertex -23.45 -1.3 4.5
    endloop
  endfacet
  facet normal -1 0 -9.53675e-006
    outer loop
      vertex -23.45 -1.3 -0.2
      vertex -23.45 1 -2.8717e-015
      vertex -23.45 1 -0.2
    endloop
  endfacet
  facet normal -1 -0 -9.53675e-006
    outer loop
      vertex -23.45 1 -2.8717e-015
      vertex -23.45 -1.3 -0.2
      vertex -23.45 -1.3 -2.8717e-015
    endloop
  endfacet
  facet normal 0 -1 0
    outer loop
      vertex -24.9 1 -0.2
      vertex -23.45 1 -2.8717e-015
      vertex -24.9 1 -3.04927e-015
    endloop
  endfacet
  facet normal 0 -1 -0
    outer loop
      vertex -23.45 1 -2.8717e-015
      vertex -24.9 1 -0.2
      vertex -23.45 1 -0.2
    endloop
  endfacet
  facet normal 1 0 0
    outer loop
      vertex 18.85 -1.3 4.5
      vertex 18.85 -1.89013 2.30838e-015
      vertex 18.85 -1.3 2.30838e-015
    endloop
  endfacet
  facet normal 1 -0 0
    outer loop
      vertex 18.85 -4.4 4.5
      vertex 18.85 -1.89013 2.30838e-015
      vertex 18.85 -1.3 4.5
    endloop
  endfacet
  facet normal 1 0 0
    outer loop
      vertex 18.85 -4.4 -1
      vertex 18.85 -1.89013 2.30838e-015
      vertex 18.85 -4.4 4.5
    endloop
  endfacet
  facet normal 1 0 0
    outer loop
      vertex 18.85 -1.89013 2.30838e-015
      vertex 18.85 -4.4 -1
      vertex 18.85 -1.89013 -1
    endloop
  endfacet
  facet normal -0 0 1
    outer loop
      vertex 11.05 -1.3 4.5
      vertex 18.85 -4.4 4.5
      vertex 18.85 -1.3 4.5
    endloop
  endfacet
  facet normal -0 0 1
    outer loop
      vertex 6.05 -1.3 4.5
      vertex 18.85 -4.4 4.5
      vertex 11.05 -1.3 4.5
    endloop
  endfacet
  facet normal -0 0 1
    outer loop
      vertex -10.45 -1.3 4.5
      vertex 18.85 -4.4 4.5
      vertex 6.05 -1.3 4.5
    endloop
  endfacet
  facet normal 0 0 1
    outer loop
      vertex -23.45 -4.4 4.5
      vertex -10.45 -1.3 4.5
      vertex -15.45 -1.3 4.5
    endloop
  endfacet
  facet normal 0 0 1
    outer loop
      vertex -23.45 -4.4 4.5
      vertex -15.45 -1.3 4.5
      vertex -23.45 -1.3 4.5
    endloop
  endfacet
  facet normal 0 0 1
    outer loop
      vertex -10.45 -1.3 4.5
      vertex -23.45 -4.4 4.5
      vertex 18.85 -4.4 4.5
    endloop
  endfacet
  facet normal 0 -1 0
    outer loop
      vertex -23.45 -4.4 -1
      vertex 18.85 -4.4 4.5
      vertex -23.45 -4.4 4.5
    endloop
  endfacet
  facet normal 0 -1 -0
    outer loop
      vertex 18.85 -4.4 4.5
      vertex -23.45 -4.4 -1
      vertex 18.85 -4.4 -1
    endloop
  endfacet
  facet normal 0 1 -0
    outer loop
      vertex 6.05 -1.3 7.40887e-016
      vertex -10.45 -1.3 4.5
      vertex 6.05 -1.3 4.5
    endloop
  endfacet
  facet normal 0 1 0
    outer loop
      vertex -10.45 -1.3 4.5
      vertex 6.05 -1.3 7.40887e-016
      vertex -10.45 -1.3 -1.27971e-015
    endloop
  endfacet
  facet normal 0 1 -0
    outer loop
      vertex -15.45 -1.3 -1.89202e-015
      vertex -23.45 -1.3 4.5
      vertex -15.45 -1.3 4.5
    endloop
  endfacet
  facet normal 0 1 0
    outer loop
      vertex -23.45 -1.3 4.5
      vertex -15.45 -1.3 -1.89202e-015
      vertex -23.45 -1.3 -2.8717e-015
    endloop
  endfacet
  facet normal 0 -1 0
    outer loop
      vertex -15.45 -1.3 4.5
      vertex -10.45 -1.3 10.5
      vertex -15.45 -1.3 10.5
    endloop
  endfacet
  facet normal 0 -1 -0
    outer loop
      vertex -10.45 -1.3 10.5
      vertex -15.45 -1.3 4.5
      vertex -10.45 -1.3 4.5
    endloop
  endfacet
  facet normal 0 1 -0
    outer loop
      vertex 18.85 -1.3 2.30838e-015
      vertex 11.05 -1.3 4.5
      vertex 18.85 -1.3 4.5
    endloop
  endfacet
  facet normal 0 1 0
    outer loop
      vertex 11.05 -1.3 4.5
      vertex 18.85 -1.3 2.30838e-015
      vertex 11.05 -1.3 1.35319e-015
    endloop
  endfacet
  facet normal 0 -1 0
    outer loop
      vertex 6.05 -1.3 4.5
      vertex 11.05 -1.3 10.5
      vertex 6.05 -1.3 10.5
    endloop
  endfacet
  facet normal 0 -1 -0
    outer loop
      vertex 11.05 -1.3 10.5
      vertex 6.05 -1.3 4.5
      vertex 11.05 -1.3 4.5
    endloop
  endfacet
  facet normal 1 0 0
    outer loop
      vertex 11.05 -1.3 4.5
      vertex 11.05 1.7 10.5
      vertex 11.05 -1.3 10.5
    endloop
  endfacet
  facet normal 1 0 0
    outer loop
      vertex 11.05 1.7 10.5
      vertex 11.05 -1.3 4.5
      vertex 11.05 1.7 1.35319e-015
    endloop
  endfacet
  facet normal 1 0 0
    outer loop
      vertex 11.05 1.7 1.35319e-015
      vertex 11.05 -1.3 4.5
      vertex 11.05 -1.3 1.35319e-015
    endloop
  endfacet
  facet normal -1 0 0
    outer loop
      vertex 6.05 -1.3 4.5
      vertex 6.05 1.7 7.40887e-016
      vertex 6.05 -1.3 7.40887e-016
    endloop
  endfacet
  facet normal -1 0 0
    outer loop
      vertex 6.05 1.7 7.40887e-016
      vertex 6.05 -1.3 4.5
      vertex 6.05 1.7 10.5
    endloop
  endfacet
  facet normal -1 -0 0
    outer loop
      vertex 6.05 1.7 10.5
      vertex 6.05 -1.3 4.5
      vertex 6.05 -1.3 10.5
    endloop
  endfacet
  facet normal 0 1 -0
    outer loop
      vertex 11.05 1.7 1.35319e-015
      vertex 6.05 1.7 10.5
      vertex 11.05 1.7 10.5
    endloop
  endfacet
  facet normal 0 1 0
    outer loop
      vertex 6.05 1.7 10.5
      vertex 11.05 1.7 1.35319e-015
      vertex 6.05 1.7 7.40887e-016
    endloop
  endfacet
  facet normal -0 0 1
    outer loop
      vertex 6.05 1.7 10.5
      vertex 11.05 -1.3 10.5
      vertex 11.05 1.7 10.5
    endloop
  endfacet
  facet normal 0 0 1
    outer loop
      vertex 11.05 -1.3 10.5
      vertex 6.05 1.7 10.5
      vertex 6.05 -1.3 10.5
    endloop
  endfacet
  facet normal 1 0 0
    outer loop
      vertex -10.45 -1.3 4.5
      vertex -10.45 1.7 10.5
      vertex -10.45 -1.3 10.5
    endloop
  endfacet
  facet normal 1 0 0
    outer loop
      vertex -10.45 1.7 10.5
      vertex -10.45 -1.3 4.5
      vertex -10.45 1.7 -1.27971e-015
    endloop
  endfacet
  facet normal 1 0 0
    outer loop
      vertex -10.45 1.7 -1.27971e-015
      vertex -10.45 -1.3 4.5
      vertex -10.45 -1.3 -1.27971e-015
    endloop
  endfacet
  facet normal -1 0 0
    outer loop
      vertex -15.45 -1.3 4.5
      vertex -15.45 1.7 -1.89202e-015
      vertex -15.45 -1.3 -1.89202e-015
    endloop
  endfacet
  facet normal -1 0 0
    outer loop
      vertex -15.45 1.7 -1.89202e-015
      vertex -15.45 -1.3 4.5
      vertex -15.45 1.7 10.5
    endloop
  endfacet
  facet normal -1 -0 0
    outer loop
      vertex -15.45 1.7 10.5
      vertex -15.45 -1.3 4.5
      vertex -15.45 -1.3 10.5
    endloop
  endfacet
  facet normal 0 1 -0
    outer loop
      vertex -10.45 1.7 -1.27971e-015
      vertex -15.45 1.7 10.5
      vertex -10.45 1.7 10.5
    endloop
  endfacet
  facet normal 0 1 0
    outer loop
      vertex -15.45 1.7 10.5
      vertex -10.45 1.7 -1.27971e-015
      vertex -15.45 1.7 -1.89202e-015
    endloop
  endfacet
  facet normal -0 0 1
    outer loop
      vertex -15.45 1.7 10.5
      vertex -10.45 -1.3 10.5
      vertex -10.45 1.7 10.5
    endloop
  endfacet
  facet normal 0 0 1
    outer loop
      vertex -10.45 -1.3 10.5
      vertex -15.45 1.7 10.5
      vertex -15.45 -1.3 10.5
    endloop
  endfacet
  facet normal 1 0 0
    outer loop
      vertex 20.4 38.5 7
      vertex 20.4 35 7
      vertex 20.4 38.5 5
    endloop
  endfacet
  facet normal 1 -0 0
    outer loop
      vertex 20.4 38.5 5
      vertex 20.4 44.7 2.4982e-015
      vertex 20.4 44.7 5
    endloop
  endfacet
  facet normal 1 0 0
    outer loop
      vertex 20.4 35 2.4982e-015
      vertex 20.4 38.5 5
      vertex 20.4 35 7
    endloop
  endfacet
  facet normal 1 0 0
    outer loop
      vertex 20.4 38.5 5
      vertex 20.4 35 2.4982e-015
      vertex 20.4 44.7 2.4982e-015
    endloop
  endfacet
  facet normal -1 0 0
    outer loop
      vertex 15.4 42.7 2
      vertex 15.4 44.7 5
      vertex 15.4 44.7 2
    endloop
  endfacet
  facet normal -1 0 0
    outer loop
      vertex 15.4 42.7 2
      vertex 15.4 38.5 5
      vertex 15.4 44.7 5
    endloop
  endfacet
  facet normal -1 0 0
    outer loop
      vertex 15.4 41.7 1.88589e-015
      vertex 15.4 38.5 5
      vertex 15.4 42.7 2
    endloop
  endfacet
  facet normal -1 0 0
    outer loop
      vertex 15.4 35 1.88589e-015
      vertex 15.4 38.5 5
      vertex 15.4 41.7 1.88589e-015
    endloop
  endfacet
  facet normal -1 0 0
    outer loop
      vertex 15.4 35 7
      vertex 15.4 38.5 5
      vertex 15.4 35 1.88589e-015
    endloop
  endfacet
  facet normal -1 0 0
    outer loop
      vertex 15.4 38.5 5
      vertex 15.4 35 7
      vertex 15.4 38.5 7
    endloop
  endfacet
  facet normal -1 0 0
    outer loop
      vertex 15.4 44.7 1.88589e-015
      vertex 15.4 43.75 1.88589e-015
      vertex 15.4 44.7 1.9
    endloop
  endfacet
  facet normal -0 0 1
    outer loop
      vertex 15.4 38.5 7
      vertex 20.4 35 7
      vertex 20.4 38.5 7
    endloop
  endfacet
  facet normal 0 0 1
    outer loop
      vertex 20.4 35 7
      vertex 15.4 38.5 7
      vertex 15.4 35 7
    endloop
  endfacet
  facet normal 0 -1 0
    outer loop
      vertex 15.4 35 7
      vertex 20.4 35 2.4982e-015
      vertex 20.4 35 7
    endloop
  endfacet
  facet normal -0 -1 0
    outer loop
      vertex 20.4 35 2.4982e-015
      vertex 15.4 35 7
      vertex 15.4 35 1.88589e-015
    endloop
  endfacet
  facet normal 0 1 -0
    outer loop
      vertex 20.4 38.5 5
      vertex 15.4 38.5 7
      vertex 20.4 38.5 7
    endloop
  endfacet
  facet normal 0 1 0
    outer loop
      vertex 15.4 38.5 7
      vertex 20.4 38.5 5
      vertex 15.4 38.5 5
    endloop
  endfacet
  facet normal -0 0 1
    outer loop
      vertex 15.4 44.7 5
      vertex 20.4 38.5 5
      vertex 20.4 44.7 5
    endloop
  endfacet
  facet normal 0 0 1
    outer loop
      vertex 20.4 38.5 5
      vertex 15.4 44.7 5
      vertex 15.4 38.5 5
    endloop
  endfacet
  facet normal 0 1 0
    outer loop
      vertex 20.4 44.7 5
      vertex 15.4 44.7 2
      vertex 15.4 44.7 5
    endloop
  endfacet
  facet normal 0 1 0
    outer loop
      vertex 15.4 44.7 2
      vertex 15.4 44.7 1.9
      vertex -18.3 44.7 2
    endloop
  endfacet
  facet normal 0 1 -0
    outer loop
      vertex 20.4 44.7 2.4982e-015
      vertex 15.4 44.7 2
      vertex 20.4 44.7 5
    endloop
  endfacet
  facet normal 0 1 0
    outer loop
      vertex 15.4 44.7 2
      vertex 20.4 44.7 2.4982e-015
      vertex 15.4 44.7 1.9
    endloop
  endfacet
  facet normal 0 1 0
    outer loop
      vertex 15.4 44.7 1.9
      vertex 20.4 44.7 2.4982e-015
      vertex 15.4 44.7 1.88589e-015
    endloop
  endfacet
  facet normal 0 1 -0
    outer loop
      vertex -18.3 44.7 2
      vertex -23.3 44.7 5
      vertex -18.3 44.7 5
    endloop
  endfacet
  facet normal 0 1 0
    outer loop
      vertex -18.3 44.7 1.9
      vertex -18.3 44.7 2
      vertex 15.4 44.7 1.9
    endloop
  endfacet
  facet normal 0 1 0
    outer loop
      vertex -23.3 44.7 -2.85333e-015
      vertex -18.3 44.7 2
      vertex -18.3 44.7 1.9
    endloop
  endfacet
  facet normal 0 1 0
    outer loop
      vertex -23.3 44.7 -2.85333e-015
      vertex -18.3 44.7 1.9
      vertex -18.3 44.7 -2.24103e-015
    endloop
  endfacet
  facet normal 0 1 0
    outer loop
      vertex -18.3 44.7 2
      vertex -23.3 44.7 -2.85333e-015
      vertex -23.3 44.7 5
    endloop
  endfacet
  facet normal -0 0 1
    outer loop
      vertex -18.3 44.7 2
      vertex 15.4 42.7 2
      vertex 15.4 44.7 2
    endloop
  endfacet
  facet normal 0 0 1
    outer loop
      vertex 15.4 42.7 2
      vertex -18.3 44.7 2
      vertex -18.3 42.7 2
    endloop
  endfacet
  facet normal 0 -0.894427 0.447214
    outer loop
      vertex -18.3 42.7 2
      vertex 15.4 41.7 1.88589e-015
      vertex 15.4 42.7 2
    endloop
  endfacet
  facet normal -5.47661e-017 -0.894427 0.447214
    outer loop
      vertex 15.4 41.7 1.88589e-015
      vertex -18.3 42.7 2
      vertex -18.3 41.7 -2.24103e-015
    endloop
  endfacet
  facet normal 0 0.894427 -0.447214
    outer loop
      vertex 15.4 43.75 1.88589e-015
      vertex -18.3 44.7 1.9
      vertex 15.4 44.7 1.9
    endloop
  endfacet
  facet normal 5.58308e-017 0.894427 -0.447214
    outer loop
      vertex -18.3 44.7 1.9
      vertex 15.4 43.75 1.88589e-015
      vertex -18.3 43.75 -2.24103e-015
    endloop
  endfacet
  facet normal 1 0 0
    outer loop
      vertex -18.3 44.7 5
      vertex -18.3 42.7 2
      vertex -18.3 44.7 2
    endloop
  endfacet
  facet normal 1 -0 0
    outer loop
      vertex -18.3 39.7 5
      vertex -18.3 42.7 2
      vertex -18.3 44.7 5
    endloop
  endfacet
  facet normal 1 0 0
    outer loop
      vertex -18.3 39.7 -2.24103e-015
      vertex -18.3 42.7 2
      vertex -18.3 39.7 5
    endloop
  endfacet
  facet normal 1 0 0
    outer loop
      vertex -18.3 42.7 2
      vertex -18.3 39.7 -2.24103e-015
      vertex -18.3 41.7 -2.24103e-015
    endloop
  endfacet
  facet normal 1 0 0
    outer loop
      vertex -18.3 44.7 1.9
      vertex -18.3 43.75 -2.24103e-015
      vertex -18.3 44.7 -2.24103e-015
    endloop
  endfacet
  facet normal -1 0 0
    outer loop
      vertex -23.3 39.7 -2.85333e-015
      vertex -23.3 44.7 5
      vertex -23.3 44.7 -2.85333e-015
    endloop
  endfacet
  facet normal -1 -0 0
    outer loop
      vertex -23.3 44.7 5
      vertex -23.3 39.7 -2.85333e-015
      vertex -23.3 39.7 5
    endloop
  endfacet
  facet normal -0 0 1
    outer loop
      vertex -23.3 44.7 5
      vertex -18.3 39.7 5
      vertex -18.3 44.7 5
    endloop
  endfacet
  facet normal 0 0 1
    outer loop
      vertex -18.3 39.7 5
      vertex -23.3 44.7 5
      vertex -23.3 39.7 5
    endloop
  endfacet
  facet normal 0 -1 0
    outer loop
      vertex -23.3 39.7 5
      vertex -18.3 39.7 -2.24103e-015
      vertex -18.3 39.7 5
    endloop
  endfacet
  facet normal -0 -1 0
    outer loop
      vertex -18.3 39.7 -2.24103e-015
      vertex -23.3 39.7 5
      vertex -23.3 39.7 -2.85333e-015
    endloop
  endfacet
endsolid OpenSCAD_Model
