solid OpenSCAD_Model
  facet normal -0 0 1
    outer loop
      vertex -1.6 30 8
      vertex -1.77636e-015 19.6 8
      vertex -1.77636e-015 30 8
    endloop
  endfacet
  facet normal 0 0 1
    outer loop
      vertex -1.77636e-015 19.6 8
      vertex -1.6 30 8
      vertex -1.77636e-015 18 8
    endloop
  endfacet
  facet normal 0 0 1
    outer loop
      vertex -1.77636e-015 18 8
      vertex -1.6 30 8
      vertex -1.77636e-015 -18 8
    endloop
  endfacet
  facet normal 0 0 1
    outer loop
      vertex -1.6 -30 8
      vertex -1.77636e-015 -18 8
      vertex -1.6 30 8
    endloop
  endfacet
  facet normal 0 0 1
    outer loop
      vertex -1.77636e-015 -18 8
      vertex -1.6 -30 8
      vertex -1.77636e-015 -19.6 8
    endloop
  endfacet
  facet normal 0 0 1
    outer loop
      vertex -1.77636e-015 -19.6 8
      vertex -1.6 -30 8
      vertex -1.77636e-015 -30 8
    endloop
  endfacet
  facet normal 0 0 1
    outer loop
      vertex 3.5 18 8
      vertex 4.3 19.5608 8
      vertex 4.3 19.6 8
    endloop
  endfacet
  facet normal 0 0 1
    outer loop
      vertex 4.3 19.5608 8
      vertex 3.5 18 8
      vertex 4.05279 15.5392 8
    endloop
  endfacet
  facet normal -0 0 1
    outer loop
      vertex 3.5 16.3 8
      vertex 4.05279 15.5392 8
      vertex 3.5 18 8
    endloop
  endfacet
  facet normal -0 0 1
    outer loop
      vertex -1.77636e-015 19.6 8
      vertex 3.5 18 8
      vertex 4.3 19.6 8
    endloop
  endfacet
  facet normal 0 0 1
    outer loop
      vertex 3.5 18 8
      vertex -1.77636e-015 19.6 8
      vertex -1.77636e-015 18 8
    endloop
  endfacet
  facet normal 0 0 1
    outer loop
      vertex 4.3 19.5608 8
      vertex 5.1 18.8 8
      vertex 4.94721 19.2702 8
    endloop
  endfacet
  facet normal 0 0 1
    outer loop
      vertex 4.05279 15.5392 8
      vertex 5.1 18.8 8
      vertex 4.3 19.5608 8
    endloop
  endfacet
  facet normal -0 0 1
    outer loop
      vertex 4.3 19.5608 8
      vertex 4.94721 19.2702 8
      vertex 4.54721 19.5608 8
    endloop
  endfacet
  facet normal 0 0 1
    outer loop
      vertex 5.1 18.8 8
      vertex 4.05279 15.5392 8
      vertex 5.1 16.3 8
    endloop
  endfacet
  facet normal 0 0 1
    outer loop
      vertex 5.1 16.3 8
      vertex 4.05279 15.5392 8
      vertex 4.94721 15.8298 8
    endloop
  endfacet
  facet normal 0 0 1
    outer loop
      vertex 4.94721 15.8298 8
      vertex 4.05279 15.5392 8
      vertex 4.54721 15.5392 8
    endloop
  endfacet
  facet normal 0 0 1
    outer loop
      vertex 4.05279 15.5392 8
      vertex 3.5 16.3 8
      vertex 3.65279 15.8298 8
    endloop
  endfacet
  facet normal 0 0 1
    outer loop
      vertex 3.5 -16.3 8
      vertex 5.1 -16.3 8
      vertex 4.94721 -15.8298 8
    endloop
  endfacet
  facet normal 0 0 1
    outer loop
      vertex 5.1 -16.3 8
      vertex 3.5 -18 8
      vertex 5.1 -18.8 8
    endloop
  endfacet
  facet normal 0 0 1
    outer loop
      vertex 3.5 -16.3 8
      vertex 4.94721 -15.8298 8
      vertex 4.54721 -15.5392 8
    endloop
  endfacet
  facet normal 0 -0 1
    outer loop
      vertex 4.3 -19.5608 8
      vertex 5.1 -18.8 8
      vertex 3.5 -18 8
    endloop
  endfacet
  facet normal 0 0 1
    outer loop
      vertex 5.1 -18.8 8
      vertex 4.3 -19.5608 8
      vertex 4.94721 -19.2702 8
    endloop
  endfacet
  facet normal 0 0 1
    outer loop
      vertex 3.5 -16.3 8
      vertex 4.54721 -15.5392 8
      vertex 4.05279 -15.5392 8
    endloop
  endfacet
  facet normal 0 0 1
    outer loop
      vertex 4.94721 -19.2702 8
      vertex 4.3 -19.5608 8
      vertex 4.54721 -19.5608 8
    endloop
  endfacet
  facet normal 0 0 1
    outer loop
      vertex 3.5 -16.3 8
      vertex 4.05279 -15.5392 8
      vertex 3.65279 -15.8298 8
    endloop
  endfacet
  facet normal 0 0 1
    outer loop
      vertex 5.1 -16.3 8
      vertex 3.5 -16.3 8
      vertex 3.5 -18 8
    endloop
  endfacet
  facet normal 0 0 1
    outer loop
      vertex 4.3 -19.5608 8
      vertex 3.5 -18 8
      vertex 4.3 -19.6 8
    endloop
  endfacet
  facet normal 0 0 1
    outer loop
      vertex -1.77636e-015 -19.6 8
      vertex 3.5 -18 8
      vertex -1.77636e-015 -18 8
    endloop
  endfacet
  facet normal 0 0 1
    outer loop
      vertex 3.5 -18 8
      vertex -1.77636e-015 -19.6 8
      vertex 4.3 -19.6 8
    endloop
  endfacet
  facet normal 1 0 2.22045e-016
    outer loop
      vertex -1.77636e-015 -19.6 8
      vertex -6.01531e-016 -22.511 2.70906
      vertex 1.77636e-015 -19.6 -8
    endloop
  endfacet
  facet normal 1 0 2.22045e-016
    outer loop
      vertex -1.77636e-015 -19.6 8
      vertex -6.92342e-016 -22.5979 3.11803
      vertex -6.01531e-016 -22.511 2.70906
    endloop
  endfacet
  facet normal 1 0 2.22045e-016
    outer loop
      vertex -1.77636e-015 -19.6 8
      vertex -7.77156e-016 -22.7679 3.5
      vertex -6.92342e-016 -22.5979 3.11803
    endloop
  endfacet
  facet normal 1 0 2.22045e-016
    outer loop
      vertex -1.77636e-015 -19.6 8
      vertex -8.52265e-016 -23.0137 3.83826
      vertex -7.77156e-016 -22.7679 3.5
    endloop
  endfacet
  facet normal 1 0 2.22045e-016
    outer loop
      vertex -1.77636e-015 -19.6 8
      vertex -9.14387e-016 -23.3244 4.11803
      vertex -8.52265e-016 -23.0137 3.83826
    endloop
  endfacet
  facet normal 1 0 2.22045e-016
    outer loop
      vertex -1.77636e-015 -19.6 8
      vertex -9.60807e-016 -23.6865 4.32709
      vertex -9.14387e-016 -23.3244 4.11803
    endloop
  endfacet
  facet normal 1 0 2.22045e-016
    outer loop
      vertex -1.77636e-015 -19.6 8
      vertex -9.89496e-016 -24.0842 4.4563
      vertex -9.60807e-016 -23.6865 4.32709
    endloop
  endfacet
  facet normal 1 0 2.22045e-016
    outer loop
      vertex -1.77636e-015 -19.6 8
      vertex -9.99201e-016 -24.5 4.5
      vertex -9.89496e-016 -24.0842 4.4563
    endloop
  endfacet
  facet normal 1 -0 2.22045e-016
    outer loop
      vertex -1.77636e-015 -30 8
      vertex -9.99201e-016 -24.5 4.5
      vertex -1.77636e-015 -19.6 8
    endloop
  endfacet
  facet normal 1 0 2.22045e-016
    outer loop
      vertex -9.99201e-016 -24.5 4.5
      vertex -1.77636e-015 -30 8
      vertex -9.89496e-016 -24.9158 4.4563
    endloop
  endfacet
  facet normal 1 0 2.22045e-016
    outer loop
      vertex -9.89496e-016 -24.9158 4.4563
      vertex -1.77636e-015 -30 8
      vertex -9.60807e-016 -25.3135 4.32709
    endloop
  endfacet
  facet normal 1 0 2.22045e-016
    outer loop
      vertex -6.01531e-016 -26.489 2.70906
      vertex -1.77636e-015 -30 8
      vertex 6.01531e-016 -26.489 -2.70906
    endloop
  endfacet
  facet normal 1 0 2.22045e-016
    outer loop
      vertex -6.92342e-016 -26.4021 3.11803
      vertex -1.77636e-015 -30 8
      vertex -6.01531e-016 -26.489 2.70906
    endloop
  endfacet
  facet normal 1 0 2.22045e-016
    outer loop
      vertex -7.77156e-016 -26.232 3.5
      vertex -1.77636e-015 -30 8
      vertex -6.92342e-016 -26.4021 3.11803
    endloop
  endfacet
  facet normal 1 0 2.22045e-016
    outer loop
      vertex -8.52265e-016 -25.9863 3.83826
      vertex -1.77636e-015 -30 8
      vertex -7.77156e-016 -26.232 3.5
    endloop
  endfacet
  facet normal 1 0 2.22045e-016
    outer loop
      vertex -9.14387e-016 -25.6756 4.11803
      vertex -1.77636e-015 -30 8
      vertex -8.52265e-016 -25.9863 3.83826
    endloop
  endfacet
  facet normal 1 0 2.22045e-016
    outer loop
      vertex -9.60807e-016 -25.3135 4.32709
      vertex -1.77636e-015 -30 8
      vertex -9.14387e-016 -25.6756 4.11803
    endloop
  endfacet
  facet normal 1 0 2.22045e-016
    outer loop
      vertex 6.01531e-016 -22.511 -2.70906
      vertex 1.77636e-015 -19.6 -8
      vertex -6.01531e-016 -22.511 2.70906
    endloop
  endfacet
  facet normal 1 0 2.22045e-016
    outer loop
      vertex 6.92342e-016 -22.5979 -3.11803
      vertex 1.77636e-015 -19.6 -8
      vertex 6.01531e-016 -22.511 -2.70906
    endloop
  endfacet
  facet normal 1 0 2.22045e-016
    outer loop
      vertex 7.77156e-016 -22.7679 -3.5
      vertex 1.77636e-015 -19.6 -8
      vertex 6.92342e-016 -22.5979 -3.11803
    endloop
  endfacet
  facet normal 1 0 2.22045e-016
    outer loop
      vertex 8.52265e-016 -23.0137 -3.83826
      vertex 1.77636e-015 -19.6 -8
      vertex 7.77156e-016 -22.7679 -3.5
    endloop
  endfacet
  facet normal 1 0 2.22045e-016
    outer loop
      vertex 9.14387e-016 -23.3244 -4.11803
      vertex 1.77636e-015 -19.6 -8
      vertex 8.52265e-016 -23.0137 -3.83826
    endloop
  endfacet
  facet normal 1 0 2.22045e-016
    outer loop
      vertex 9.60807e-016 -23.6865 -4.32709
      vertex 1.77636e-015 -19.6 -8
      vertex 9.14387e-016 -23.3244 -4.11803
    endloop
  endfacet
  facet normal 1 0 2.22045e-016
    outer loop
      vertex 9.89496e-016 -24.0842 -4.4563
      vertex 1.77636e-015 -19.6 -8
      vertex 9.60807e-016 -23.6865 -4.32709
    endloop
  endfacet
  facet normal 1 0 2.22045e-016
    outer loop
      vertex 9.99201e-016 -24.5 -4.5
      vertex 1.77636e-015 -19.6 -8
      vertex 9.89496e-016 -24.0842 -4.4563
    endloop
  endfacet
  facet normal 1 0 2.22045e-016
    outer loop
      vertex 1.77636e-015 -30 -8
      vertex 9.99201e-016 -24.5 -4.5
      vertex 9.89496e-016 -24.9158 -4.4563
    endloop
  endfacet
  facet normal 1 0 2.22045e-016
    outer loop
      vertex 1.77636e-015 -30 -8
      vertex 9.89496e-016 -24.9158 -4.4563
      vertex 9.60807e-016 -25.3135 -4.32709
    endloop
  endfacet
  facet normal 1 0 2.22045e-016
    outer loop
      vertex 1.77636e-015 -30 -8
      vertex 9.60807e-016 -25.3135 -4.32709
      vertex 9.14387e-016 -25.6756 -4.11803
    endloop
  endfacet
  facet normal 1 0 2.22045e-016
    outer loop
      vertex 1.77636e-015 -30 -8
      vertex 6.01531e-016 -26.489 -2.70906
      vertex -1.77636e-015 -30 8
    endloop
  endfacet
  facet normal 1 0 2.22045e-016
    outer loop
      vertex 9.99201e-016 -24.5 -4.5
      vertex 1.77636e-015 -30 -8
      vertex 1.77636e-015 -19.6 -8
    endloop
  endfacet
  facet normal 1 0 2.22045e-016
    outer loop
      vertex 8.52265e-016 -25.9863 -3.83826
      vertex 1.77636e-015 -30 -8
      vertex 9.14387e-016 -25.6756 -4.11803
    endloop
  endfacet
  facet normal 1 0 2.22045e-016
    outer loop
      vertex 7.77156e-016 -26.232 -3.5
      vertex 1.77636e-015 -30 -8
      vertex 8.52265e-016 -25.9863 -3.83826
    endloop
  endfacet
  facet normal 1 0 2.22045e-016
    outer loop
      vertex 6.92342e-016 -26.4021 -3.11803
      vertex 1.77636e-015 -30 -8
      vertex 7.77156e-016 -26.232 -3.5
    endloop
  endfacet
  facet normal 1 0 2.22045e-016
    outer loop
      vertex 6.01531e-016 -26.489 -2.70906
      vertex 1.77636e-015 -30 -8
      vertex 6.92342e-016 -26.4021 -3.11803
    endloop
  endfacet
  facet normal 1 0 2.22045e-016
    outer loop
      vertex -1.77636e-015 30 8
      vertex -6.01531e-016 26.489 2.70906
      vertex 1.77636e-015 30 -8
    endloop
  endfacet
  facet normal 1 0 2.22045e-016
    outer loop
      vertex -1.77636e-015 30 8
      vertex -6.92342e-016 26.4021 3.11803
      vertex -6.01531e-016 26.489 2.70906
    endloop
  endfacet
  facet normal 1 0 2.22045e-016
    outer loop
      vertex -1.77636e-015 30 8
      vertex -7.77156e-016 26.232 3.5
      vertex -6.92342e-016 26.4021 3.11803
    endloop
  endfacet
  facet normal 1 0 2.22045e-016
    outer loop
      vertex -1.77636e-015 30 8
      vertex -8.52265e-016 25.9863 3.83826
      vertex -7.77156e-016 26.232 3.5
    endloop
  endfacet
  facet normal 1 0 2.22045e-016
    outer loop
      vertex -1.77636e-015 30 8
      vertex -9.14387e-016 25.6756 4.11803
      vertex -8.52265e-016 25.9863 3.83826
    endloop
  endfacet
  facet normal 1 0 2.22045e-016
    outer loop
      vertex -1.77636e-015 30 8
      vertex -9.60807e-016 25.3135 4.32709
      vertex -9.14387e-016 25.6756 4.11803
    endloop
  endfacet
  facet normal 1 0 2.22045e-016
    outer loop
      vertex -1.77636e-015 30 8
      vertex -9.89496e-016 24.9158 4.4563
      vertex -9.60807e-016 25.3135 4.32709
    endloop
  endfacet
  facet normal 1 0 2.22045e-016
    outer loop
      vertex -1.77636e-015 30 8
      vertex -9.99201e-016 24.5 4.5
      vertex -9.89496e-016 24.9158 4.4563
    endloop
  endfacet
  facet normal 1 -0 2.22045e-016
    outer loop
      vertex -1.77636e-015 19.6 8
      vertex -9.99201e-016 24.5 4.5
      vertex -1.77636e-015 30 8
    endloop
  endfacet
  facet normal 1 0 2.22045e-016
    outer loop
      vertex -9.99201e-016 24.5 4.5
      vertex -1.77636e-015 19.6 8
      vertex -9.89496e-016 24.0842 4.4563
    endloop
  endfacet
  facet normal 1 0 2.22045e-016
    outer loop
      vertex -9.89496e-016 24.0842 4.4563
      vertex -1.77636e-015 19.6 8
      vertex -9.60807e-016 23.6865 4.32709
    endloop
  endfacet
  facet normal 1 0 2.22045e-016
    outer loop
      vertex -6.01531e-016 22.511 2.70906
      vertex -1.77636e-015 19.6 8
      vertex 6.01531e-016 22.511 -2.70906
    endloop
  endfacet
  facet normal 1 0 2.22045e-016
    outer loop
      vertex -6.92342e-016 22.5979 3.11803
      vertex -1.77636e-015 19.6 8
      vertex -6.01531e-016 22.511 2.70906
    endloop
  endfacet
  facet normal 1 0 2.22045e-016
    outer loop
      vertex -7.77156e-016 22.7679 3.5
      vertex -1.77636e-015 19.6 8
      vertex -6.92342e-016 22.5979 3.11803
    endloop
  endfacet
  facet normal 1 0 2.22045e-016
    outer loop
      vertex -8.52265e-016 23.0137 3.83826
      vertex -1.77636e-015 19.6 8
      vertex -7.77156e-016 22.7679 3.5
    endloop
  endfacet
  facet normal 1 0 2.22045e-016
    outer loop
      vertex -9.14387e-016 23.3244 4.11803
      vertex -1.77636e-015 19.6 8
      vertex -8.52265e-016 23.0137 3.83826
    endloop
  endfacet
  facet normal 1 0 2.22045e-016
    outer loop
      vertex -9.60807e-016 23.6865 4.32709
      vertex -1.77636e-015 19.6 8
      vertex -9.14387e-016 23.3244 4.11803
    endloop
  endfacet
  facet normal 1 0 2.22045e-016
    outer loop
      vertex 6.01531e-016 26.489 -2.70906
      vertex 1.77636e-015 30 -8
      vertex -6.01531e-016 26.489 2.70906
    endloop
  endfacet
  facet normal 1 0 2.22045e-016
    outer loop
      vertex 6.92342e-016 26.4021 -3.11803
      vertex 1.77636e-015 30 -8
      vertex 6.01531e-016 26.489 -2.70906
    endloop
  endfacet
  facet normal 1 0 2.22045e-016
    outer loop
      vertex 7.77156e-016 26.232 -3.5
      vertex 1.77636e-015 30 -8
      vertex 6.92342e-016 26.4021 -3.11803
    endloop
  endfacet
  facet normal 1 0 2.22045e-016
    outer loop
      vertex 8.52265e-016 25.9863 -3.83826
      vertex 1.77636e-015 30 -8
      vertex 7.77156e-016 26.232 -3.5
    endloop
  endfacet
  facet normal 1 0 2.22045e-016
    outer loop
      vertex 9.14387e-016 25.6756 -4.11803
      vertex 1.77636e-015 30 -8
      vertex 8.52265e-016 25.9863 -3.83826
    endloop
  endfacet
  facet normal 1 0 2.22045e-016
    outer loop
      vertex 9.60807e-016 25.3135 -4.32709
      vertex 1.77636e-015 30 -8
      vertex 9.14387e-016 25.6756 -4.11803
    endloop
  endfacet
  facet normal 1 0 2.22045e-016
    outer loop
      vertex 9.89496e-016 24.9158 -4.4563
      vertex 1.77636e-015 30 -8
      vertex 9.60807e-016 25.3135 -4.32709
    endloop
  endfacet
  facet normal 1 0 2.22045e-016
    outer loop
      vertex 9.99201e-016 24.5 -4.5
      vertex 1.77636e-015 30 -8
      vertex 9.89496e-016 24.9158 -4.4563
    endloop
  endfacet
  facet normal 1 0 2.22045e-016
    outer loop
      vertex 1.77636e-015 19.6 -8
      vertex 9.99201e-016 24.5 -4.5
      vertex 9.89496e-016 24.0842 -4.4563
    endloop
  endfacet
  facet normal 1 0 2.22045e-016
    outer loop
      vertex 1.77636e-015 19.6 -8
      vertex 9.89496e-016 24.0842 -4.4563
      vertex 9.60807e-016 23.6865 -4.32709
    endloop
  endfacet
  facet normal 1 0 2.22045e-016
    outer loop
      vertex 1.77636e-015 19.6 -8
      vertex 9.60807e-016 23.6865 -4.32709
      vertex 9.14387e-016 23.3244 -4.11803
    endloop
  endfacet
  facet normal 1 0 2.22045e-016
    outer loop
      vertex 1.77636e-015 19.6 -8
      vertex 6.01531e-016 22.511 -2.70906
      vertex -1.77636e-015 19.6 8
    endloop
  endfacet
  facet normal 1 0 2.22045e-016
    outer loop
      vertex 9.99201e-016 24.5 -4.5
      vertex 1.77636e-015 19.6 -8
      vertex 1.77636e-015 30 -8
    endloop
  endfacet
  facet normal 1 0 2.22045e-016
    outer loop
      vertex 8.52265e-016 23.0137 -3.83826
      vertex 1.77636e-015 19.6 -8
      vertex 9.14387e-016 23.3244 -4.11803
    endloop
  endfacet
  facet normal 1 0 2.22045e-016
    outer loop
      vertex 7.77156e-016 22.7679 -3.5
      vertex 1.77636e-015 19.6 -8
      vertex 8.52265e-016 23.0137 -3.83826
    endloop
  endfacet
  facet normal 1 0 2.22045e-016
    outer loop
      vertex 6.92342e-016 22.5979 -3.11803
      vertex 1.77636e-015 19.6 -8
      vertex 7.77156e-016 22.7679 -3.5
    endloop
  endfacet
  facet normal 1 0 2.22045e-016
    outer loop
      vertex 6.01531e-016 22.511 -2.70906
      vertex 1.77636e-015 19.6 -8
      vertex 6.92342e-016 22.5979 -3.11803
    endloop
  endfacet
  facet normal 1 0 2.22045e-016
    outer loop
      vertex -1.77636e-015 18 8
      vertex -6.10623e-016 13.5 2.75
      vertex 1.77636e-015 18 -8
    endloop
  endfacet
  facet normal 1 0 2.22045e-016
    outer loop
      vertex -1.77636e-015 18 8
      vertex -6.10623e-016 10.5 2.75
      vertex -6.10623e-016 13.5 2.75
    endloop
  endfacet
  facet normal 1 0 2.22045e-016
    outer loop
      vertex -6.10623e-016 10.5 2.75
      vertex -6.10623e-016 -10.5 2.75
      vertex 6.10623e-016 10.5 -2.75
    endloop
  endfacet
  facet normal 1 0 2.22045e-016
    outer loop
      vertex -1.77636e-015 18 8
      vertex -6.10623e-016 -10.5 2.75
      vertex -6.10623e-016 10.5 2.75
    endloop
  endfacet
  facet normal 1 -0 2.22045e-016
    outer loop
      vertex -1.77636e-015 -18 8
      vertex -6.10623e-016 -10.5 2.75
      vertex -1.77636e-015 18 8
    endloop
  endfacet
  facet normal 1 0 2.22045e-016
    outer loop
      vertex -6.10623e-016 -13.5 2.75
      vertex -1.77636e-015 -18 8
      vertex 6.10623e-016 -13.5 -2.75
    endloop
  endfacet
  facet normal 1 0 2.22045e-016
    outer loop
      vertex -6.10623e-016 -10.5 2.75
      vertex -1.77636e-015 -18 8
      vertex -6.10623e-016 -13.5 2.75
    endloop
  endfacet
  facet normal 1 0 2.22045e-016
    outer loop
      vertex 6.10623e-016 13.5 -2.75
      vertex 1.77636e-015 18 -8
      vertex -6.10623e-016 13.5 2.75
    endloop
  endfacet
  facet normal 1 -0 2.22045e-016
    outer loop
      vertex 6.10623e-016 10.5 -2.75
      vertex 1.77636e-015 18 -8
      vertex 6.10623e-016 13.5 -2.75
    endloop
  endfacet
  facet normal 1 -0 2.22045e-016
    outer loop
      vertex 6.10623e-016 -10.5 -2.75
      vertex 6.10623e-016 10.5 -2.75
      vertex -6.10623e-016 -10.5 2.75
    endloop
  endfacet
  facet normal 1 0 2.22045e-016
    outer loop
      vertex 6.10623e-016 10.5 -2.75
      vertex 6.10623e-016 -10.5 -2.75
      vertex 1.77636e-015 18 -8
    endloop
  endfacet
  facet normal 1 0 2.22045e-016
    outer loop
      vertex 1.77636e-015 -18 -8
      vertex 6.10623e-016 -10.5 -2.75
      vertex 6.10623e-016 -13.5 -2.75
    endloop
  endfacet
  facet normal 1 0 2.22045e-016
    outer loop
      vertex 6.10623e-016 -10.5 -2.75
      vertex 1.77636e-015 -18 -8
      vertex 1.77636e-015 18 -8
    endloop
  endfacet
  facet normal 1 0 2.22045e-016
    outer loop
      vertex 1.77636e-015 -18 -8
      vertex 6.10623e-016 -13.5 -2.75
      vertex -1.77636e-015 -18 8
    endloop
  endfacet
  facet normal 0 0 -1
    outer loop
      vertex -1.6 -30 -8
      vertex 1.77636e-015 -19.6 -8
      vertex 1.77636e-015 -30 -8
    endloop
  endfacet
  facet normal -0 0 -1
    outer loop
      vertex 1.77636e-015 -19.6 -8
      vertex -1.6 -30 -8
      vertex 1.77636e-015 -18 -8
    endloop
  endfacet
  facet normal -0 0 -1
    outer loop
      vertex 1.77636e-015 -18 -8
      vertex -1.6 -30 -8
      vertex 1.77636e-015 18 -8
    endloop
  endfacet
  facet normal 0 0 -1
    outer loop
      vertex -1.6 30 -8
      vertex 1.77636e-015 18 -8
      vertex -1.6 -30 -8
    endloop
  endfacet
  facet normal 0 0 -1
    outer loop
      vertex 1.77636e-015 18 -8
      vertex -1.6 30 -8
      vertex 1.77636e-015 19.6 -8
    endloop
  endfacet
  facet normal 0 0 -1
    outer loop
      vertex 1.77636e-015 19.6 -8
      vertex -1.6 30 -8
      vertex 1.77636e-015 30 -8
    endloop
  endfacet
  facet normal 0 0 -1
    outer loop
      vertex 3.5 -18 -8
      vertex 4.3 -19.5608 -8
      vertex 4.3 -19.6 -8
    endloop
  endfacet
  facet normal 0 0 -1
    outer loop
      vertex 4.3 -19.5608 -8
      vertex 3.5 -18 -8
      vertex 4.05279 -15.5392 -8
    endloop
  endfacet
  facet normal 0 0 -1
    outer loop
      vertex 3.5 -16.3 -8
      vertex 4.05279 -15.5392 -8
      vertex 3.5 -18 -8
    endloop
  endfacet
  facet normal 0 0 -1
    outer loop
      vertex 1.77636e-015 -19.6 -8
      vertex 3.5 -18 -8
      vertex 4.3 -19.6 -8
    endloop
  endfacet
  facet normal -0 0 -1
    outer loop
      vertex 3.5 -18 -8
      vertex 1.77636e-015 -19.6 -8
      vertex 1.77636e-015 -18 -8
    endloop
  endfacet
  facet normal 0 0 -1
    outer loop
      vertex 4.3 -19.5608 -8
      vertex 5.1 -18.8 -8
      vertex 4.94721 -19.2702 -8
    endloop
  endfacet
  facet normal 0 0 -1
    outer loop
      vertex 4.05279 -15.5392 -8
      vertex 5.1 -18.8 -8
      vertex 4.3 -19.5608 -8
    endloop
  endfacet
  facet normal 0 0 -1
    outer loop
      vertex 4.3 -19.5608 -8
      vertex 4.94721 -19.2702 -8
      vertex 4.54721 -19.5608 -8
    endloop
  endfacet
  facet normal 0 0 -1
    outer loop
      vertex 5.1 -18.8 -8
      vertex 4.05279 -15.5392 -8
      vertex 5.1 -16.3 -8
    endloop
  endfacet
  facet normal 0 0 -1
    outer loop
      vertex 5.1 -16.3 -8
      vertex 4.05279 -15.5392 -8
      vertex 4.94721 -15.8298 -8
    endloop
  endfacet
  facet normal 0 0 -1
    outer loop
      vertex 4.94721 -15.8298 -8
      vertex 4.05279 -15.5392 -8
      vertex 4.54721 -15.5392 -8
    endloop
  endfacet
  facet normal 0 0 -1
    outer loop
      vertex 4.05279 -15.5392 -8
      vertex 3.5 -16.3 -8
      vertex 3.65279 -15.8298 -8
    endloop
  endfacet
  facet normal 0 0 -1
    outer loop
      vertex 3.5 16.3 -8
      vertex 5.1 16.3 -8
      vertex 4.94721 15.8298 -8
    endloop
  endfacet
  facet normal 0 0 -1
    outer loop
      vertex 5.1 16.3 -8
      vertex 3.5 18 -8
      vertex 5.1 18.8 -8
    endloop
  endfacet
  facet normal 0 0 -1
    outer loop
      vertex 3.5 16.3 -8
      vertex 4.94721 15.8298 -8
      vertex 4.54721 15.5392 -8
    endloop
  endfacet
  facet normal 0 -0 -1
    outer loop
      vertex 4.3 19.5608 -8
      vertex 5.1 18.8 -8
      vertex 3.5 18 -8
    endloop
  endfacet
  facet normal 0 0 -1
    outer loop
      vertex 5.1 18.8 -8
      vertex 4.3 19.5608 -8
      vertex 4.94721 19.2702 -8
    endloop
  endfacet
  facet normal 0 0 -1
    outer loop
      vertex 3.5 16.3 -8
      vertex 4.54721 15.5392 -8
      vertex 4.05279 15.5392 -8
    endloop
  endfacet
  facet normal 0 0 -1
    outer loop
      vertex 4.94721 19.2702 -8
      vertex 4.3 19.5608 -8
      vertex 4.54721 19.5608 -8
    endloop
  endfacet
  facet normal 0 0 -1
    outer loop
      vertex 3.5 16.3 -8
      vertex 4.05279 15.5392 -8
      vertex 3.65279 15.8298 -8
    endloop
  endfacet
  facet normal 0 0 -1
    outer loop
      vertex 5.1 16.3 -8
      vertex 3.5 16.3 -8
      vertex 3.5 18 -8
    endloop
  endfacet
  facet normal -0 0 -1
    outer loop
      vertex 4.3 19.5608 -8
      vertex 3.5 18 -8
      vertex 4.3 19.6 -8
    endloop
  endfacet
  facet normal 0 0 -1
    outer loop
      vertex 1.77636e-015 19.6 -8
      vertex 3.5 18 -8
      vertex 1.77636e-015 18 -8
    endloop
  endfacet
  facet normal 0 0 -1
    outer loop
      vertex 3.5 18 -8
      vertex 1.77636e-015 19.6 -8
      vertex 4.3 19.6 -8
    endloop
  endfacet
  facet normal -1 0 0
    outer loop
      vertex -1.6 30 -8
      vertex -1.6 26.489 -2.70906
      vertex -1.6 30 8
    endloop
  endfacet
  facet normal -1 0 0
    outer loop
      vertex -1.6 30 -8
      vertex -1.6 26.4021 -3.11803
      vertex -1.6 26.489 -2.70906
    endloop
  endfacet
  facet normal -1 0 0
    outer loop
      vertex -1.6 30 -8
      vertex -1.6 26.232 -3.5
      vertex -1.6 26.4021 -3.11803
    endloop
  endfacet
  facet normal -1 0 0
    outer loop
      vertex -1.6 30 -8
      vertex -1.6 25.9863 -3.83826
      vertex -1.6 26.232 -3.5
    endloop
  endfacet
  facet normal -1 0 0
    outer loop
      vertex -1.6 30 -8
      vertex -1.6 25.6756 -4.11803
      vertex -1.6 25.9863 -3.83826
    endloop
  endfacet
  facet normal -1 0 0
    outer loop
      vertex -1.6 30 -8
      vertex -1.6 25.3135 -4.32709
      vertex -1.6 25.6756 -4.11803
    endloop
  endfacet
  facet normal -1 0 0
    outer loop
      vertex -1.6 30 -8
      vertex -1.6 24.9158 -4.4563
      vertex -1.6 25.3135 -4.32709
    endloop
  endfacet
  facet normal -1 0 0
    outer loop
      vertex -1.6 30 -8
      vertex -1.6 24.5 -4.5
      vertex -1.6 24.9158 -4.4563
    endloop
  endfacet
  facet normal -1 0 0
    outer loop
      vertex -1.6 30 -8
      vertex -1.6 24.0842 -4.4563
      vertex -1.6 24.5 -4.5
    endloop
  endfacet
  facet normal -1 0 0
    outer loop
      vertex -1.6 30 -8
      vertex -1.6 23.6865 -4.32709
      vertex -1.6 24.0842 -4.4563
    endloop
  endfacet
  facet normal -1 0 0
    outer loop
      vertex -1.6 -23.6865 -4.32709
      vertex -1.6 23.6865 -4.32709
      vertex -1.6 30 -8
    endloop
  endfacet
  facet normal -1 0 0
    outer loop
      vertex -1.6 22.511 -2.70906
      vertex -1.6 -22.511 -2.70906
      vertex -1.6 22.511 2.70906
    endloop
  endfacet
  facet normal -1 0 0
    outer loop
      vertex -1.6 22.5979 -3.11803
      vertex -1.6 -22.511 -2.70906
      vertex -1.6 22.511 -2.70906
    endloop
  endfacet
  facet normal -1 0 0
    outer loop
      vertex -1.6 -22.5979 -3.11803
      vertex -1.6 22.5979 -3.11803
      vertex -1.6 22.7679 -3.5
    endloop
  endfacet
  facet normal -1 0 0
    outer loop
      vertex -1.6 -22.7679 -3.5
      vertex -1.6 22.7679 -3.5
      vertex -1.6 23.0137 -3.83826
    endloop
  endfacet
  facet normal -1 0 0
    outer loop
      vertex -1.6 -23.0137 -3.83826
      vertex -1.6 23.0137 -3.83826
      vertex -1.6 23.3244 -4.11803
    endloop
  endfacet
  facet normal -1 0 0
    outer loop
      vertex -1.6 23.6865 -4.32709
      vertex -1.6 -23.6865 -4.32709
      vertex -1.6 23.3244 -4.11803
    endloop
  endfacet
  facet normal -1 0 0
    outer loop
      vertex -1.6 22.5979 -3.11803
      vertex -1.6 -22.5979 -3.11803
      vertex -1.6 -22.511 -2.70906
    endloop
  endfacet
  facet normal -1 0 0
    outer loop
      vertex -1.6 22.7679 -3.5
      vertex -1.6 -22.7679 -3.5
      vertex -1.6 -22.5979 -3.11803
    endloop
  endfacet
  facet normal -1 0 0
    outer loop
      vertex -1.6 23.0137 -3.83826
      vertex -1.6 -23.0137 -3.83826
      vertex -1.6 -22.7679 -3.5
    endloop
  endfacet
  facet normal -1 0 0
    outer loop
      vertex -1.6 23.3244 -4.11803
      vertex -1.6 -23.3244 -4.11803
      vertex -1.6 -23.0137 -3.83826
    endloop
  endfacet
  facet normal -1 -0 0
    outer loop
      vertex -1.6 23.3244 -4.11803
      vertex -1.6 -23.6865 -4.32709
      vertex -1.6 -23.3244 -4.11803
    endloop
  endfacet
  facet normal -1 0 0
    outer loop
      vertex -1.6 -30 -8
      vertex -1.6 -23.6865 -4.32709
      vertex -1.6 30 -8
    endloop
  endfacet
  facet normal -1 0 0
    outer loop
      vertex -1.6 -23.6865 -4.32709
      vertex -1.6 -30 -8
      vertex -1.6 -24.0842 -4.4563
    endloop
  endfacet
  facet normal -1 -0 0
    outer loop
      vertex -1.6 -26.489 -2.70906
      vertex -1.6 -30 -8
      vertex -1.6 -26.489 2.70906
    endloop
  endfacet
  facet normal -1 -0 0
    outer loop
      vertex -1.6 -26.4021 -3.11803
      vertex -1.6 -30 -8
      vertex -1.6 -26.489 -2.70906
    endloop
  endfacet
  facet normal -1 -0 0
    outer loop
      vertex -1.6 -26.232 -3.5
      vertex -1.6 -30 -8
      vertex -1.6 -26.4021 -3.11803
    endloop
  endfacet
  facet normal -1 -0 0
    outer loop
      vertex -1.6 -25.9863 -3.83826
      vertex -1.6 -30 -8
      vertex -1.6 -26.232 -3.5
    endloop
  endfacet
  facet normal -1 -0 0
    outer loop
      vertex -1.6 -25.6756 -4.11803
      vertex -1.6 -30 -8
      vertex -1.6 -25.9863 -3.83826
    endloop
  endfacet
  facet normal -1 -0 0
    outer loop
      vertex -1.6 -25.3135 -4.32709
      vertex -1.6 -30 -8
      vertex -1.6 -25.6756 -4.11803
    endloop
  endfacet
  facet normal -1 -0 0
    outer loop
      vertex -1.6 -24.9158 -4.4563
      vertex -1.6 -30 -8
      vertex -1.6 -25.3135 -4.32709
    endloop
  endfacet
  facet normal -1 -0 0
    outer loop
      vertex -1.6 -24.5 -4.5
      vertex -1.6 -30 -8
      vertex -1.6 -24.9158 -4.4563
    endloop
  endfacet
  facet normal -1 0 0
    outer loop
      vertex -1.6 -24.0842 -4.4563
      vertex -1.6 -30 -8
      vertex -1.6 -24.5 -4.5
    endloop
  endfacet
  facet normal -1 0 0
    outer loop
      vertex -1.6 26.489 2.70906
      vertex -1.6 30 8
      vertex -1.6 26.489 -2.70906
    endloop
  endfacet
  facet normal -1 0 0
    outer loop
      vertex -1.6 26.4021 3.11803
      vertex -1.6 30 8
      vertex -1.6 26.489 2.70906
    endloop
  endfacet
  facet normal -1 0 0
    outer loop
      vertex -1.6 26.232 3.5
      vertex -1.6 30 8
      vertex -1.6 26.4021 3.11803
    endloop
  endfacet
  facet normal -1 0 0
    outer loop
      vertex -1.6 25.9863 3.83826
      vertex -1.6 30 8
      vertex -1.6 26.232 3.5
    endloop
  endfacet
  facet normal -1 0 0
    outer loop
      vertex -1.6 25.6756 4.11803
      vertex -1.6 30 8
      vertex -1.6 25.9863 3.83826
    endloop
  endfacet
  facet normal -1 0 0
    outer loop
      vertex -1.6 25.3135 4.32709
      vertex -1.6 30 8
      vertex -1.6 25.6756 4.11803
    endloop
  endfacet
  facet normal -1 0 0
    outer loop
      vertex -1.6 24.9158 4.4563
      vertex -1.6 30 8
      vertex -1.6 25.3135 4.32709
    endloop
  endfacet
  facet normal -1 0 0
    outer loop
      vertex -1.6 24.5 4.5
      vertex -1.6 30 8
      vertex -1.6 24.9158 4.4563
    endloop
  endfacet
  facet normal -1 0 0
    outer loop
      vertex -1.6 24.0842 4.4563
      vertex -1.6 30 8
      vertex -1.6 24.5 4.5
    endloop
  endfacet
  facet normal -1 0 0
    outer loop
      vertex -1.6 23.6865 4.32709
      vertex -1.6 30 8
      vertex -1.6 24.0842 4.4563
    endloop
  endfacet
  facet normal -1 0 0
    outer loop
      vertex -1.6 -23.6865 4.32709
      vertex -1.6 23.6865 4.32709
      vertex -1.6 23.3244 4.11803
    endloop
  endfacet
  facet normal -1 0 0
    outer loop
      vertex -1.6 -22.511 2.70906
      vertex -1.6 22.511 2.70906
      vertex -1.6 -22.511 -2.70906
    endloop
  endfacet
  facet normal -1 0 0
    outer loop
      vertex -1.6 22.511 2.70906
      vertex -1.6 -22.511 2.70906
      vertex -1.6 22.5979 3.11803
    endloop
  endfacet
  facet normal -1 0 0
    outer loop
      vertex -1.6 -22.5979 3.11803
      vertex -1.6 22.5979 3.11803
      vertex -1.6 -22.511 2.70906
    endloop
  endfacet
  facet normal -1 0 0
    outer loop
      vertex -1.6 22.5979 3.11803
      vertex -1.6 -22.5979 3.11803
      vertex -1.6 22.7679 3.5
    endloop
  endfacet
  facet normal -1 0 0
    outer loop
      vertex -1.6 -22.7679 3.5
      vertex -1.6 22.7679 3.5
      vertex -1.6 -22.5979 3.11803
    endloop
  endfacet
  facet normal -1 -0 0
    outer loop
      vertex -1.6 22.7679 3.5
      vertex -1.6 -22.7679 3.5
      vertex -1.6 23.0137 3.83826
    endloop
  endfacet
  facet normal -1 0 0
    outer loop
      vertex -1.6 -23.0137 3.83826
      vertex -1.6 23.0137 3.83826
      vertex -1.6 -22.7679 3.5
    endloop
  endfacet
  facet normal -1 0 0
    outer loop
      vertex -1.6 23.0137 3.83826
      vertex -1.6 -23.0137 3.83826
      vertex -1.6 23.3244 4.11803
    endloop
  endfacet
  facet normal -1 0 0
    outer loop
      vertex -1.6 -23.3244 4.11803
      vertex -1.6 23.3244 4.11803
      vertex -1.6 -23.0137 3.83826
    endloop
  endfacet
  facet normal -1 0 0
    outer loop
      vertex -1.6 -23.6865 4.32709
      vertex -1.6 23.3244 4.11803
      vertex -1.6 -23.3244 4.11803
    endloop
  endfacet
  facet normal -1 0 0
    outer loop
      vertex -1.6 23.6865 4.32709
      vertex -1.6 -23.6865 4.32709
      vertex -1.6 30 8
    endloop
  endfacet
  facet normal -1 0 0
    outer loop
      vertex -1.6 -30 8
      vertex -1.6 -23.6865 4.32709
      vertex -1.6 -24.0842 4.4563
    endloop
  endfacet
  facet normal -1 0 0
    outer loop
      vertex -1.6 -30 8
      vertex -1.6 -24.0842 4.4563
      vertex -1.6 -24.5 4.5
    endloop
  endfacet
  facet normal -1 0 0
    outer loop
      vertex -1.6 -30 8
      vertex -1.6 -26.489 2.70906
      vertex -1.6 -30 -8
    endloop
  endfacet
  facet normal -1 0 0
    outer loop
      vertex -1.6 -23.6865 4.32709
      vertex -1.6 -30 8
      vertex -1.6 30 8
    endloop
  endfacet
  facet normal -1 0 0
    outer loop
      vertex -1.6 -24.9158 4.4563
      vertex -1.6 -30 8
      vertex -1.6 -24.5 4.5
    endloop
  endfacet
  facet normal -1 0 0
    outer loop
      vertex -1.6 -25.3135 4.32709
      vertex -1.6 -30 8
      vertex -1.6 -24.9158 4.4563
    endloop
  endfacet
  facet normal -1 0 0
    outer loop
      vertex -1.6 -25.6756 4.11803
      vertex -1.6 -30 8
      vertex -1.6 -25.3135 4.32709
    endloop
  endfacet
  facet normal -1 0 0
    outer loop
      vertex -1.6 -25.9863 3.83826
      vertex -1.6 -30 8
      vertex -1.6 -25.6756 4.11803
    endloop
  endfacet
  facet normal -1 0 0
    outer loop
      vertex -1.6 -26.232 3.5
      vertex -1.6 -30 8
      vertex -1.6 -25.9863 3.83826
    endloop
  endfacet
  facet normal -1 0 0
    outer loop
      vertex -1.6 -26.4021 3.11803
      vertex -1.6 -30 8
      vertex -1.6 -26.232 3.5
    endloop
  endfacet
  facet normal -1 0 0
    outer loop
      vertex -1.6 -26.489 2.70906
      vertex -1.6 -30 8
      vertex -1.6 -26.4021 3.11803
    endloop
  endfacet
  facet normal 0 -1 0
    outer loop
      vertex -1.6 -30 -8
      vertex -1.77636e-015 -30 8
      vertex -1.6 -30 8
    endloop
  endfacet
  facet normal 0 -1 -0
    outer loop
      vertex -1.77636e-015 -30 8
      vertex -1.6 -30 -8
      vertex 1.77636e-015 -30 -8
    endloop
  endfacet
  facet normal 0 1 0
    outer loop
      vertex 1.77636e-015 30 -8
      vertex -1.6 30 8
      vertex -1.77636e-015 30 8
    endloop
  endfacet
  facet normal 0 1 0
    outer loop
      vertex -1.6 30 8
      vertex 1.77636e-015 30 -8
      vertex -1.6 30 -8
    endloop
  endfacet
  facet normal -0 0 1
    outer loop
      vertex -6.10623e-016 13.5 2.75
      vertex 0.2 10.5 2.75
      vertex 0.2 13.5 2.75
    endloop
  endfacet
  facet normal 0 0 1
    outer loop
      vertex 0.2 10.5 2.75
      vertex -6.10623e-016 13.5 2.75
      vertex -6.10623e-016 10.5 2.75
    endloop
  endfacet
  facet normal 1 -0 0
    outer loop
      vertex 0.2 10.5 2.75
      vertex 0.2 13.5 -2.75
      vertex 0.2 13.5 2.75
    endloop
  endfacet
  facet normal 1 0 0
    outer loop
      vertex 0.2 13.5 -2.75
      vertex 0.2 10.5 2.75
      vertex 0.2 10.5 -2.75
    endloop
  endfacet
  facet normal 0 0 -1
    outer loop
      vertex 6.10623e-016 10.5 -2.75
      vertex 0.2 13.5 -2.75
      vertex 0.2 10.5 -2.75
    endloop
  endfacet
  facet normal -0 0 -1
    outer loop
      vertex 0.2 13.5 -2.75
      vertex 6.10623e-016 10.5 -2.75
      vertex 6.10623e-016 13.5 -2.75
    endloop
  endfacet
  facet normal 0 -1 0
    outer loop
      vertex 6.10623e-016 10.5 -2.75
      vertex 0.2 10.5 2.75
      vertex -6.10623e-016 10.5 2.75
    endloop
  endfacet
  facet normal 0 -1 -0
    outer loop
      vertex 0.2 10.5 2.75
      vertex 6.10623e-016 10.5 -2.75
      vertex 0.2 10.5 -2.75
    endloop
  endfacet
  facet normal 0 1 -0
    outer loop
      vertex 0.2 13.5 -2.75
      vertex -6.10623e-016 13.5 2.75
      vertex 0.2 13.5 2.75
    endloop
  endfacet
  facet normal 0 1 0
    outer loop
      vertex -6.10623e-016 13.5 2.75
      vertex 0.2 13.5 -2.75
      vertex 6.10623e-016 13.5 -2.75
    endloop
  endfacet
  facet normal -0 0 1
    outer loop
      vertex -6.10623e-016 -10.5 2.75
      vertex 0.2 -13.5 2.75
      vertex 0.2 -10.5 2.75
    endloop
  endfacet
  facet normal 0 0 1
    outer loop
      vertex 0.2 -13.5 2.75
      vertex -6.10623e-016 -10.5 2.75
      vertex -6.10623e-016 -13.5 2.75
    endloop
  endfacet
  facet normal 1 -0 0
    outer loop
      vertex 0.2 -13.5 2.75
      vertex 0.2 -10.5 -2.75
      vertex 0.2 -10.5 2.75
    endloop
  endfacet
  facet normal 1 0 0
    outer loop
      vertex 0.2 -10.5 -2.75
      vertex 0.2 -13.5 2.75
      vertex 0.2 -13.5 -2.75
    endloop
  endfacet
  facet normal 0 0 -1
    outer loop
      vertex 6.10623e-016 -13.5 -2.75
      vertex 0.2 -10.5 -2.75
      vertex 0.2 -13.5 -2.75
    endloop
  endfacet
  facet normal -0 0 -1
    outer loop
      vertex 0.2 -10.5 -2.75
      vertex 6.10623e-016 -13.5 -2.75
      vertex 6.10623e-016 -10.5 -2.75
    endloop
  endfacet
  facet normal 0 -1 0
    outer loop
      vertex 6.10623e-016 -13.5 -2.75
      vertex 0.2 -13.5 2.75
      vertex -6.10623e-016 -13.5 2.75
    endloop
  endfacet
  facet normal 0 -1 -0
    outer loop
      vertex 0.2 -13.5 2.75
      vertex 6.10623e-016 -13.5 -2.75
      vertex 0.2 -13.5 -2.75
    endloop
  endfacet
  facet normal 0 1 -0
    outer loop
      vertex 0.2 -10.5 -2.75
      vertex -6.10623e-016 -10.5 2.75
      vertex 0.2 -10.5 2.75
    endloop
  endfacet
  facet normal 0 1 0
    outer loop
      vertex -6.10623e-016 -10.5 2.75
      vertex 0.2 -10.5 -2.75
      vertex 6.10623e-016 -10.5 -2.75
    endloop
  endfacet
  facet normal 0 -0.104529 -0.994522
    outer loop
      vertex -1.6 -24.5 4.5
      vertex -9.89496e-016 -24.0842 4.4563
      vertex -9.99201e-016 -24.5 4.5
    endloop
  endfacet
  facet normal -0 -0.104529 -0.994522
    outer loop
      vertex -9.89496e-016 -24.0842 4.4563
      vertex -1.6 -24.5 4.5
      vertex -1.6 -24.0842 4.4563
    endloop
  endfacet
  facet normal 0 0.978147 -0.207913
    outer loop
      vertex -6.01531e-016 -26.489 2.70906
      vertex -1.6 -26.4021 3.11803
      vertex -6.92342e-016 -26.4021 3.11803
    endloop
  endfacet
  facet normal 0 0.978147 -0.207913
    outer loop
      vertex -1.6 -26.4021 3.11803
      vertex -6.01531e-016 -26.489 2.70906
      vertex -1.6 -26.489 2.70906
    endloop
  endfacet
  facet normal -0 0.104529 0.994522
    outer loop
      vertex -1.6 -24.5 -4.5
      vertex 9.89496e-016 -24.9158 -4.4563
      vertex 9.99201e-016 -24.5 -4.5
    endloop
  endfacet
  facet normal 0 0.104529 0.994522
    outer loop
      vertex 9.89496e-016 -24.9158 -4.4563
      vertex -1.6 -24.5 -4.5
      vertex -1.6 -24.9158 -4.4563
    endloop
  endfacet
  facet normal 0 -0.309019 -0.951056
    outer loop
      vertex -1.6 -24.0842 4.4563
      vertex -9.60807e-016 -23.6865 4.32709
      vertex -9.89496e-016 -24.0842 4.4563
    endloop
  endfacet
  facet normal -0 -0.309019 -0.951056
    outer loop
      vertex -9.60807e-016 -23.6865 4.32709
      vertex -1.6 -24.0842 4.4563
      vertex -1.6 -23.6865 4.32709
    endloop
  endfacet
  facet normal 0 0.669131 -0.743144
    outer loop
      vertex -1.6 -25.9863 3.83826
      vertex -9.14387e-016 -25.6756 4.11803
      vertex -8.52265e-016 -25.9863 3.83826
    endloop
  endfacet
  facet normal 0 0.669131 -0.743144
    outer loop
      vertex -9.14387e-016 -25.6756 4.11803
      vertex -1.6 -25.9863 3.83826
      vertex -1.6 -25.6756 4.11803
    endloop
  endfacet
  facet normal 0 0.913545 -0.406738
    outer loop
      vertex -6.92342e-016 -26.4021 3.11803
      vertex -1.6 -26.232 3.5
      vertex -7.77156e-016 -26.232 3.5
    endloop
  endfacet
  facet normal 0 0.913545 -0.406738
    outer loop
      vertex -1.6 -26.232 3.5
      vertex -6.92342e-016 -26.4021 3.11803
      vertex -1.6 -26.4021 3.11803
    endloop
  endfacet
  facet normal 0 0.104529 -0.994522
    outer loop
      vertex -1.6 -24.9158 4.4563
      vertex -9.99201e-016 -24.5 4.5
      vertex -9.89496e-016 -24.9158 4.4563
    endloop
  endfacet
  facet normal 0 0.104529 -0.994522
    outer loop
      vertex -9.99201e-016 -24.5 4.5
      vertex -1.6 -24.9158 4.4563
      vertex -1.6 -24.5 4.5
    endloop
  endfacet
  facet normal 0 -0.978148 -0.207909
    outer loop
      vertex -1.6 -22.511 2.70906
      vertex -6.92342e-016 -22.5979 3.11803
      vertex -1.6 -22.5979 3.11803
    endloop
  endfacet
  facet normal 0 -0.978148 -0.207909
    outer loop
      vertex -6.92342e-016 -22.5979 3.11803
      vertex -1.6 -22.511 2.70906
      vertex -6.01531e-016 -22.511 2.70906
    endloop
  endfacet
  facet normal 0 -1 0
    outer loop
      vertex -1.6 -22.511 -2.70906
      vertex -6.01531e-016 -22.511 2.70906
      vertex -1.6 -22.511 2.70906
    endloop
  endfacet
  facet normal 0 -1 -0
    outer loop
      vertex -6.01531e-016 -22.511 2.70906
      vertex -1.6 -22.511 -2.70906
      vertex 6.01531e-016 -22.511 -2.70906
    endloop
  endfacet
  facet normal 0 1 0
    outer loop
      vertex 6.01531e-016 -26.489 -2.70906
      vertex -1.6 -26.489 2.70906
      vertex -6.01531e-016 -26.489 2.70906
    endloop
  endfacet
  facet normal 0 1 0
    outer loop
      vertex -1.6 -26.489 2.70906
      vertex 6.01531e-016 -26.489 -2.70906
      vertex -1.6 -26.489 -2.70906
    endloop
  endfacet
  facet normal 0 0.309018 -0.951056
    outer loop
      vertex -1.6 -25.3135 4.32709
      vertex -9.89496e-016 -24.9158 4.4563
      vertex -9.60807e-016 -25.3135 4.32709
    endloop
  endfacet
  facet normal 0 0.309018 -0.951056
    outer loop
      vertex -9.89496e-016 -24.9158 4.4563
      vertex -1.6 -25.3135 4.32709
      vertex -1.6 -24.9158 4.4563
    endloop
  endfacet
  facet normal 0 0.499998 -0.866026
    outer loop
      vertex -1.6 -25.6756 4.11803
      vertex -9.60807e-016 -25.3135 4.32709
      vertex -9.14387e-016 -25.6756 4.11803
    endloop
  endfacet
  facet normal 0 0.499998 -0.866026
    outer loop
      vertex -9.60807e-016 -25.3135 4.32709
      vertex -1.6 -25.6756 4.11803
      vertex -1.6 -25.3135 4.32709
    endloop
  endfacet
  facet normal 0 -0.978148 0.207909
    outer loop
      vertex -1.6 -22.5979 -3.11803
      vertex 6.01531e-016 -22.511 -2.70906
      vertex -1.6 -22.511 -2.70906
    endloop
  endfacet
  facet normal 0 -0.978148 0.207909
    outer loop
      vertex 6.01531e-016 -22.511 -2.70906
      vertex -1.6 -22.5979 -3.11803
      vertex 6.92342e-016 -22.5979 -3.11803
    endloop
  endfacet
  facet normal 0 -0.104529 0.994522
    outer loop
      vertex -1.6 -24.0842 -4.4563
      vertex 9.99201e-016 -24.5 -4.5
      vertex 9.89496e-016 -24.0842 -4.4563
    endloop
  endfacet
  facet normal 0 -0.104529 0.994522
    outer loop
      vertex 9.99201e-016 -24.5 -4.5
      vertex -1.6 -24.0842 -4.4563
      vertex -1.6 -24.5 -4.5
    endloop
  endfacet
  facet normal 0 -0.499998 0.866026
    outer loop
      vertex -1.6 -23.3244 -4.11803
      vertex 9.60807e-016 -23.6865 -4.32709
      vertex 9.14387e-016 -23.3244 -4.11803
    endloop
  endfacet
  facet normal 0 -0.499998 0.866026
    outer loop
      vertex 9.60807e-016 -23.6865 -4.32709
      vertex -1.6 -23.3244 -4.11803
      vertex -1.6 -23.6865 -4.32709
    endloop
  endfacet
  facet normal -0 0.309018 0.951056
    outer loop
      vertex -1.6 -24.9158 -4.4563
      vertex 9.60807e-016 -25.3135 -4.32709
      vertex 9.89496e-016 -24.9158 -4.4563
    endloop
  endfacet
  facet normal 0 0.309018 0.951056
    outer loop
      vertex 9.60807e-016 -25.3135 -4.32709
      vertex -1.6 -24.9158 -4.4563
      vertex -1.6 -25.3135 -4.32709
    endloop
  endfacet
  facet normal 0 -0.669131 -0.743144
    outer loop
      vertex -1.6 -23.3244 4.11803
      vertex -8.52265e-016 -23.0137 3.83826
      vertex -9.14387e-016 -23.3244 4.11803
    endloop
  endfacet
  facet normal -0 -0.669131 -0.743144
    outer loop
      vertex -8.52265e-016 -23.0137 3.83826
      vertex -1.6 -23.3244 4.11803
      vertex -1.6 -23.0137 3.83826
    endloop
  endfacet
  facet normal 0 -0.499998 -0.866026
    outer loop
      vertex -1.6 -23.6865 4.32709
      vertex -9.14387e-016 -23.3244 4.11803
      vertex -9.60807e-016 -23.6865 4.32709
    endloop
  endfacet
  facet normal -0 -0.499998 -0.866026
    outer loop
      vertex -9.14387e-016 -23.3244 4.11803
      vertex -1.6 -23.6865 4.32709
      vertex -1.6 -23.3244 4.11803
    endloop
  endfacet
  facet normal 0 0.809018 -0.587784
    outer loop
      vertex -7.77156e-016 -26.232 3.5
      vertex -1.6 -25.9863 3.83826
      vertex -8.52265e-016 -25.9863 3.83826
    endloop
  endfacet
  facet normal 0 0.809018 -0.587784
    outer loop
      vertex -1.6 -25.9863 3.83826
      vertex -7.77156e-016 -26.232 3.5
      vertex -1.6 -26.232 3.5
    endloop
  endfacet
  facet normal 0 -0.809016 0.587787
    outer loop
      vertex -1.6 -23.0137 -3.83826
      vertex 7.77156e-016 -22.7679 -3.5
      vertex -1.6 -22.7679 -3.5
    endloop
  endfacet
  facet normal 0 -0.809016 0.587787
    outer loop
      vertex 7.77156e-016 -22.7679 -3.5
      vertex -1.6 -23.0137 -3.83826
      vertex 8.52265e-016 -23.0137 -3.83826
    endloop
  endfacet
  facet normal 0 -0.669131 0.743144
    outer loop
      vertex -1.6 -23.0137 -3.83826
      vertex 9.14387e-016 -23.3244 -4.11803
      vertex 8.52265e-016 -23.0137 -3.83826
    endloop
  endfacet
  facet normal 0 -0.669131 0.743144
    outer loop
      vertex 9.14387e-016 -23.3244 -4.11803
      vertex -1.6 -23.0137 -3.83826
      vertex -1.6 -23.3244 -4.11803
    endloop
  endfacet
  facet normal 0 -0.913545 0.406738
    outer loop
      vertex -1.6 -22.7679 -3.5
      vertex 6.92342e-016 -22.5979 -3.11803
      vertex -1.6 -22.5979 -3.11803
    endloop
  endfacet
  facet normal 0 -0.913545 0.406738
    outer loop
      vertex 6.92342e-016 -22.5979 -3.11803
      vertex -1.6 -22.7679 -3.5
      vertex 7.77156e-016 -22.7679 -3.5
    endloop
  endfacet
  facet normal 0 -0.309019 0.951056
    outer loop
      vertex -1.6 -23.6865 -4.32709
      vertex 9.89496e-016 -24.0842 -4.4563
      vertex 9.60807e-016 -23.6865 -4.32709
    endloop
  endfacet
  facet normal 0 -0.309019 0.951056
    outer loop
      vertex 9.89496e-016 -24.0842 -4.4563
      vertex -1.6 -23.6865 -4.32709
      vertex -1.6 -24.0842 -4.4563
    endloop
  endfacet
  facet normal -0 0.499998 0.866026
    outer loop
      vertex -1.6 -25.3135 -4.32709
      vertex 9.14387e-016 -25.6756 -4.11803
      vertex 9.60807e-016 -25.3135 -4.32709
    endloop
  endfacet
  facet normal 0 0.499998 0.866026
    outer loop
      vertex 9.14387e-016 -25.6756 -4.11803
      vertex -1.6 -25.3135 -4.32709
      vertex -1.6 -25.6756 -4.11803
    endloop
  endfacet
  facet normal -0 0.669131 0.743144
    outer loop
      vertex -1.6 -25.6756 -4.11803
      vertex 8.52265e-016 -25.9863 -3.83826
      vertex 9.14387e-016 -25.6756 -4.11803
    endloop
  endfacet
  facet normal 0 0.669131 0.743144
    outer loop
      vertex 8.52265e-016 -25.9863 -3.83826
      vertex -1.6 -25.6756 -4.11803
      vertex -1.6 -25.9863 -3.83826
    endloop
  endfacet
  facet normal 0 0.809018 0.587784
    outer loop
      vertex 8.52265e-016 -25.9863 -3.83826
      vertex -1.6 -26.232 -3.5
      vertex 7.77156e-016 -26.232 -3.5
    endloop
  endfacet
  facet normal 0 0.809018 0.587784
    outer loop
      vertex -1.6 -26.232 -3.5
      vertex 8.52265e-016 -25.9863 -3.83826
      vertex -1.6 -25.9863 -3.83826
    endloop
  endfacet
  facet normal 0 0.913545 0.406738
    outer loop
      vertex 7.77156e-016 -26.232 -3.5
      vertex -1.6 -26.4021 -3.11803
      vertex 6.92342e-016 -26.4021 -3.11803
    endloop
  endfacet
  facet normal 0 0.913545 0.406738
    outer loop
      vertex -1.6 -26.4021 -3.11803
      vertex 7.77156e-016 -26.232 -3.5
      vertex -1.6 -26.232 -3.5
    endloop
  endfacet
  facet normal 0 0.978147 0.207913
    outer loop
      vertex 6.92342e-016 -26.4021 -3.11803
      vertex -1.6 -26.489 -2.70906
      vertex 6.01531e-016 -26.489 -2.70906
    endloop
  endfacet
  facet normal 0 0.978147 0.207913
    outer loop
      vertex -1.6 -26.489 -2.70906
      vertex 6.92342e-016 -26.4021 -3.11803
      vertex -1.6 -26.4021 -3.11803
    endloop
  endfacet
  facet normal 0 -0.809017 -0.587786
    outer loop
      vertex -1.6 -22.7679 3.5
      vertex -8.52265e-016 -23.0137 3.83826
      vertex -1.6 -23.0137 3.83826
    endloop
  endfacet
  facet normal 0 -0.809017 -0.587786
    outer loop
      vertex -8.52265e-016 -23.0137 3.83826
      vertex -1.6 -22.7679 3.5
      vertex -7.77156e-016 -22.7679 3.5
    endloop
  endfacet
  facet normal 0 -0.913545 -0.406739
    outer loop
      vertex -1.6 -22.5979 3.11803
      vertex -7.77156e-016 -22.7679 3.5
      vertex -1.6 -22.7679 3.5
    endloop
  endfacet
  facet normal 0 -0.913545 -0.406739
    outer loop
      vertex -7.77156e-016 -22.7679 3.5
      vertex -1.6 -22.5979 3.11803
      vertex -6.92342e-016 -22.5979 3.11803
    endloop
  endfacet
  facet normal 0 -0.104529 -0.994522
    outer loop
      vertex -1.6 24.5 4.5
      vertex -9.89496e-016 24.9158 4.4563
      vertex -9.99201e-016 24.5 4.5
    endloop
  endfacet
  facet normal -0 -0.104529 -0.994522
    outer loop
      vertex -9.89496e-016 24.9158 4.4563
      vertex -1.6 24.5 4.5
      vertex -1.6 24.9158 4.4563
    endloop
  endfacet
  facet normal 0 0.978148 -0.207909
    outer loop
      vertex -6.01531e-016 22.511 2.70906
      vertex -1.6 22.5979 3.11803
      vertex -6.92342e-016 22.5979 3.11803
    endloop
  endfacet
  facet normal 0 0.978148 -0.207909
    outer loop
      vertex -1.6 22.5979 3.11803
      vertex -6.01531e-016 22.511 2.70906
      vertex -1.6 22.511 2.70906
    endloop
  endfacet
  facet normal 0 0.104529 -0.994522
    outer loop
      vertex -1.6 24.0842 4.4563
      vertex -9.99201e-016 24.5 4.5
      vertex -9.89496e-016 24.0842 4.4563
    endloop
  endfacet
  facet normal 0 0.104529 -0.994522
    outer loop
      vertex -9.99201e-016 24.5 4.5
      vertex -1.6 24.0842 4.4563
      vertex -1.6 24.5 4.5
    endloop
  endfacet
  facet normal 0 -0.309018 -0.951056
    outer loop
      vertex -1.6 24.9158 4.4563
      vertex -9.60807e-016 25.3135 4.32709
      vertex -9.89496e-016 24.9158 4.4563
    endloop
  endfacet
  facet normal -0 -0.309018 -0.951056
    outer loop
      vertex -9.60807e-016 25.3135 4.32709
      vertex -1.6 24.9158 4.4563
      vertex -1.6 25.3135 4.32709
    endloop
  endfacet
  facet normal 0 1 0
    outer loop
      vertex 6.01531e-016 22.511 -2.70906
      vertex -1.6 22.511 2.70906
      vertex -6.01531e-016 22.511 2.70906
    endloop
  endfacet
  facet normal 0 1 0
    outer loop
      vertex -1.6 22.511 2.70906
      vertex 6.01531e-016 22.511 -2.70906
      vertex -1.6 22.511 -2.70906
    endloop
  endfacet
  facet normal 0 0.913545 0.406738
    outer loop
      vertex 7.77156e-016 22.7679 -3.5
      vertex -1.6 22.5979 -3.11803
      vertex 6.92342e-016 22.5979 -3.11803
    endloop
  endfacet
  facet normal 0 0.913545 0.406738
    outer loop
      vertex -1.6 22.5979 -3.11803
      vertex 7.77156e-016 22.7679 -3.5
      vertex -1.6 22.7679 -3.5
    endloop
  endfacet
  facet normal 0 -0.978147 -0.207913
    outer loop
      vertex -1.6 26.489 2.70906
      vertex -6.92342e-016 26.4021 3.11803
      vertex -1.6 26.4021 3.11803
    endloop
  endfacet
  facet normal 0 -0.978147 -0.207913
    outer loop
      vertex -6.92342e-016 26.4021 3.11803
      vertex -1.6 26.489 2.70906
      vertex -6.01531e-016 26.489 2.70906
    endloop
  endfacet
  facet normal 0 -1 0
    outer loop
      vertex -1.6 26.489 -2.70906
      vertex -6.01531e-016 26.489 2.70906
      vertex -1.6 26.489 2.70906
    endloop
  endfacet
  facet normal 0 -1 -0
    outer loop
      vertex -6.01531e-016 26.489 2.70906
      vertex -1.6 26.489 -2.70906
      vertex 6.01531e-016 26.489 -2.70906
    endloop
  endfacet
  facet normal 0 0.309019 -0.951056
    outer loop
      vertex -1.6 23.6865 4.32709
      vertex -9.89496e-016 24.0842 4.4563
      vertex -9.60807e-016 23.6865 4.32709
    endloop
  endfacet
  facet normal 0 0.309019 -0.951056
    outer loop
      vertex -9.89496e-016 24.0842 4.4563
      vertex -1.6 23.6865 4.32709
      vertex -1.6 24.0842 4.4563
    endloop
  endfacet
  facet normal 0 0.913545 -0.406738
    outer loop
      vertex -6.92342e-016 22.5979 3.11803
      vertex -1.6 22.7679 3.5
      vertex -7.77156e-016 22.7679 3.5
    endloop
  endfacet
  facet normal 0 0.913545 -0.406738
    outer loop
      vertex -1.6 22.7679 3.5
      vertex -6.92342e-016 22.5979 3.11803
      vertex -1.6 22.5979 3.11803
    endloop
  endfacet
  facet normal 0 0.669131 -0.743144
    outer loop
      vertex -1.6 23.0137 3.83826
      vertex -9.14387e-016 23.3244 4.11803
      vertex -8.52265e-016 23.0137 3.83826
    endloop
  endfacet
  facet normal 0 0.669131 -0.743144
    outer loop
      vertex -9.14387e-016 23.3244 4.11803
      vertex -1.6 23.0137 3.83826
      vertex -1.6 23.3244 4.11803
    endloop
  endfacet
  facet normal -0 0.309019 0.951056
    outer loop
      vertex -1.6 24.0842 -4.4563
      vertex 9.60807e-016 23.6865 -4.32709
      vertex 9.89496e-016 24.0842 -4.4563
    endloop
  endfacet
  facet normal 0 0.309019 0.951056
    outer loop
      vertex 9.60807e-016 23.6865 -4.32709
      vertex -1.6 24.0842 -4.4563
      vertex -1.6 23.6865 -4.32709
    endloop
  endfacet
  facet normal 0 -0.669131 -0.743144
    outer loop
      vertex -1.6 25.6756 4.11803
      vertex -8.52265e-016 25.9863 3.83826
      vertex -9.14387e-016 25.6756 4.11803
    endloop
  endfacet
  facet normal -0 -0.669131 -0.743144
    outer loop
      vertex -8.52265e-016 25.9863 3.83826
      vertex -1.6 25.6756 4.11803
      vertex -1.6 25.9863 3.83826
    endloop
  endfacet
  facet normal 0 -0.499998 -0.866026
    outer loop
      vertex -1.6 25.3135 4.32709
      vertex -9.14387e-016 25.6756 4.11803
      vertex -9.60807e-016 25.3135 4.32709
    endloop
  endfacet
  facet normal -0 -0.499998 -0.866026
    outer loop
      vertex -9.14387e-016 25.6756 4.11803
      vertex -1.6 25.3135 4.32709
      vertex -1.6 25.6756 4.11803
    endloop
  endfacet
  facet normal 0 0.499998 -0.866026
    outer loop
      vertex -1.6 23.3244 4.11803
      vertex -9.60807e-016 23.6865 4.32709
      vertex -9.14387e-016 23.3244 4.11803
    endloop
  endfacet
  facet normal 0 0.499998 -0.866026
    outer loop
      vertex -9.60807e-016 23.6865 4.32709
      vertex -1.6 23.3244 4.11803
      vertex -1.6 23.6865 4.32709
    endloop
  endfacet
  facet normal 0 0.809016 -0.587787
    outer loop
      vertex -7.77156e-016 22.7679 3.5
      vertex -1.6 23.0137 3.83826
      vertex -8.52265e-016 23.0137 3.83826
    endloop
  endfacet
  facet normal 0 0.809016 -0.587787
    outer loop
      vertex -1.6 23.0137 3.83826
      vertex -7.77156e-016 22.7679 3.5
      vertex -1.6 22.7679 3.5
    endloop
  endfacet
  facet normal 0 0.978148 0.207909
    outer loop
      vertex 6.92342e-016 22.5979 -3.11803
      vertex -1.6 22.511 -2.70906
      vertex 6.01531e-016 22.511 -2.70906
    endloop
  endfacet
  facet normal 0 0.978148 0.207909
    outer loop
      vertex -1.6 22.511 -2.70906
      vertex 6.92342e-016 22.5979 -3.11803
      vertex -1.6 22.5979 -3.11803
    endloop
  endfacet
  facet normal 0 -0.809018 0.587784
    outer loop
      vertex -1.6 25.9863 -3.83826
      vertex 7.77156e-016 26.232 -3.5
      vertex -1.6 26.232 -3.5
    endloop
  endfacet
  facet normal 0 -0.809018 0.587784
    outer loop
      vertex 7.77156e-016 26.232 -3.5
      vertex -1.6 25.9863 -3.83826
      vertex 8.52265e-016 25.9863 -3.83826
    endloop
  endfacet
  facet normal 0 -0.978147 0.207913
    outer loop
      vertex -1.6 26.4021 -3.11803
      vertex 6.01531e-016 26.489 -2.70906
      vertex -1.6 26.489 -2.70906
    endloop
  endfacet
  facet normal 0 -0.978147 0.207913
    outer loop
      vertex 6.01531e-016 26.489 -2.70906
      vertex -1.6 26.4021 -3.11803
      vertex 6.92342e-016 26.4021 -3.11803
    endloop
  endfacet
  facet normal 0 -0.104529 0.994522
    outer loop
      vertex -1.6 24.9158 -4.4563
      vertex 9.99201e-016 24.5 -4.5
      vertex 9.89496e-016 24.9158 -4.4563
    endloop
  endfacet
  facet normal 0 -0.104529 0.994522
    outer loop
      vertex 9.99201e-016 24.5 -4.5
      vertex -1.6 24.9158 -4.4563
      vertex -1.6 24.5 -4.5
    endloop
  endfacet
  facet normal -0 0.104529 0.994522
    outer loop
      vertex -1.6 24.5 -4.5
      vertex 9.89496e-016 24.0842 -4.4563
      vertex 9.99201e-016 24.5 -4.5
    endloop
  endfacet
  facet normal 0 0.104529 0.994522
    outer loop
      vertex 9.89496e-016 24.0842 -4.4563
      vertex -1.6 24.5 -4.5
      vertex -1.6 24.0842 -4.4563
    endloop
  endfacet
  facet normal 0 -0.809019 -0.587783
    outer loop
      vertex -1.6 26.232 3.5
      vertex -8.52265e-016 25.9863 3.83826
      vertex -1.6 25.9863 3.83826
    endloop
  endfacet
  facet normal 0 -0.809019 -0.587783
    outer loop
      vertex -8.52265e-016 25.9863 3.83826
      vertex -1.6 26.232 3.5
      vertex -7.77156e-016 26.232 3.5
    endloop
  endfacet
  facet normal 0 -0.913545 -0.406739
    outer loop
      vertex -1.6 26.4021 3.11803
      vertex -7.77156e-016 26.232 3.5
      vertex -1.6 26.232 3.5
    endloop
  endfacet
  facet normal 0 -0.913545 -0.406739
    outer loop
      vertex -7.77156e-016 26.232 3.5
      vertex -1.6 26.4021 3.11803
      vertex -6.92342e-016 26.4021 3.11803
    endloop
  endfacet
  facet normal 0 0.809016 0.587787
    outer loop
      vertex 8.52265e-016 23.0137 -3.83826
      vertex -1.6 22.7679 -3.5
      vertex 7.77156e-016 22.7679 -3.5
    endloop
  endfacet
  facet normal 0 0.809016 0.587787
    outer loop
      vertex -1.6 22.7679 -3.5
      vertex 8.52265e-016 23.0137 -3.83826
      vertex -1.6 23.0137 -3.83826
    endloop
  endfacet
  facet normal -0 0.669131 0.743144
    outer loop
      vertex -1.6 23.3244 -4.11803
      vertex 8.52265e-016 23.0137 -3.83826
      vertex 9.14387e-016 23.3244 -4.11803
    endloop
  endfacet
  facet normal 0 0.669131 0.743144
    outer loop
      vertex 8.52265e-016 23.0137 -3.83826
      vertex -1.6 23.3244 -4.11803
      vertex -1.6 23.0137 -3.83826
    endloop
  endfacet
  facet normal -0 0.499998 0.866026
    outer loop
      vertex -1.6 23.6865 -4.32709
      vertex 9.14387e-016 23.3244 -4.11803
      vertex 9.60807e-016 23.6865 -4.32709
    endloop
  endfacet
  facet normal 0 0.499998 0.866026
    outer loop
      vertex 9.14387e-016 23.3244 -4.11803
      vertex -1.6 23.6865 -4.32709
      vertex -1.6 23.3244 -4.11803
    endloop
  endfacet
  facet normal 0 -0.309018 0.951056
    outer loop
      vertex -1.6 25.3135 -4.32709
      vertex 9.89496e-016 24.9158 -4.4563
      vertex 9.60807e-016 25.3135 -4.32709
    endloop
  endfacet
  facet normal 0 -0.309018 0.951056
    outer loop
      vertex 9.89496e-016 24.9158 -4.4563
      vertex -1.6 25.3135 -4.32709
      vertex -1.6 24.9158 -4.4563
    endloop
  endfacet
  facet normal 0 -0.499998 0.866026
    outer loop
      vertex -1.6 25.6756 -4.11803
      vertex 9.60807e-016 25.3135 -4.32709
      vertex 9.14387e-016 25.6756 -4.11803
    endloop
  endfacet
  facet normal 0 -0.499998 0.866026
    outer loop
      vertex 9.60807e-016 25.3135 -4.32709
      vertex -1.6 25.6756 -4.11803
      vertex -1.6 25.3135 -4.32709
    endloop
  endfacet
  facet normal 0 -0.913545 0.406738
    outer loop
      vertex -1.6 26.232 -3.5
      vertex 6.92342e-016 26.4021 -3.11803
      vertex -1.6 26.4021 -3.11803
    endloop
  endfacet
  facet normal 0 -0.913545 0.406738
    outer loop
      vertex 6.92342e-016 26.4021 -3.11803
      vertex -1.6 26.232 -3.5
      vertex 7.77156e-016 26.232 -3.5
    endloop
  endfacet
  facet normal 0 -0.669131 0.743144
    outer loop
      vertex -1.6 25.9863 -3.83826
      vertex 9.14387e-016 25.6756 -4.11803
      vertex 8.52265e-016 25.9863 -3.83826
    endloop
  endfacet
  facet normal 0 -0.669131 0.743144
    outer loop
      vertex 9.14387e-016 25.6756 -4.11803
      vertex -1.6 25.9863 -3.83826
      vertex -1.6 25.6756 -4.11803
    endloop
  endfacet
  facet normal 1 -0 0
    outer loop
      vertex 4.3 -19.6 8
      vertex 4.3 -19.5608 -8
      vertex 4.3 -19.5608 8
    endloop
  endfacet
  facet normal 1 0 0
    outer loop
      vertex 4.3 -19.5608 -8
      vertex 4.3 -19.6 8
      vertex 4.3 -19.6 -8
    endloop
  endfacet
  facet normal 0 1 0
    outer loop
      vertex 3.5 -18 -8
      vertex -1.77636e-015 -18 8
      vertex 3.5 -18 8
    endloop
  endfacet
  facet normal 0 1 0
    outer loop
      vertex -1.77636e-015 -18 8
      vertex 3.5 -18 -8
      vertex 1.77636e-015 -18 -8
    endloop
  endfacet
  facet normal 0 -1 0
    outer loop
      vertex 1.77636e-015 -19.6 -8
      vertex 4.3 -19.6 8
      vertex -1.77636e-015 -19.6 8
    endloop
  endfacet
  facet normal 0 -1 -0
    outer loop
      vertex 4.3 -19.6 8
      vertex 1.77636e-015 -19.6 -8
      vertex 4.3 -19.6 -8
    endloop
  endfacet
  facet normal 1 -0 0
    outer loop
      vertex 4.3 19.5608 8
      vertex 4.3 19.6 -8
      vertex 4.3 19.6 8
    endloop
  endfacet
  facet normal 1 0 0
    outer loop
      vertex 4.3 19.6 -8
      vertex 4.3 19.5608 8
      vertex 4.3 19.5608 -8
    endloop
  endfacet
  facet normal 0 -1 0
    outer loop
      vertex 1.77636e-015 18 -8
      vertex 3.5 18 8
      vertex -1.77636e-015 18 8
    endloop
  endfacet
  facet normal 0 -1 -0
    outer loop
      vertex 3.5 18 8
      vertex 1.77636e-015 18 -8
      vertex 3.5 18 -8
    endloop
  endfacet
  facet normal 0 1 -0
    outer loop
      vertex 4.3 19.6 -8
      vertex -1.77636e-015 19.6 8
      vertex 4.3 19.6 8
    endloop
  endfacet
  facet normal 0 1 0
    outer loop
      vertex -1.77636e-015 19.6 8
      vertex 4.3 19.6 -8
      vertex 1.77636e-015 19.6 -8
    endloop
  endfacet
  facet normal -0.951056 0.309018 0
    outer loop
      vertex 3.65279 -15.8298 -8
      vertex 3.5 -16.3 8
      vertex 3.65279 -15.8298 8
    endloop
  endfacet
  facet normal -0.951057 0.309017 -5.66874e-008
    outer loop
      vertex 3.5 -16.3 -8
      vertex 3.5 -16.3 8
      vertex 3.65279 -15.8298 -8
    endloop
  endfacet
  facet normal 0.951057 -0.309017 0
    outer loop
      vertex 4.94721 -19.2702 8
      vertex 5.1 -18.8 -8
      vertex 5.1 -18.8 8
    endloop
  endfacet
  facet normal 0.951057 -0.309017 0
    outer loop
      vertex 5.1 -18.8 -8
      vertex 4.94721 -19.2702 8
      vertex 4.94721 -19.2702 -8
    endloop
  endfacet
  facet normal -1 0 -5.96046e-008
    outer loop
      vertex 3.5 -18 -8
      vertex 3.5 -16.3 8
      vertex 3.5 -16.3 -8
    endloop
  endfacet
  facet normal -1 -0 -5.96046e-008
    outer loop
      vertex 3.5 -16.3 8
      vertex 3.5 -18 -8
      vertex 3.5 -18 8
    endloop
  endfacet
  facet normal 0.587786 0.809017 -0
    outer loop
      vertex 4.94721 -15.8298 -8
      vertex 4.54721 -15.5392 8
      vertex 4.94721 -15.8298 8
    endloop
  endfacet
  facet normal 0.587786 0.809017 0
    outer loop
      vertex 4.54721 -15.5392 8
      vertex 4.94721 -15.8298 -8
      vertex 4.54721 -15.5392 -8
    endloop
  endfacet
  facet normal -0.587786 0.809017 0
    outer loop
      vertex 4.05279 -15.5392 -8
      vertex 3.65279 -15.8298 8
      vertex 4.05279 -15.5392 8
    endloop
  endfacet
  facet normal -0.587786 0.809017 0
    outer loop
      vertex 3.65279 -15.8298 8
      vertex 4.05279 -15.5392 -8
      vertex 3.65279 -15.8298 -8
    endloop
  endfacet
  facet normal 0 1 -0
    outer loop
      vertex 4.54721 -15.5392 -8
      vertex 4.05279 -15.5392 8
      vertex 4.54721 -15.5392 8
    endloop
  endfacet
  facet normal 0 1 0
    outer loop
      vertex 4.05279 -15.5392 8
      vertex 4.54721 -15.5392 -8
      vertex 4.05279 -15.5392 -8
    endloop
  endfacet
  facet normal 1 -0 0
    outer loop
      vertex 5.1 -18.8 8
      vertex 5.1 -16.3 -8
      vertex 5.1 -16.3 8
    endloop
  endfacet
  facet normal 1 0 0
    outer loop
      vertex 5.1 -16.3 -8
      vertex 5.1 -18.8 8
      vertex 5.1 -18.8 -8
    endloop
  endfacet
  facet normal 0.951057 0.309017 0
    outer loop
      vertex 5.1 -16.3 8
      vertex 4.94721 -15.8298 -8
      vertex 4.94721 -15.8298 8
    endloop
  endfacet
  facet normal 0.951057 0.309017 0
    outer loop
      vertex 4.94721 -15.8298 -8
      vertex 5.1 -16.3 8
      vertex 5.1 -16.3 -8
    endloop
  endfacet
  facet normal 0.587786 -0.809017 0
    outer loop
      vertex 4.54721 -19.5608 -8
      vertex 4.94721 -19.2702 8
      vertex 4.54721 -19.5608 8
    endloop
  endfacet
  facet normal 0.587786 -0.809017 0
    outer loop
      vertex 4.94721 -19.2702 8
      vertex 4.54721 -19.5608 -8
      vertex 4.94721 -19.2702 -8
    endloop
  endfacet
  facet normal 0 -1 0
    outer loop
      vertex 4.3 -19.5608 -8
      vertex 4.54721 -19.5608 8
      vertex 4.3 -19.5608 8
    endloop
  endfacet
  facet normal 0 -1 -0
    outer loop
      vertex 4.54721 -19.5608 8
      vertex 4.3 -19.5608 -8
      vertex 4.54721 -19.5608 -8
    endloop
  endfacet
  facet normal -1 0 -5.96046e-008
    outer loop
      vertex 3.5 16.3 -8
      vertex 3.5 18 8
      vertex 3.5 18 -8
    endloop
  endfacet
  facet normal -1 -0 -5.96046e-008
    outer loop
      vertex 3.5 18 8
      vertex 3.5 16.3 -8
      vertex 3.5 16.3 8
    endloop
  endfacet
  facet normal 1 -0 0
    outer loop
      vertex 5.1 16.3 8
      vertex 5.1 18.8 -8
      vertex 5.1 18.8 8
    endloop
  endfacet
  facet normal 1 0 0
    outer loop
      vertex 5.1 18.8 -8
      vertex 5.1 16.3 8
      vertex 5.1 16.3 -8
    endloop
  endfacet
  facet normal 0.587786 -0.809017 0
    outer loop
      vertex 4.54721 15.5392 -8
      vertex 4.94721 15.8298 8
      vertex 4.54721 15.5392 8
    endloop
  endfacet
  facet normal 0.587786 -0.809017 0
    outer loop
      vertex 4.94721 15.8298 8
      vertex 4.54721 15.5392 -8
      vertex 4.94721 15.8298 -8
    endloop
  endfacet
  facet normal -0.951057 -0.309017 -5.66874e-008
    outer loop
      vertex 3.65279 15.8298 -8
      vertex 3.5 16.3 8
      vertex 3.5 16.3 -8
    endloop
  endfacet
  facet normal 0 -1 0
    outer loop
      vertex 4.05279 15.5392 -8
      vertex 4.54721 15.5392 8
      vertex 4.05279 15.5392 8
    endloop
  endfacet
  facet normal 0 -1 -0
    outer loop
      vertex 4.54721 15.5392 8
      vertex 4.05279 15.5392 -8
      vertex 4.54721 15.5392 -8
    endloop
  endfacet
  facet normal 0.951057 0.309017 0
    outer loop
      vertex 5.1 18.8 8
      vertex 4.94721 19.2702 -8
      vertex 4.94721 19.2702 8
    endloop
  endfacet
  facet normal 0.951057 0.309017 0
    outer loop
      vertex 4.94721 19.2702 -8
      vertex 5.1 18.8 8
      vertex 5.1 18.8 -8
    endloop
  endfacet
  facet normal -0.951056 -0.309018 0
    outer loop
      vertex 3.65279 15.8298 -8
      vertex 3.65279 15.8298 8
      vertex 3.5 16.3 8
    endloop
  endfacet
  facet normal -0.587786 -0.809017 0
    outer loop
      vertex 3.65279 15.8298 -8
      vertex 4.05279 15.5392 8
      vertex 3.65279 15.8298 8
    endloop
  endfacet
  facet normal -0.587786 -0.809017 -0
    outer loop
      vertex 4.05279 15.5392 8
      vertex 3.65279 15.8298 -8
      vertex 4.05279 15.5392 -8
    endloop
  endfacet
  facet normal 0.951057 -0.309017 0
    outer loop
      vertex 4.94721 15.8298 8
      vertex 5.1 16.3 -8
      vertex 5.1 16.3 8
    endloop
  endfacet
  facet normal 0.951057 -0.309017 0
    outer loop
      vertex 5.1 16.3 -8
      vertex 4.94721 15.8298 8
      vertex 4.94721 15.8298 -8
    endloop
  endfacet
  facet normal 0.587786 0.809017 -0
    outer loop
      vertex 4.94721 19.2702 -8
      vertex 4.54721 19.5608 8
      vertex 4.94721 19.2702 8
    endloop
  endfacet
  facet normal 0.587786 0.809017 0
    outer loop
      vertex 4.54721 19.5608 8
      vertex 4.94721 19.2702 -8
      vertex 4.54721 19.5608 -8
    endloop
  endfacet
  facet normal 0 1 -0
    outer loop
      vertex 4.54721 19.5608 -8
      vertex 4.3 19.5608 8
      vertex 4.54721 19.5608 8
    endloop
  endfacet
  facet normal 0 1 0
    outer loop
      vertex 4.3 19.5608 8
      vertex 4.54721 19.5608 -8
      vertex 4.3 19.5608 -8
    endloop
  endfacet
endsolid OpenSCAD_Model
